<svg width="803" height="702" viewBox="0 0 803 702" fill="none" xmlns="http://www.w3.org/2000/svg">
<path d="M712.381 254.228L528.067 183.476C478.465 164.436 422.818 189.211 403.777 238.814L339.178 407.1C320.137 456.703 344.913 512.35 394.516 531.39L578.83 602.142C628.433 621.183 684.079 596.407 703.12 546.804L767.719 378.518C786.76 328.915 761.984 273.269 712.381 254.228Z" stroke="#FEAC00" stroke-opacity="0.05" stroke-width="6"/>
<path d="M624.483 305.045L440.169 234.293C390.566 215.252 334.919 240.028 315.879 289.631L251.28 457.917C232.239 507.52 257.014 563.166 306.617 582.207L490.931 652.959C540.534 671.999 596.181 647.224 615.222 597.621L679.821 429.335C698.861 379.732 674.086 324.086 624.483 305.045Z" stroke="#FEAC00" stroke-opacity="0.05" stroke-width="6"/>
<path d="M583.308 643.789L583.312 639.728L583.314 635.666L583.318 631.587L583.323 627.525L583.328 623.465L583.329 622.955C583.333 622.759 583.286 622.565 583.193 622.392C583.131 622.204 583.02 622.036 582.873 621.904C582.732 621.754 582.554 621.644 582.357 621.587C582.177 621.497 581.976 621.457 581.775 621.47C581.379 621.48 581.003 621.643 580.724 621.925C580.446 622.223 580.291 622.616 580.29 623.023L580.287 627.085L580.283 631.147L580.278 635.226L580.274 639.287L580.27 643.349L580.269 643.859C580.265 644.055 580.312 644.249 580.405 644.422C580.467 644.609 580.578 644.778 580.725 644.91C580.866 645.06 581.044 645.17 581.242 645.227C581.421 645.317 581.622 645.357 581.823 645.343C582.219 645.333 582.595 645.169 582.874 644.887C583.151 644.589 583.306 644.197 583.307 643.789L583.308 643.789Z" fill="#FF9A00"/>
<path d="M595.684 634.167C595.463 633.106 595.239 632.045 594.996 630.989C594.753 629.933 594.49 628.874 594.191 627.829C593.892 626.784 593.56 625.764 593.174 624.756C592.755 623.647 592.268 622.565 591.716 621.516C591.215 620.571 590.639 619.667 589.993 618.814C589.839 618.61 589.679 618.409 589.52 618.207C589.379 618.057 589.201 617.948 589.003 617.89C588.823 617.8 588.623 617.76 588.422 617.774C588.226 617.771 588.032 617.817 587.859 617.91C587.672 617.973 587.503 618.083 587.371 618.23L587.128 618.557C586.997 618.792 586.931 619.059 586.937 619.328L586.996 619.712C587.068 619.965 587.205 620.195 587.393 620.379L587.445 620.445L587.202 620.135C588.085 621.271 588.845 622.497 589.47 623.792C589.648 624.156 589.816 624.525 589.975 624.899L589.822 624.542C590.372 625.843 590.842 627.176 591.228 628.535C591.623 629.899 591.954 631.28 592.261 632.665C592.435 633.445 592.601 634.227 592.759 635.01C592.805 635.201 592.9 635.378 593.035 635.521C593.153 635.686 593.306 635.822 593.483 635.92C593.661 636.018 593.857 636.076 594.059 636.089C594.252 636.127 594.452 636.114 594.639 636.052C595.026 635.94 595.353 635.679 595.549 635.327L595.698 634.948C595.759 634.692 595.754 634.425 595.681 634.172L595.684 634.167Z" fill="#FF9A00"/>
<path d="M606.856 620.872C606.809 620.903 606.761 620.929 606.71 620.951L607.066 620.798C607.005 620.822 606.941 620.839 606.876 620.849L607.26 620.791C607.189 620.8 607.116 620.801 607.044 620.794L607.435 620.835C607.326 620.822 607.219 620.794 607.116 620.754C607.242 620.804 607.369 620.853 607.496 620.902C607.308 620.825 607.132 620.724 606.971 620.601C607.08 620.683 607.188 620.764 607.298 620.845C606.95 620.562 606.622 620.257 606.314 619.931C605.935 619.563 605.551 619.199 605.162 618.841C604.384 618.124 603.587 617.428 602.773 616.752C601.04 615.317 599.233 613.972 597.36 612.725C596.36 612.06 595.341 611.425 594.303 610.818C594.13 610.711 593.931 610.653 593.727 610.649C593.534 610.611 593.334 610.624 593.148 610.686C592.956 610.732 592.78 610.827 592.636 610.961C592.465 611.073 592.328 611.227 592.237 611.409C592.044 611.763 591.997 612.177 592.106 612.565C592.225 612.948 592.483 613.272 592.83 613.475C594.352 614.363 595.835 615.316 597.278 616.333C597.683 616.62 598.084 616.911 598.482 617.207L598.155 616.964C599.418 617.907 600.643 618.897 601.832 619.933C602.421 620.448 603 620.974 603.569 621.511C603.86 621.782 604.146 622.057 604.426 622.336C604.641 622.56 604.868 622.771 605.107 622.969C605.324 623.148 605.554 623.31 605.796 623.454C606.035 623.586 606.289 623.689 606.553 623.76C606.864 623.844 607.19 623.863 607.509 623.816C607.828 623.769 608.134 623.656 608.407 623.486C608.585 623.391 608.734 623.251 608.839 623.08C608.975 622.926 609.069 622.738 609.108 622.537C609.163 622.346 609.167 622.145 609.121 621.953C609.108 621.757 609.045 621.568 608.938 621.404C608.836 621.232 608.701 621.082 608.541 620.963C608.382 620.843 608.2 620.756 608.006 620.707C607.813 620.657 607.612 620.647 607.414 620.675C607.217 620.704 607.027 620.771 606.855 620.872L606.856 620.872Z" fill="#FF9A00"/>
<path d="M166.894 519.058L360.928 555.503C413.146 565.312 463.429 530.931 473.237 478.712L506.514 301.552C516.322 249.333 481.941 199.05 429.723 189.242L235.689 152.796C183.47 142.988 133.187 177.369 123.379 229.587L90.1027 406.748C80.2945 458.967 114.675 509.249 166.894 519.058Z" stroke="#FEAC00" stroke-opacity="0.05" stroke-width="6"/>
<path d="M244.218 453.259L438.252 489.705C490.471 499.513 540.754 465.133 550.562 412.914L583.838 235.753C593.647 183.535 559.266 133.252 507.047 123.444L313.014 86.9981C260.795 77.1898 210.512 111.57 200.704 163.789L167.427 340.95C157.619 393.168 192 443.451 244.218 453.259Z" stroke="#FEAC00" stroke-opacity="0.05" stroke-width="6"/>
<path d="M223.793 112.634L224.519 116.63L225.247 120.626L225.977 124.639L226.704 128.636L227.428 132.63L227.519 133.132C227.551 133.326 227.632 133.508 227.754 133.661C227.849 133.835 227.988 133.981 228.157 134.084C228.322 134.206 228.518 134.282 228.722 134.303C228.915 134.359 229.12 134.362 229.315 134.313C229.702 134.232 230.044 134.004 230.267 133.676C230.487 133.333 230.569 132.919 230.496 132.518L229.769 128.522L229.043 124.526L228.313 120.512L227.586 116.516L226.861 112.52L226.77 112.019C226.738 111.825 226.657 111.643 226.535 111.49C226.439 111.316 226.301 111.17 226.132 111.067C225.967 110.944 225.771 110.869 225.567 110.848C225.374 110.792 225.169 110.788 224.974 110.838C224.587 110.92 224.245 111.148 224.022 111.475C223.803 111.819 223.721 112.233 223.794 112.634L223.793 112.634Z" fill="#FF9A00"/>
<path d="M213.348 124.325C213.758 125.329 214.168 126.332 214.597 127.327C215.026 128.323 215.475 129.316 215.958 130.291C216.44 131.265 216.949 132.209 217.511 133.131C218.123 134.146 218.796 135.123 219.528 136.056C220.191 136.896 220.92 137.681 221.708 138.404C221.897 138.577 222.091 138.746 222.283 138.916C222.449 139.038 222.644 139.114 222.849 139.135C223.042 139.191 223.246 139.194 223.441 139.144C223.635 139.112 223.817 139.032 223.97 138.91C224.143 138.814 224.289 138.675 224.393 138.507L224.573 138.142C224.66 137.886 224.677 137.612 224.622 137.348L224.495 136.981C224.379 136.746 224.203 136.544 223.985 136.397L223.922 136.341L224.216 136.602C223.144 135.644 222.176 134.575 221.328 133.413C221.088 133.087 220.855 132.754 220.631 132.415L220.847 132.738C220.071 131.558 219.369 130.331 218.746 129.064C218.112 127.793 217.537 126.494 216.986 125.187C216.674 124.451 216.37 123.712 216.074 122.97C215.995 122.79 215.87 122.633 215.711 122.516C215.565 122.376 215.39 122.27 215.198 122.205C215.007 122.14 214.803 122.119 214.602 122.142C214.405 122.139 214.21 122.188 214.038 122.283C213.677 122.463 213.402 122.778 213.273 123.159L213.195 123.559C213.18 123.822 213.234 124.084 213.351 124.32L213.348 124.325Z" fill="#FF9A00"/>
<path d="M204.751 139.413C204.791 139.374 204.834 139.339 204.881 139.308L204.557 139.524C204.613 139.489 204.673 139.46 204.735 139.439L204.368 139.565C204.437 139.544 204.508 139.53 204.58 139.524L204.188 139.554C204.298 139.547 204.408 139.554 204.516 139.576C204.383 139.55 204.25 139.524 204.116 139.498C204.314 139.541 204.506 139.608 204.687 139.7C204.565 139.639 204.443 139.579 204.321 139.519C204.714 139.735 205.092 139.976 205.453 140.241C205.892 140.535 206.336 140.823 206.783 141.106C207.677 141.672 208.586 142.213 209.508 142.731C211.471 143.832 213.491 144.829 215.558 145.719C216.661 146.193 217.778 146.635 218.908 147.045C219.097 147.119 219.303 147.14 219.504 147.108C219.701 147.111 219.895 147.062 220.068 146.967C220.248 146.888 220.404 146.762 220.522 146.604C220.669 146.464 220.777 146.287 220.834 146.092C220.96 145.709 220.932 145.293 220.754 144.932C220.568 144.576 220.256 144.303 219.879 144.167C218.221 143.566 216.591 142.896 214.989 142.155C214.539 141.946 214.092 141.732 213.648 141.512L214.013 141.693C212.601 140.992 211.218 140.239 209.862 139.433C209.19 139.032 208.525 138.619 207.869 138.193C207.534 137.979 207.204 137.759 206.877 137.536C206.626 137.354 206.365 137.187 206.094 137.035C205.848 136.898 205.593 136.78 205.329 136.682C205.07 136.595 204.802 136.54 204.53 136.518C204.208 136.491 203.885 136.531 203.579 136.635C203.274 136.738 202.993 136.904 202.755 137.121C202.597 137.246 202.476 137.41 202.403 137.598C202.297 137.774 202.239 137.975 202.236 138.18C202.216 138.377 202.248 138.576 202.329 138.757C202.377 138.947 202.473 139.122 202.607 139.264C202.738 139.415 202.898 139.538 203.077 139.627C203.255 139.716 203.45 139.769 203.649 139.782C203.848 139.796 204.048 139.77 204.237 139.707C204.426 139.644 204.601 139.543 204.752 139.412L204.751 139.413Z" fill="#FF9A00"/>
<path d="M602.758 563.807C602.758 563.807 668.958 517.36 688.01 438.317C707.063 359.263 677.975 263.42 622.817 215.004C567.647 166.587 468.348 199.195 424.219 239.707C380.09 280.22 380.09 280.22 380.09 280.22C380.09 280.22 337.961 302.942 282.79 300.972C227.62 298.99 178.473 373.101 165.432 431.404C152.391 489.707 183.491 566.78 183.491 566.78L602.758 563.807Z" fill="#FFF3E0"/>
<path d="M632.841 575.663C632.841 575.663 678.982 550.959 691.017 493.647C703.052 436.335 650.9 383.966 645.882 355.31C640.864 326.654 651.906 291.085 605.765 263.408C559.624 235.743 477.378 245.617 446.278 238.704C415.178 231.791 379.072 184.353 316.885 195.23C254.697 206.096 194.509 238.704 191.503 309.854C188.497 381.005 211.562 382.975 188.497 421.517C165.433 460.06 156.404 486.734 167.433 526.255C178.462 565.776 201.538 576.654 201.538 576.654L632.841 575.663Z" fill="#FFF3E0"/>
<path d="M536.511 562.815C539.383 559.854 581.476 476.847 534.596 400.766C487.715 324.684 370.042 333.567 323.162 363.214C276.282 392.862 253.327 431.392 248.539 471.904C243.752 512.417 275.325 575.663 275.325 575.663L536.511 562.815Z" fill="#FFF3E0"/>
<path d="M206.434 423.082H260.513C263.858 423.082 266.573 420.407 266.573 417.112V390.51C266.573 387.214 263.858 384.54 260.513 384.54H206.434C203.089 384.54 200.374 387.214 200.374 390.51V417.112C200.374 420.407 203.089 423.082 206.434 423.082Z" fill="#FFB94E"/>
<path d="M233.474 438.151L224.905 418.139H242.042L233.474 438.151Z" fill="#FFB94E"/>
<path d="M233.679 397.196H218.19V399.428L210.603 395.118L218.19 390.808V393.04H233.679V397.196Z" fill="#223A7A"/>
<path d="M210.603 405.96H226.08V403.739L233.679 408.049L226.08 412.359V410.127H210.603V405.96Z" fill="white"/>
<path d="M243.182 409.888L243.921 410.15C243.921 410.15 246.224 407.571 247.412 404.754C248.6 401.936 248.648 398.509 248.648 398.509L248.115 398.282L251.387 390.569C251.969 391.023 252.527 391.596 252.975 392.348C254.829 395.428 254.648 400.169 252.781 404.789C250.915 409.41 248.927 413.541 245.291 416.132C243.146 417.661 241.303 417.935 239.873 417.708L243.182 409.888Z" fill="#223A7A"/>
<path d="M240.831 408.981L241.849 409.351L238.504 417.255C238.128 417.136 237.789 416.98 237.486 416.825C236.625 416.36 236.238 415.333 236.601 414.425L238.346 410.079C238.734 409.112 239.837 408.622 240.831 408.981Z" fill="#223A7A"/>
<path d="M248.818 389.208C249.23 389.351 249.679 389.554 250.127 389.817L246.782 397.697L245.655 397.232C244.673 396.826 244.212 395.739 244.588 394.76L246.345 390.318C246.733 389.363 247.824 388.862 248.818 389.208Z" fill="#223A7A"/>
<path d="M552.145 549.479V460.55C552.145 460.55 553.151 436.586 540.364 429.673C527.578 422.76 473.668 426.461 473.668 426.461V549.479H552.145Z" fill="#FF9A00"/>
<path d="M456.809 343.204C456.809 343.204 460.07 370.128 461.318 372.349C462.566 374.57 462.566 374.57 462.566 374.57L468.833 378.773C468.833 378.773 456.797 395.572 441.999 398.283C427.2 401.005 428.461 392.349 428.461 392.349L430.715 387.656L427.709 361.961C427.722 361.985 454.555 349.878 456.809 343.204Z" fill="#FFBFB4"/>
<path d="M476.626 381.005L466.846 376.802C466.846 376.802 460.58 386.927 446.036 392.862C431.492 398.796 431.237 395.333 430.486 392.862C429.734 390.39 430.74 387.68 430.74 387.68L429.661 379.035L423.844 380.945L403.652 541.837L455.562 544.309L476.626 381.005Z" fill="white"/>
<path d="M428.728 379.19C428.728 379.19 425.213 387.178 421.953 405.948C418.693 424.718 415.687 456.347 414.935 478.077C414.184 499.808 413.687 549.467 413.687 549.467C413.687 549.467 348.991 549.467 348.239 549.467C347.488 549.467 342.979 525.014 342.979 525.014C342.979 525.014 371.57 500.883 373.073 496.931C374.079 494.292 373.57 445.469 377.836 422.986C382.102 400.503 387.617 395.978 399.155 390.378C411.057 384.599 428.728 379.19 428.728 379.19Z" fill="#223A7A"/>
<path d="M394.623 521.181C394.962 521.181 395.229 520.918 395.229 520.584C395.229 518.817 395.544 493.719 395.859 469.457C396.162 445.183 396.489 420.085 396.489 418.318C396.489 417.983 396.223 417.721 395.883 417.721C395.544 417.721 395.277 417.983 395.277 418.318C395.277 420.085 394.962 445.183 394.647 469.445C394.344 493.719 394.017 518.817 394.017 520.584C394.017 520.906 394.296 521.181 394.623 521.181Z" fill="#8593B6"/>
<path d="M525.021 515.14L525.518 549.479H449.283C449.283 549.479 446.023 520.334 447.271 517.611C448.544 514.901 525.021 515.14 525.021 515.14Z" fill="#223A7A"/>
<path d="M440.181 371.621C437.078 374.092 432.824 376.062 429.515 377.268L427.721 361.985C427.721 361.985 447.877 352.887 454.712 346.129C453.282 353.806 449.767 363.991 440.181 371.621Z" fill="#8E9BBB"/>
<path d="M404.148 293.055C404.148 293.055 398.888 301.951 397.882 312.816C396.876 323.681 397.882 351.597 406.911 363.454C415.941 375.31 434.751 371.847 443.271 364.683C451.101 358.104 458.821 350.845 460.821 336.517C462.833 322.189 456.555 295.013 438.751 289.33C420.958 283.67 404.148 293.055 404.148 293.055Z" fill="#FFBFB4"/>
<path d="M381.533 533.957C381.533 533.957 382.418 533.957 383.763 533.921C384.078 533.909 384.429 533.921 384.793 533.909C386.09 533.873 387.666 533.837 389.253 533.789C389.605 533.778 389.968 533.766 390.32 533.754C391.895 533.718 393.241 533.909 394.501 533.837H394.538C394.804 533.825 395.192 533.861 395.507 533.873C395.665 533.885 395.81 533.897 395.907 533.885C396.634 533.754 396.78 533.587 397.568 533.24C398.586 532.787 412.366 529.754 423.577 529.825C434.776 529.873 444.823 530.625 446.46 529.276C448.108 527.903 449.102 514.041 439.539 513.133L427.783 517.527C427.783 517.527 400.937 514.387 391.095 521.539C381.23 528.691 381.533 533.957 381.533 533.957Z" fill="#FFBFB4"/>
<path d="M394.537 533.837C394.804 533.825 395.192 533.861 395.507 533.873C395.749 533.491 396.258 532.798 396.537 532.512C399.567 529.467 406.887 527.497 409.542 526.864C409.784 526.804 409.942 526.566 409.881 526.327C409.833 526.088 409.578 525.945 409.324 525.993C405.457 526.912 397.252 529.264 394.925 533.121C394.852 533.228 394.658 533.598 394.537 533.837Z" fill="#223A7A"/>
<path d="M389.253 533.778C389.605 533.766 389.968 533.766 390.32 533.742C393.629 527.796 399.046 526.088 405.724 523.975L406.124 523.844C406.355 523.772 406.488 523.509 406.415 523.271C406.342 523.044 406.088 522.912 405.833 522.984L405.446 523.115C398.38 525.36 392.683 527.151 389.253 533.778Z" fill="#223A7A"/>
<path d="M383.762 533.909C384.078 533.897 384.429 533.909 384.793 533.897C386.805 529.742 393.446 522.781 402.221 521.169C402.476 521.121 402.633 520.894 402.597 520.644C402.548 520.405 402.306 520.25 402.064 520.285C393.022 521.969 385.714 529.24 383.762 533.909Z" fill="#223A7A"/>
<path d="M454.81 324.314C454.81 324.314 449.295 321.723 445.405 314.428C441.514 307.144 442.023 300.589 442.023 300.589C442.023 300.589 435.006 299.479 424.473 302.571C413.941 305.664 401.409 309.855 390.877 303.933C380.345 297.998 380.345 288.494 385.483 284.542C391.24 280.112 402.657 282.811 402.657 282.811C402.657 282.811 398.27 278.608 400.646 276.136C403.033 273.665 411.675 276.877 411.675 276.877C411.675 276.877 422.207 268.602 442.144 269.593C462.082 270.584 471.608 284.291 472.735 299.61C473.862 314.929 468.227 330.248 468.227 330.248L454.81 324.314Z" fill="#223A7A"/>
<path d="M414.366 328.028C415.493 330.774 415.469 333.962 415.748 336.863C415.966 339.132 416.39 341.77 414.281 343.299C413.275 344.027 408.512 345.997 410.96 347.597C411.893 348.206 413.457 348.039 414.523 347.991C415.251 347.955 415.99 347.931 416.729 347.872C417.517 347.812 418.281 347.585 419.068 347.573C419.529 347.573 419.674 348.17 419.299 348.409C418.038 349.185 416.172 349.436 414.705 349.484C413.227 349.543 412.233 349.472 410.9 348.827C410.087 348.433 409.288 347.86 409.166 346.905C409.021 345.83 409.845 344.863 410.669 344.254C411.615 343.561 412.778 343.239 413.736 342.558C415.069 341.627 414.96 340.039 414.863 338.582C414.632 335.072 413.82 331.621 413.505 328.123C413.445 327.61 414.196 327.61 414.366 328.028Z" fill="#8E9BBB"/>
<path d="M404.112 336.23C404.488 338.308 406.027 339.788 407.542 339.525C409.069 339.263 409.99 337.352 409.627 335.275C409.251 333.197 407.712 331.717 406.197 331.979C404.67 332.254 403.737 334.152 404.112 336.23Z" fill="#223A7A"/>
<path d="M423.298 334.583C423.637 336.828 425.249 338.451 426.886 338.213C428.534 337.974 429.588 335.956 429.249 333.711C428.91 331.466 427.298 329.843 425.661 330.081C424.025 330.32 422.959 332.338 423.298 334.583Z" fill="#223A7A"/>
<path d="M408.585 327.657C407.409 327.848 406.233 327.657 405.046 327.741C404.767 327.765 404.476 327.801 404.197 327.825C403.991 327.848 404.573 327.765 404.294 327.813C404.234 327.825 404.173 327.837 404.113 327.837C403.967 327.86 403.822 327.896 403.676 327.932C403.422 327.992 403.179 328.087 402.925 328.135C402.694 328.183 402.44 328.242 402.21 328.231C402.076 328.219 401.955 328.195 401.822 328.183C401.907 328.195 401.979 328.207 402.064 328.231C402.064 328.254 401.628 328.195 401.579 328.183C400.913 328.028 400.489 327.263 400.683 326.619C400.731 326.428 400.816 326.272 400.937 326.117C400.986 326.057 401.034 325.986 401.095 325.926C401.046 325.974 400.998 326.034 400.949 326.081C400.998 326.01 401.046 325.95 401.107 325.878C401.167 325.771 401.264 325.675 401.373 325.616C401.47 325.544 401.555 325.472 401.652 325.401C401.967 325.186 402.367 325.066 402.743 324.971C403.446 324.792 404.173 324.708 404.9 324.696C405.615 324.696 406.33 324.768 407.033 324.863C407.664 324.947 408.354 325.162 408.863 325.532C409.251 325.819 409.494 326.189 409.433 326.69C409.373 327.096 409.033 327.574 408.585 327.657Z" fill="#223A7A"/>
<path d="M421.953 324.35C422.11 324.255 422.28 324.171 422.438 324.1C422.583 324.04 422.971 323.837 422.68 323.992C422.789 323.932 422.898 323.873 423.007 323.825C423.492 323.586 424.001 323.419 424.522 323.288C425.662 323.001 426.874 322.93 428.049 323.049C429.298 323.18 430.449 323.479 431.528 324.124C431.685 324.219 431.843 324.303 431.964 324.434C432.049 324.541 432.134 324.649 432.219 324.756C432.194 324.721 432.17 324.685 432.146 324.649C432.485 324.876 432.679 325.258 432.667 325.652C432.667 326.034 432.461 326.356 432.122 326.535C431.709 326.762 431.322 326.655 430.897 326.547C431.103 326.547 431.322 326.547 431.528 326.547C431.176 326.595 430.934 326.619 430.582 326.535C430.57 326.535 430.243 326.452 430.461 326.5C430.667 326.547 430.122 326.464 430.061 326.452C429.988 326.44 429.613 326.404 430.013 326.44C429.94 326.428 429.867 326.428 429.795 326.416C429.601 326.392 429.419 326.368 429.225 326.356C428.401 326.297 427.577 326.261 426.74 326.225C425.977 326.201 425.189 326.189 424.413 326.225C424.086 326.237 423.759 326.249 423.432 326.261C423.25 326.261 423.322 326.297 423.456 326.261C423.383 326.285 423.322 326.297 423.25 326.309C423.116 326.344 422.983 326.392 422.85 326.44C422.316 326.643 421.674 326.261 421.48 325.771C421.262 325.258 421.444 324.649 421.953 324.35Z" fill="#223A7A"/>
<path d="M416.002 358.69C414.85 356.409 412.753 354.737 410.341 353.663C412.438 353.448 422.365 352.552 424.861 353.949C427.661 355.514 424.34 361.818 418.547 362.128C417.941 362.164 417.383 362.116 416.85 362.033C416.801 360.887 416.535 359.752 416.002 358.69Z" fill="#223A7A"/>
<path d="M461.827 345.436C461.827 345.436 460.821 349.269 455.052 353.71C449.283 358.152 440.92 361.412 440.92 361.412L440.254 358.534C440.254 358.534 448.907 354.833 452.919 350.749C456.931 346.678 457.428 344.445 457.428 344.445L461.827 345.436Z" fill="#DEE1EB"/>
<path d="M439.26 356.397C434.618 356.182 432.025 359.8 431.71 362.14C431.382 364.481 433.612 367.108 438.836 364.803C445.308 361.926 443.902 356.6 439.26 356.397Z" fill="#223A7A"/>
<path d="M458.192 317.15C458.192 317.15 456.192 302.953 446.532 293.306C428.098 274.906 412.427 276.017 412.427 276.017C412.427 276.017 412.548 273.426 418.45 271.444C423.989 269.593 426.474 270.584 426.474 270.584C426.474 270.584 441.648 271.814 454.435 285.772C467.221 299.729 468.603 317.52 468.603 317.52L458.192 317.15Z" fill="#DEE1EB"/>
<path d="M459.573 315.419C471.645 313.401 478.384 322.702 478.881 332.099C479.378 341.484 472.457 348.624 463.209 347.908C442.399 346.296 444.775 317.891 459.573 315.419Z" fill="white"/>
<path d="M465.585 338.774C468.772 338.774 471.463 337.198 473.002 334.415C474.651 331.442 474.517 327.777 472.651 325.078C472.505 324.875 472.227 324.828 472.021 324.959C471.815 325.102 471.754 325.377 471.899 325.58C473.572 328.004 473.693 331.299 472.202 333.986C470.796 336.529 468.3 337.974 465.342 337.878C462.579 337.806 460.24 336.565 458.761 334.38C457.064 331.884 456.677 328.445 457.767 325.604C458.858 322.786 461.828 320.876 464.53 321.222C464.773 321.258 465.003 321.078 465.039 320.84C465.076 320.589 464.894 320.374 464.652 320.338C461.488 319.92 458.167 322.058 456.919 325.293C455.719 328.398 456.155 332.159 458.01 334.881C459.67 337.317 462.264 338.702 465.318 338.774C465.415 338.774 465.5 338.774 465.585 338.774Z" fill="#818FB3"/>
<path d="M474.372 377.542C474.372 377.542 510.986 386.438 523.773 400.766C536.559 415.094 542.583 485.743 542.825 498.841C543.08 511.939 533.796 517.372 528.281 521.073C522.767 524.775 498.442 531.449 478.88 532.44C459.319 533.431 440.763 532.44 440.763 532.44C440.763 532.44 440.824 528.237 437.818 522.064C435.03 516.333 431.491 515.151 431.491 515.151L448.289 509.217C448.289 509.217 451.235 457.29 455.816 432.144C461.076 403.237 474.372 377.542 474.372 377.542Z" fill="#223A7A"/>
<path d="M413.686 500.919C413.771 500.919 413.856 500.907 413.929 500.871C414.232 500.74 414.377 500.381 414.232 500.083C410.802 492.453 407.251 477.492 405.251 466.985L405.081 466.137C404.475 463.045 403.724 459.212 405.227 456.55C405.99 455.2 407.723 452.263 409.396 449.445C411.129 446.52 412.753 443.75 413.214 442.926C414.098 441.314 411.311 437.004 407.287 431.094C406.196 429.494 405.263 428.12 404.718 427.189C403.288 424.741 404.233 422.509 405.348 419.906L405.724 419.01C406.73 416.586 407.869 414.163 408.972 411.81C409.42 410.855 409.869 409.888 410.317 408.921C410.911 407.643 411.493 406.342 412.099 405.029C415.638 397.244 419.31 389.196 424.001 381.423C424.17 381.137 424.073 380.778 423.794 380.599C423.504 380.432 423.14 380.528 422.958 380.802C418.231 388.635 414.547 396.718 410.996 404.527C410.402 405.84 409.808 407.142 409.226 408.408C408.778 409.375 408.329 410.33 407.881 411.285C406.778 413.649 405.627 416.085 404.621 418.533L404.245 419.416C403.118 422.055 401.954 424.801 403.687 427.75C404.257 428.717 405.202 430.115 406.305 431.726C408.402 434.807 412.765 441.219 412.171 442.329C411.723 443.141 410.099 445.899 408.378 448.813C406.705 451.642 404.972 454.58 404.196 455.941C402.475 458.973 403.275 463.057 403.918 466.329L404.087 467.176C404.815 470.997 408.681 490.579 413.153 500.537C413.226 500.787 413.456 500.919 413.686 500.919Z" fill="#8593B6"/>
<path d="M449.417 503.02C449.574 503.02 449.732 502.96 449.841 502.841C452.689 500.011 466.433 476.573 467.451 472.167C468.009 469.755 466.603 463.63 465.246 457.708C464.191 453.123 463.1 448.383 463.415 447.093C463.876 445.171 467.391 442.341 470.797 439.607C474.905 436.299 479.147 432.885 479.971 429.804C480.905 426.306 480.105 404.408 479.583 389.924C479.39 384.719 479.244 380.599 479.244 379.131C479.244 378.796 478.978 378.534 478.638 378.534C478.299 378.534 478.032 378.796 478.032 379.131C478.032 380.623 478.178 384.743 478.371 389.96C478.868 403.5 479.693 426.162 478.808 429.494C478.081 432.192 473.814 435.631 470.045 438.664C466.324 441.661 462.822 444.478 462.264 446.795C461.888 448.347 462.906 452.801 464.094 457.947C465.367 463.463 466.797 469.72 466.3 471.869C465.294 476.191 451.804 499.187 449.005 501.969C448.774 502.208 448.774 502.578 449.005 502.817C449.102 502.96 449.259 503.02 449.417 503.02Z" fill="#8593B6"/>
<path d="M498.684 492.764C498.708 492.764 498.745 492.764 498.769 492.764C499.096 492.716 499.327 492.418 499.29 492.083C498.842 488.979 491.885 427.13 491.57 422.389C491.545 422.055 491.255 421.804 490.927 421.828C490.588 421.852 490.346 422.139 490.358 422.461C490.673 427.201 497.642 489.134 498.09 492.238C498.127 492.549 498.393 492.764 498.684 492.764Z" fill="#8593B6"/>
<path d="M448.786 509.563C448.859 509.563 448.944 509.551 449.017 509.515C450.556 508.894 457.367 506.638 465.985 503.772C483.389 497.993 507.217 490.077 511.75 487.748C512.053 487.593 512.162 487.235 512.004 486.948C511.847 486.65 511.483 486.542 511.192 486.698C506.744 488.978 481.983 497.205 465.597 502.65C456.955 505.527 450.132 507.784 448.556 508.417C448.241 508.536 448.096 508.894 448.217 509.193C448.326 509.42 448.556 509.563 448.786 509.563Z" fill="#8593B6"/>
<path d="M457.162 534.196C472.481 534.196 502.163 531.473 524.719 523.617C525.034 523.509 525.203 523.163 525.082 522.852C524.973 522.542 524.622 522.375 524.307 522.494C495.812 532.428 455.95 534.124 448.532 532.476C448.205 532.405 447.878 532.608 447.805 532.93C447.732 533.252 447.938 533.575 448.266 533.646C449.89 533.993 452.993 534.196 457.162 534.196Z" fill="#8593B6"/>
<path d="M632.452 385.877C627.701 389.996 621.678 392.635 617.508 397.399C615.872 399.273 614.393 401.267 612.866 403.237C611.751 404.67 608.794 407.046 608.321 408.837C608.115 409.625 608.152 408.551 608.37 407.763C608.382 407.727 608.394 407.703 608.406 407.667C608.818 404.025 609.121 400.372 609.255 396.706C609.388 393.052 609.158 389.387 609.388 385.745C609.715 380.599 611.351 375.62 615.618 372.396C617.702 370.82 620.381 369.865 622.308 368.11C624.126 366.45 623.399 364.552 622.332 362.701C621.326 360.97 620.114 359.262 619.726 357.268C619.278 355 620.15 352.659 621.314 350.737C623.799 346.63 629.301 342.045 634.525 342.666C638.876 343.179 639.373 348.122 639.3 351.561C639.239 354.904 638.9 358.247 638.876 361.591C638.839 365.029 639.433 368.408 639.482 371.835C639.53 377.662 636.803 382.104 632.452 385.877Z" fill="#FF9A00"/>
<path d="M588.275 439.344C586.954 436.228 585.427 433.326 583.56 430.496C581.003 426.616 578.155 422.831 576.434 418.485C574.676 414.043 574.931 409.303 574.761 404.634C574.64 401.196 573.598 397.781 573.876 394.33C574.01 392.682 574.979 390.008 577.149 390.283C578.833 390.497 579.839 392.551 580.482 393.876C581.609 396.169 582.397 398.617 583.233 401.029C583.56 401.972 583.875 402.927 584.287 403.834C584.53 404.36 585.293 405.649 586.021 405.482C587.257 405.184 586.13 400.229 585.948 399.345C585.027 394.939 583.645 390.844 583.451 386.307C583.172 379.728 583.694 371.895 590.226 368.301C591.935 367.358 594.093 366.797 595.717 368.205C597.316 369.591 597.765 371.99 598.007 373.973C598.735 380.05 597.28 385.793 595.305 391.512C593.668 396.229 591.729 401.1 591.584 406.151C591.45 411.01 594.008 415.309 595.22 419.906C597.135 427.213 596.747 431.093 596.747 433.458C596.759 436.419 596.65 439.356 596.432 442.317C596.226 445.039 595.995 447.75 595.656 450.46C595.583 451.009 595.523 451.582 595.45 452.156C596.517 449.636 596.88 446.759 597.765 444.227C599.328 439.738 601.134 435.332 602.637 430.819C603.873 427.094 605.049 423.332 606.673 419.739C608.2 416.371 610.055 412.813 612.915 410.342C614.648 408.849 616.733 407.978 619.048 407.99C620.526 408.001 621.859 408.503 623.265 408.873C624.999 409.327 626.368 409.172 627.798 408.085C632.477 404.539 633.907 398.187 637.361 393.697C639.943 390.354 646.075 384.647 650.584 388.3C652.972 390.235 653.638 393.972 653.505 396.85C653.347 400.443 651.747 403.739 649.857 406.748C647.833 409.948 645.227 412.813 643.373 416.097C642.27 418.043 642.1 419.906 642.282 422.091C642.451 424.156 642.633 426.15 641.918 428.144C639.773 434.126 633.07 433.29 627.859 433.446C624.211 433.553 620.308 434.09 616.842 435.237C612.842 436.562 610.236 439.129 608.806 443.021C607.776 445.839 607.219 449.051 605.267 451.439C604.346 452.562 603.134 453.397 601.801 453.982C599.765 454.866 593.571 455.248 593.535 454.699C593.377 452.836 592.481 450.866 591.923 449.099C590.881 445.792 589.645 442.556 588.275 439.344Z" fill="#FF9A00"/>
<path d="M559.514 438.221C560.047 434.807 559.95 431.034 561.598 427.893C561.72 427.666 562.023 427.607 562.241 427.726C563.416 428.371 563.465 430.245 563.562 431.392C563.719 433.302 563.598 435.213 563.841 437.111C564.253 440.454 565.04 443.893 566.265 447.033C567.646 450.591 570.155 452.609 573.803 453.72C576.142 454.436 578.445 455.057 580.409 456.585C582.166 457.958 583.378 459.845 584.275 461.839C586.711 467.224 587.875 473.23 589.002 478.985C589.765 482.853 590.383 486.746 591.341 490.578C592.298 494.411 593.316 498.22 593.862 502.136C593.959 502.339 594.056 502.53 594.141 502.733C594.395 503.318 593.462 503.629 593.147 503.151C589.377 497.444 584.796 492.31 578.53 489.169C575.706 487.749 571.949 487.45 569.585 485.217C567.792 483.522 567.549 480.931 567.816 478.614C568.167 475.582 569.646 473.086 571.185 470.495C572.034 469.074 573.028 467.558 572.688 465.827C572.361 464.203 570.991 462.997 569.634 462.161C567.028 460.573 563.986 459.857 561.865 457.564C559.889 455.439 558.787 452.776 558.568 449.911C558.253 446.102 558.92 441.994 559.514 438.221Z" fill="#FF9A00"/>
<path d="M610.866 457.935C614.187 453.72 618.199 450.078 622.707 447.129C625.119 445.553 630.791 442.449 631.943 447.093C632.609 449.816 629.907 452.49 628.125 454.198C625.447 456.765 622.356 458.974 620.102 461.935C622.901 462.818 625.822 462.985 628.246 464.884C631.119 467.141 632.416 471.487 629.555 474.257C628.161 475.606 626.319 476.43 624.598 477.254C622.344 478.328 620.053 479.295 617.75 480.251C612.769 482.304 607.727 484.382 603.485 487.737C599.158 491.152 595.086 496.943 594.747 502.519C594.71 503.056 594.916 502.566 594.601 502.328C594.419 502.483 593.838 502.208 593.838 501.898C593.922 493.623 595.437 485.731 598.867 478.149C602.043 471.105 606.067 464.024 610.866 457.935Z" fill="#FF9A00"/>
<path d="M622.345 380.861C620.514 384.611 618.6 388.276 616.563 391.93C614.6 395.452 612.649 398.939 611.182 402.7C609.376 407.32 607.485 411.87 605.583 416.455C603.595 421.219 601.825 426.066 600.407 431.021C597.632 440.693 595.572 450.639 594.553 460.644C594.032 465.731 593.802 470.841 593.947 475.952C594.057 479.94 594.517 483.892 594.893 487.868C595.293 491.999 595.572 496.19 595.22 500.333C594.929 503.796 594.372 507.927 591.633 510.398C591.099 510.888 590.336 510.279 590.651 509.658C593.899 503.103 593.717 495.951 593.099 488.847C592.76 484.919 592.287 481.014 592.142 477.074C591.972 472.059 592.166 467.032 592.651 462.041C593.596 452.227 595.584 442.532 598.153 433.015C599.474 428.132 601.11 423.344 602.989 418.652C604.88 413.947 607.061 409.362 608.891 404.634C612.2 396.073 617.242 388.491 621.714 380.515C621.933 380.073 622.539 380.444 622.345 380.861Z" fill="#43588E"/>
<path d="M594.383 450.83C593.862 444.598 593.293 438.592 591.172 432.658C590.178 429.887 588.978 427.189 588.008 424.407C587.22 422.103 586.033 418.95 586.639 416.503C586.711 416.228 587.111 416.24 587.184 416.503C587.596 417.9 587.548 419.428 587.839 420.861C588.129 422.258 588.505 423.619 588.941 424.98C589.875 427.858 591.099 430.616 592.153 433.458C594.202 438.938 595.256 445.004 594.808 450.83C594.795 451.105 594.408 451.105 594.383 450.83Z" fill="#43588E"/>
<path d="M631.046 415.022C628.537 420.992 620.986 421.339 615.484 422.676C611.557 423.631 608.66 426.21 606.576 429.565C604.297 433.231 602.758 437.529 601.485 441.625C601.473 441.672 601.4 441.648 601.412 441.601C602.952 434.437 605.157 425.816 612.648 422.485C618.659 419.81 626.574 421.159 630.403 414.76C630.609 414.449 631.191 414.652 631.046 415.022Z" fill="#43588E"/>
<path d="M598.359 449.887C598.056 450.281 597.789 450.699 597.474 451.093C597.316 451.284 597.171 451.463 596.977 451.618C596.783 451.773 596.553 451.976 596.274 451.964C596.165 451.964 596.08 451.833 596.141 451.738C596.262 451.535 596.492 451.415 596.662 451.272C596.844 451.117 597.025 450.962 597.195 450.794C597.547 450.472 597.862 450.114 598.213 449.779C598.286 449.72 598.419 449.803 598.359 449.887Z" fill="#43588E"/>
<path d="M614.054 468.848C609.727 472.346 605.727 476.489 602.552 481.039C601.037 483.212 599.631 485.504 598.359 487.821C596.977 490.352 596.056 493.026 594.977 495.689C594.892 495.892 594.516 495.892 594.553 495.629C595.159 490.006 598.771 485.194 601.655 480.513C603.158 478.089 605.025 476.131 607.036 474.101C609.109 472.012 611.23 470.03 613.654 468.346C613.957 468.143 614.345 468.609 614.054 468.848Z" fill="#43588E"/>
<path d="M579.573 462.221C581.657 463.391 581.73 466.627 581.766 468.704C581.839 472.692 580.845 476.43 582.615 480.226C584.215 483.653 586.772 486.519 588.784 489.695C590.663 492.68 592.529 496.489 592.481 500.071C592.481 500.274 592.153 500.393 592.056 500.178C591.293 498.554 591.026 496.704 590.481 494.996C589.875 493.074 589.014 491.331 587.911 489.647C585.972 486.686 583.597 483.999 582.021 480.823C580.361 477.468 580.603 474.149 580.712 470.519C580.785 468.203 581.015 464.478 579.124 462.758C578.846 462.496 579.221 462.042 579.573 462.221Z" fill="#43588E"/>
<path d="M593.523 500.441C601.923 500.321 617.933 500.238 617.933 500.238L613.97 529.204C613.073 535.723 607.437 540.583 600.759 540.583H593.863H593.196H586.3C579.622 540.583 573.974 535.723 573.089 529.204L569.126 500.238C569.114 500.238 585.112 500.333 593.523 500.441Z" fill="white"/>
<path d="M187.37 447.212L235.305 540.75L375.061 541.741L331.938 445.887L187.37 447.212Z" fill="#F6F7FA"/>
<path d="M467.814 541.156L467.79 533.67H377.314L335.694 443.75H191.006L187.37 447.212H328.713L371.969 541.084C371.969 541.084 467.814 540.905 467.814 541.156Z" fill="#D9DEE8"/>
<path d="M259.944 498.829C261.519 503.497 270.088 507.103 279.081 506.876C288.074 506.65 294.086 502.697 292.498 498.029C290.91 493.36 282.354 489.754 273.361 489.981C264.38 490.196 258.368 494.16 259.944 498.829Z" fill="#D9DEE8"/>
<path d="M371.97 541.681C372.055 541.681 372.14 541.669 372.224 541.634C372.527 541.502 372.661 541.144 372.527 540.845L329.114 446.627H187.382C187.043 446.627 186.776 446.89 186.776 447.224C186.776 447.558 187.043 447.821 187.382 447.821H328.338L371.437 541.347C371.522 541.55 371.74 541.681 371.97 541.681Z" fill="white"/>
<path d="M474.117 548.249H640.367V584.559H474.117V548.249Z" fill="#596B9B"/>
<path d="M175.94 548.249H475.062V584.559H175.94V548.249Z" fill="#7A89AF"/>
<path d="M474.117 548.249H475.062H640.367V554.911H475.062H474.117H175.94V548.249H474.117Z" fill="#BDC4D7"/>
<path d="M466.845 541.085H648.39V549.98H466.845V541.085Z" fill="#6F7FA9"/>
<path d="M168.668 541.085H467.79V549.98H168.668V541.085Z" fill="#9CA6C3"/>
<path d="M516.089 350.558H574.774C578.41 350.558 581.355 347.657 581.355 344.075V315.216C581.355 311.634 578.41 308.732 574.774 308.732H516.089C512.453 308.732 509.508 311.634 509.508 315.216V344.075C509.52 347.657 512.453 350.558 516.089 350.558Z" fill="white"/>
<path d="M492.782 329.639L514.828 320.481V338.809L492.782 329.639Z" fill="white"/>
<path d="M559.357 333.639C557.115 333.639 555.297 331.849 555.297 329.64C555.297 327.43 557.115 325.64 559.357 325.64C561.6 325.64 563.417 327.43 563.417 329.64C563.417 331.849 561.6 333.639 559.357 333.639Z" fill="#223A7A"/>
<path d="M545.432 333.639C543.19 333.639 541.372 331.849 541.372 329.64C541.372 327.43 543.19 325.64 545.432 325.64C547.674 325.64 549.492 327.43 549.492 329.64C549.492 331.849 547.674 333.639 545.432 333.639Z" fill="#223A7A"/>
<path d="M531.517 333.639C529.275 333.639 527.457 331.849 527.457 329.64C527.457 327.43 529.275 325.64 531.517 325.64C533.76 325.64 535.578 327.43 535.578 329.64C535.578 331.849 533.76 333.639 531.517 333.639Z" fill="#223A7A"/>
<path d="M217.294 219.935H352.796C361.498 219.935 368.552 226.884 368.552 235.457V298.774C368.552 307.347 361.498 314.296 352.796 314.296H340.652C340.312 320.04 341.148 328.577 346.009 339.49C330.35 332.374 321.344 321.699 316.63 314.296H217.294C208.592 314.296 201.538 307.347 201.538 298.774V235.457C201.538 226.884 208.592 219.935 217.294 219.935Z" fill="#FFB94E"/>
<path d="M275.094 250.119H342.299C344.142 250.119 345.645 248.639 345.645 246.824C345.645 245.009 344.142 243.528 342.299 243.528H275.094C273.252 243.528 271.749 245.009 271.749 246.824C271.749 248.639 273.252 250.119 275.094 250.119Z" fill="white"/>
<path d="M226.905 269.306H343.596C344.723 269.306 345.645 268.399 345.645 267.288C345.645 266.178 344.723 265.271 343.596 265.271H226.905C225.778 265.271 224.857 266.178 224.857 267.288C224.857 268.399 225.778 269.306 226.905 269.306Z" fill="#FFE0B0"/>
<path d="M226.905 280.506H343.596C344.723 280.506 345.645 279.598 345.645 278.488C345.645 277.378 344.723 276.47 343.596 276.47H226.905C225.778 276.47 224.857 277.378 224.857 278.488C224.857 279.598 225.778 280.506 226.905 280.506Z" fill="#FFE0B0"/>
<path d="M252.357 292.446H343.585C344.712 292.446 345.633 291.539 345.633 290.429C345.633 289.318 344.712 288.411 343.585 288.411H252.357C251.23 288.411 250.309 289.318 250.309 290.429C250.309 291.539 251.23 292.446 252.357 292.446Z" fill="#FFE0B0"/>
<path d="M227.827 250.119H259.884C261.726 250.119 263.229 248.639 263.229 246.824C263.229 245.009 261.726 243.528 259.884 243.528H227.827C225.984 243.528 224.481 245.009 224.481 246.824C224.481 248.639 225.984 250.119 227.827 250.119Z" fill="white"/>
<path d="M308.63 395.739H345.027C346.36 395.739 347.451 394.664 347.451 393.351V368.85C347.451 367.537 346.36 366.462 345.027 366.462H308.63C307.297 366.462 306.206 367.537 306.206 368.85V393.351C306.206 394.676 307.285 395.739 308.63 395.739Z" fill="white"/>
<path d="M326.581 385.483C326.787 385.483 326.993 385.411 327.162 385.28L346.979 369.161C347.366 368.85 347.415 368.277 347.1 367.895C346.773 367.513 346.203 367.465 345.815 367.776L326.593 383.417L307.867 367.37C307.492 367.047 306.91 367.083 306.583 367.453C306.255 367.823 306.292 368.397 306.667 368.719L325.975 385.268C326.144 385.411 326.362 385.483 326.581 385.483Z" fill="#6F7FA9"/>
<path d="M346.385 395.07C346.615 395.07 346.833 394.987 347.015 394.82C347.378 394.473 347.39 393.912 347.051 393.554L333.198 379.202C332.859 378.844 332.277 378.832 331.913 379.166C331.55 379.513 331.538 380.074 331.877 380.432L345.73 394.784C345.9 394.987 346.142 395.07 346.385 395.07Z" fill="#6F7FA9"/>
<path d="M307.261 394.546C307.491 394.546 307.722 394.462 307.903 394.283L321.708 380.647C322.06 380.301 322.06 379.728 321.708 379.382C321.357 379.036 320.775 379.036 320.423 379.382L306.619 393.017C306.267 393.364 306.267 393.937 306.619 394.283C306.8 394.462 307.031 394.546 307.261 394.546Z" fill="#6F7FA9"/>
<path d="M304.316 377.542C297.602 377.542 292.159 372.181 292.159 365.567C292.159 358.953 297.602 353.591 304.316 353.591C311.03 353.591 316.472 358.953 316.472 365.567C316.472 372.181 311.03 377.542 304.316 377.542Z" fill="#FF5F42"/>
<path d="M308.225 364.032L308.249 363.756C307.945 363.892 307.681 364.068 307.457 364.284C307.233 364.5 307.061 364.736 306.941 364.992C306.821 365.248 306.761 365.512 306.761 365.784C306.761 366.24 306.889 366.66 307.145 367.044C307.393 367.42 307.729 367.724 308.153 367.956C308.577 368.18 309.049 368.292 309.569 368.292C310.089 368.292 310.561 368.18 310.985 367.956C311.409 367.724 311.749 367.42 312.005 367.044C312.253 366.66 312.377 366.24 312.377 365.784C312.377 365.416 312.301 365.1 312.149 364.836C311.989 364.564 311.793 364.336 311.561 364.152C311.321 363.968 311.085 363.816 310.853 363.696L310.949 364.032C311.149 363.952 311.345 363.84 311.537 363.696C311.721 363.544 311.873 363.352 311.993 363.12C312.113 362.888 312.173 362.616 312.173 362.304C312.173 361.856 312.057 361.452 311.825 361.092C311.593 360.724 311.281 360.432 310.889 360.216C310.489 360 310.049 359.892 309.569 359.892C309.081 359.892 308.645 360 308.261 360.216C307.869 360.432 307.557 360.724 307.325 361.092C307.093 361.452 306.977 361.856 306.977 362.304C306.977 362.648 307.045 362.936 307.181 363.168C307.317 363.4 307.481 363.584 307.673 363.72C307.865 363.856 308.049 363.96 308.225 364.032ZM310.733 362.328C310.733 362.544 310.685 362.736 310.589 362.904C310.485 363.072 310.345 363.208 310.169 363.312C309.993 363.408 309.793 363.456 309.569 363.456C309.345 363.456 309.149 363.408 308.981 363.312C308.805 363.208 308.669 363.072 308.573 362.904C308.469 362.736 308.417 362.544 308.417 362.328C308.417 362.008 308.529 361.744 308.753 361.536C308.969 361.32 309.241 361.212 309.569 361.212C309.905 361.212 310.185 361.32 310.409 361.536C310.625 361.744 310.733 362.008 310.733 362.328ZM309.569 366.972C309.185 366.972 308.861 366.856 308.597 366.624C308.333 366.384 308.201 366.096 308.201 365.76C308.201 365.528 308.261 365.32 308.381 365.136C308.501 364.952 308.665 364.808 308.873 364.704C309.081 364.592 309.313 364.536 309.569 364.536C309.825 364.536 310.057 364.592 310.265 364.704C310.473 364.808 310.637 364.952 310.757 365.136C310.877 365.32 310.937 365.528 310.937 365.76C310.937 366.096 310.805 366.384 310.541 366.624C310.277 366.856 309.953 366.972 309.569 366.972ZM303.391 368.412C303.687 368.412 304.003 368.368 304.339 368.28C304.675 368.184 304.951 368.048 305.167 367.872C305.271 367.784 305.355 367.672 305.419 367.536C305.475 367.392 305.503 367.256 305.503 367.128C305.503 366.992 305.447 366.864 305.335 366.744C305.215 366.624 305.047 366.564 304.831 366.564C304.687 366.564 304.507 366.64 304.291 366.792C304.163 366.872 304.023 366.944 303.871 367.008C303.719 367.072 303.563 367.104 303.403 367.104C303.019 367.104 302.687 367.036 302.407 366.9C302.127 366.756 301.911 366.56 301.759 366.312C301.607 366.064 301.531 365.772 301.531 365.436C301.531 365.132 301.603 364.872 301.747 364.656C301.883 364.44 302.067 364.272 302.299 364.152C302.523 364.032 302.767 363.972 303.031 363.972C303.279 363.972 303.495 364.012 303.679 364.092C303.863 364.172 304.031 364.256 304.183 364.344C304.335 364.424 304.487 364.464 304.639 364.464C304.903 364.464 305.099 364.408 305.227 364.296C305.355 364.176 305.435 364.036 305.467 363.876C305.499 363.716 305.507 363.572 305.491 363.444L305.119 360.528C305.087 360.36 305.007 360.224 304.879 360.12C304.743 360.008 304.583 359.952 304.399 359.952H300.931C300.739 359.952 300.579 360.016 300.451 360.144C300.323 360.272 300.259 360.432 300.259 360.624C300.259 360.808 300.323 360.964 300.451 361.092C300.579 361.212 300.739 361.272 300.931 361.272H304.027L303.895 361.164L304.219 363.6L304.375 363.144C304.327 363.064 304.223 362.988 304.063 362.916C303.903 362.844 303.719 362.784 303.511 362.736C303.303 362.68 303.099 362.652 302.899 362.652C302.363 362.652 301.883 362.776 301.459 363.024C301.035 363.264 300.703 363.596 300.463 364.02C300.215 364.436 300.091 364.908 300.091 365.436C300.091 366.036 300.227 366.56 300.499 367.008C300.771 367.456 301.155 367.804 301.651 368.052C302.139 368.292 302.719 368.412 303.391 368.412Z" fill="white"/>
<path d="M182.158 361.149H253.205C255.884 361.149 258.053 359.012 258.053 356.373V345.424C258.053 342.786 255.884 340.648 253.205 340.648H182.158C179.479 340.648 177.31 342.786 177.31 345.424V356.373C177.31 359.012 179.479 361.149 182.158 361.149Z" fill="#223A7A"/>
<path d="M248.079 356.278C248.394 356.278 248.648 356.171 248.842 355.944C249.036 355.717 249.121 355.442 249.097 355.108L248.794 352.457C248.77 352.386 248.782 352.35 248.83 352.326C248.879 352.302 248.927 352.314 249 352.362L251.218 353.938C251.497 354.141 251.775 354.212 252.066 354.153C252.357 354.093 252.599 353.926 252.781 353.627C252.987 353.269 253.024 352.959 252.902 352.684C252.781 352.409 252.563 352.23 252.272 352.111L249.788 351.001C249.715 350.977 249.691 350.941 249.691 350.905C249.691 350.857 249.727 350.821 249.788 350.809L252.272 349.699C252.587 349.568 252.793 349.353 252.89 349.066C252.975 348.78 252.951 348.481 252.793 348.195C252.612 347.908 252.369 347.729 252.078 347.669C251.787 347.61 251.497 347.669 251.23 347.848L249.012 349.46C248.939 349.508 248.891 349.52 248.842 349.496C248.794 349.472 248.782 349.424 248.806 349.365L249.109 346.714C249.133 346.38 249.036 346.093 248.83 345.878C248.624 345.651 248.357 345.544 248.006 345.544C247.691 345.544 247.424 345.651 247.218 345.878C247.012 346.105 246.939 346.38 246.976 346.714L247.279 349.365C247.303 349.436 247.291 349.472 247.242 349.496C247.194 349.52 247.145 349.508 247.073 349.46L244.855 347.884C244.588 347.681 244.297 347.61 243.982 347.669C243.679 347.729 243.437 347.896 243.279 348.195C243.073 348.553 243.037 348.863 243.158 349.138C243.279 349.401 243.497 349.592 243.788 349.711L246.273 350.821C246.346 350.845 246.37 350.881 246.37 350.917C246.37 350.965 246.333 351.001 246.273 351.012L243.788 352.123C243.473 352.254 243.255 352.469 243.158 352.756C243.061 353.042 243.097 353.341 243.279 353.627C243.437 353.914 243.667 354.093 243.982 354.153C244.285 354.212 244.576 354.153 244.855 353.974L247.073 352.362C247.145 352.314 247.194 352.302 247.242 352.326C247.291 352.35 247.303 352.398 247.279 352.457L246.976 355.108C246.927 355.442 247.012 355.729 247.23 355.944C247.461 356.171 247.739 356.278 248.079 356.278Z" fill="white"/>
<path d="M233.39 356.278C233.705 356.278 233.959 356.171 234.153 355.944C234.347 355.717 234.432 355.442 234.408 355.108L234.105 352.457C234.081 352.386 234.093 352.35 234.141 352.326C234.19 352.302 234.238 352.314 234.311 352.362L236.529 353.938C236.808 354.141 237.086 354.212 237.377 354.153C237.668 354.093 237.91 353.926 238.092 353.627C238.298 353.269 238.335 352.959 238.213 352.684C238.092 352.409 237.874 352.23 237.583 352.111L235.099 351.001C235.026 350.977 235.002 350.941 235.002 350.905C235.002 350.857 235.038 350.821 235.099 350.809L237.583 349.699C237.898 349.568 238.104 349.353 238.201 349.066C238.286 348.78 238.262 348.481 238.104 348.195C237.923 347.908 237.68 347.729 237.389 347.669C237.098 347.61 236.808 347.669 236.541 347.848L234.323 349.46C234.25 349.508 234.202 349.52 234.153 349.496C234.105 349.472 234.093 349.424 234.117 349.365L234.42 346.714C234.444 346.38 234.347 346.093 234.141 345.878C233.935 345.651 233.668 345.544 233.317 345.544C233.002 345.544 232.735 345.651 232.529 345.878C232.323 346.105 232.25 346.38 232.287 346.714L232.59 349.365C232.614 349.436 232.602 349.472 232.553 349.496C232.505 349.52 232.456 349.508 232.384 349.46L230.166 347.884C229.899 347.681 229.608 347.61 229.293 347.669C228.99 347.729 228.76 347.896 228.59 348.195C228.384 348.553 228.348 348.863 228.469 349.138C228.59 349.401 228.808 349.592 229.099 349.711L231.584 350.821C231.657 350.845 231.681 350.881 231.681 350.917C231.681 350.965 231.644 351.001 231.584 351.012L229.099 352.123C228.784 352.254 228.566 352.469 228.469 352.756C228.372 353.042 228.408 353.341 228.59 353.627C228.748 353.914 228.978 354.093 229.293 354.153C229.596 354.212 229.887 354.153 230.166 353.974L232.384 352.362C232.456 352.314 232.505 352.302 232.553 352.326C232.602 352.35 232.614 352.398 232.59 352.457L232.287 355.108C232.238 355.442 232.323 355.729 232.541 355.944C232.772 356.171 233.05 356.278 233.39 356.278Z" fill="white"/>
<path d="M218.688 356.278C219.003 356.278 219.257 356.171 219.451 355.944C219.645 355.717 219.73 355.442 219.706 355.108L219.403 352.457C219.378 352.386 219.39 352.35 219.439 352.326C219.487 352.302 219.536 352.314 219.609 352.362L221.827 353.938C222.105 354.141 222.384 354.212 222.675 354.153C222.966 354.093 223.208 353.926 223.39 353.627C223.596 353.269 223.633 352.959 223.511 352.684C223.39 352.409 223.172 352.23 222.881 352.111L220.396 351.001C220.324 350.977 220.3 350.941 220.3 350.905C220.3 350.857 220.336 350.821 220.396 350.809L222.881 349.699C223.196 349.568 223.402 349.353 223.499 349.066C223.584 348.78 223.56 348.481 223.402 348.195C223.22 347.908 222.978 347.729 222.687 347.669C222.396 347.61 222.105 347.669 221.839 347.848L219.621 349.46C219.548 349.508 219.5 349.52 219.451 349.496C219.403 349.472 219.391 349.424 219.415 349.365L219.718 346.714C219.742 346.38 219.645 346.093 219.439 345.878C219.233 345.651 218.966 345.544 218.615 345.544C218.3 345.544 218.033 345.651 217.827 345.878C217.621 346.105 217.548 346.38 217.585 346.714L217.888 349.365C217.912 349.436 217.9 349.472 217.851 349.496C217.803 349.52 217.754 349.508 217.682 349.46L215.464 347.884C215.197 347.681 214.906 347.61 214.591 347.669C214.288 347.729 214.046 347.896 213.888 348.195C213.682 348.553 213.646 348.863 213.767 349.138C213.888 349.401 214.106 349.592 214.397 349.711L216.882 350.821C216.954 350.845 216.979 350.881 216.979 350.917C216.979 350.965 216.942 351.001 216.882 351.012L214.397 352.123C214.082 352.254 213.864 352.469 213.767 352.756C213.67 353.042 213.706 353.341 213.888 353.627C214.046 353.914 214.276 354.093 214.591 354.153C214.894 354.212 215.185 354.153 215.464 353.974L217.682 352.362C217.754 352.314 217.803 352.302 217.851 352.326C217.9 352.35 217.912 352.398 217.888 352.457L217.585 355.108C217.536 355.442 217.621 355.729 217.839 355.944C218.069 356.171 218.348 356.278 218.688 356.278Z" fill="white"/>
<path d="M203.998 356.278C204.313 356.278 204.568 356.171 204.762 355.944C204.956 355.717 205.04 355.442 205.016 355.108L204.713 352.457C204.689 352.386 204.701 352.35 204.75 352.326C204.798 352.302 204.847 352.314 204.919 352.362L207.137 353.938C207.416 354.141 207.695 354.212 207.986 354.153C208.276 354.093 208.519 353.926 208.701 353.627C208.907 353.269 208.943 352.959 208.822 352.684C208.701 352.409 208.482 352.23 208.192 352.111L205.707 351.001C205.634 350.977 205.61 350.941 205.61 350.905C205.61 350.857 205.646 350.821 205.707 350.809L208.192 349.699C208.507 349.568 208.713 349.353 208.81 349.066C208.895 348.78 208.87 348.481 208.713 348.195C208.531 347.908 208.289 347.729 207.998 347.669C207.707 347.61 207.416 347.669 207.149 347.848L204.931 349.46C204.859 349.508 204.81 349.52 204.762 349.496C204.713 349.472 204.701 349.424 204.725 349.365L205.028 346.714C205.053 346.38 204.956 346.093 204.75 345.878C204.544 345.651 204.277 345.544 203.925 345.544C203.61 345.544 203.344 345.651 203.138 345.878C202.932 346.105 202.859 346.38 202.895 346.714L203.198 349.365C203.222 349.436 203.21 349.472 203.162 349.496C203.113 349.52 203.065 349.508 202.992 349.46L200.774 347.884C200.508 347.681 200.217 347.61 199.902 347.669C199.599 347.729 199.356 347.896 199.199 348.195C198.993 348.553 198.956 348.863 199.077 349.138C199.199 349.401 199.417 349.592 199.708 349.711L202.192 350.821C202.265 350.845 202.289 350.881 202.289 350.917C202.289 350.965 202.253 351.001 202.192 351.012L199.708 352.123C199.393 352.254 199.174 352.469 199.077 352.756C198.98 353.042 199.017 353.341 199.199 353.627C199.356 353.914 199.586 354.093 199.902 354.153C200.205 354.212 200.495 354.153 200.774 353.974L202.992 352.362C203.065 352.314 203.113 352.302 203.162 352.326C203.21 352.35 203.222 352.398 203.198 352.457L202.895 355.108C202.847 355.442 202.932 355.729 203.15 355.944C203.38 356.171 203.659 356.278 203.998 356.278Z" fill="white"/>
<path d="M189.296 356.278C189.612 356.278 189.866 356.171 190.06 355.944C190.254 355.717 190.339 355.442 190.315 355.108L190.012 352.457C189.987 352.386 189.999 352.35 190.048 352.326C190.096 352.302 190.145 352.314 190.218 352.362L192.436 353.938C192.714 354.141 192.993 354.212 193.284 354.153C193.575 354.093 193.817 353.926 193.999 353.627C194.205 353.269 194.241 352.959 194.12 352.684C193.999 352.409 193.781 352.23 193.49 352.111L191.005 351.001C190.933 350.977 190.908 350.941 190.908 350.905C190.908 350.857 190.945 350.821 191.005 350.809L193.49 349.699C193.805 349.568 194.011 349.353 194.108 349.066C194.193 348.78 194.169 348.481 194.011 348.195C193.829 347.908 193.587 347.729 193.296 347.669C193.005 347.61 192.714 347.669 192.448 347.848L190.23 349.46C190.157 349.508 190.108 349.52 190.06 349.496C190.012 349.472 189.999 349.424 190.024 349.365L190.327 346.714C190.351 346.38 190.254 346.093 190.048 345.878C189.842 345.651 189.575 345.544 189.224 345.544C188.909 345.544 188.642 345.651 188.436 345.878C188.23 346.105 188.157 346.38 188.194 346.714L188.497 349.365C188.521 349.436 188.509 349.472 188.46 349.496C188.412 349.52 188.363 349.508 188.29 349.46L186.072 347.884C185.806 347.681 185.515 347.61 185.2 347.669C184.897 347.729 184.654 347.896 184.497 348.195C184.291 348.553 184.255 348.863 184.376 349.138C184.497 349.401 184.715 349.592 185.006 349.711L187.491 350.821C187.563 350.845 187.588 350.881 187.588 350.917C187.588 350.965 187.551 351.001 187.491 351.012L185.006 352.123C184.691 352.254 184.473 352.469 184.376 352.756C184.279 353.042 184.315 353.341 184.497 353.627C184.654 353.914 184.885 354.093 185.2 354.153C185.503 354.212 185.794 354.153 186.072 353.974L188.29 352.362C188.363 352.314 188.412 352.302 188.46 352.326C188.509 352.35 188.521 352.398 188.497 352.457L188.194 355.108C188.145 355.442 188.23 355.729 188.448 355.944C188.678 356.171 188.957 356.278 189.296 356.278Z" fill="#FEA928"/>
</svg>
