<svg width="48" height="48" viewBox="0 0 48 48" fill="none" xmlns="http://www.w3.org/2000/svg">
<circle cx="24" cy="24" r="24" fill="#F6F7FB"/>
<path d="M28.5 15H19.5C17.0147 15 15 17.0147 15 19.5V28.5C15 30.9853 17.0147 33 19.5 33H28.5C30.9853 33 33 30.9853 33 28.5V19.5C33 17.0147 30.9853 15 28.5 15Z" stroke="black" stroke-width="2" stroke-linecap="round" stroke-linejoin="round"/>
<path d="M27.5995 23.4325C27.7106 24.1816 27.5827 24.9465 27.2339 25.6187C26.8852 26.2908 26.3334 26.8358 25.657 27.1762C24.9806 27.5167 24.2141 27.6352 23.4665 27.5149C22.719 27.3946 22.0283 27.0416 21.4929 26.5062C20.9575 25.9708 20.6045 25.2801 20.4842 24.5325C20.3639 23.7849 20.4824 23.0184 20.8228 22.3421C21.1633 21.6657 21.7083 21.1139 22.3804 20.7652C23.0525 20.4164 23.8175 20.2885 24.5665 20.3995C25.3306 20.5128 26.0379 20.8689 26.5841 21.415C27.1302 21.9612 27.4862 22.6685 27.5995 23.4325Z" stroke="black" stroke-width="2" stroke-linecap="round" stroke-linejoin="round"/>
<path d="M28.9502 19.0503H28.9584" stroke="black" stroke-width="2" stroke-linecap="round" stroke-linejoin="round"/>
</svg>
