<svg width="126" height="34" viewBox="0 0 126 34" fill="none" xmlns="http://www.w3.org/2000/svg">
<path d="M11.736 25.596C9.36 25.596 7.296 25.152 5.544 24.264C3.792 23.352 2.424 21.972 1.44 20.124C0.48 18.276 0 15.936 0 13.104C0 9 1.032 5.892 3.096 3.78C5.16 1.668 8.04 0.612 11.736 0.612C14.112 0.612 16.176 1.068 17.928 1.98C19.704 2.868 21.072 4.224 22.032 6.048C22.992 7.872 23.472 10.212 23.472 13.068C23.472 17.196 22.44 20.316 20.376 22.428C18.336 24.54 15.456 25.596 11.736 25.596ZM11.736 20.808C12.96 20.808 13.992 20.556 14.832 20.052C15.696 19.548 16.344 18.732 16.776 17.604C17.232 16.452 17.46 14.94 17.46 13.068C17.46 11.172 17.232 9.66 16.776 8.532C16.344 7.404 15.696 6.6 14.832 6.12C13.992 5.616 12.96 5.364 11.736 5.364C10.512 5.364 9.48 5.616 8.64 6.12C7.8 6.624 7.152 7.44 6.696 8.568C6.264 9.696 6.048 11.22 6.048 13.14C6.048 15.036 6.264 16.548 6.696 17.676C7.152 18.78 7.8 19.584 8.64 20.088C9.48 20.568 10.512 20.808 11.736 20.808Z" fill="#FF9A00"/>
<path d="M27.407 8.424C27.863 8.184 28.463 7.944 29.207 7.704C29.951 7.44 30.767 7.212 31.655 7.02C32.543 6.828 33.431 6.672 34.319 6.552C35.231 6.432 36.071 6.372 36.839 6.372C38.471 6.372 39.863 6.588 41.015 7.02C42.167 7.428 43.043 8.1 43.643 9.036C44.267 9.972 44.579 11.244 44.579 12.852V25.092H39.215V13.932C39.215 13.476 39.143 13.056 38.999 12.672C38.879 12.288 38.687 11.964 38.423 11.7C38.159 11.412 37.799 11.196 37.343 11.052C36.887 10.884 36.335 10.8 35.687 10.8C35.135 10.8 34.583 10.872 34.031 11.016C33.479 11.136 33.059 11.268 32.771 11.412V25.092H27.407V8.424Z" fill="#FF9A00"/>
<path d="M56.3285 25.632C54.6725 25.536 53.2445 25.152 52.0445 24.48C50.8685 23.808 49.9445 22.824 49.2725 21.528C48.6245 20.208 48.3005 18.552 48.3005 16.56C48.3005 14.544 48.5525 12.876 49.0565 11.556C49.5605 10.212 50.2565 9.168 51.1445 8.424C52.0565 7.68 53.1485 7.152 54.4205 6.84C55.6925 6.528 57.1085 6.372 58.6685 6.372C60.1805 6.372 61.5005 6.564 62.6285 6.948C63.7565 7.332 64.6325 7.884 65.2565 8.604C65.8805 9.324 66.1925 10.212 66.1925 11.268V25.308C66.1925 26.58 65.9885 27.696 65.5805 28.656C65.1725 29.64 64.5605 30.456 63.7445 31.104C62.9525 31.776 61.9805 32.28 60.8285 32.616C59.7005 32.952 58.3925 33.12 56.9045 33.12C55.2965 33.12 53.9165 33 52.7645 32.76C51.6365 32.544 50.7725 32.268 50.1725 31.932V27.216C50.5325 27.36 51.0605 27.552 51.7565 27.792C52.4525 28.032 53.2325 28.224 54.0965 28.368C54.9605 28.536 55.8245 28.62 56.6885 28.62C57.8165 28.62 58.6805 28.464 59.2805 28.152C59.9045 27.84 60.3365 27.42 60.5765 26.892C60.8165 26.364 60.9365 25.764 60.9365 25.092V22.14L61.9805 22.896C61.5965 23.448 61.1405 23.928 60.6125 24.336C60.0845 24.744 59.4605 25.056 58.7405 25.272C58.0445 25.512 57.2405 25.632 56.3285 25.632ZM57.6965 21.6C58.3205 21.6 58.8965 21.54 59.4245 21.42C59.9525 21.276 60.4565 21.072 60.9365 20.808V12.456C60.9365 11.952 60.7925 11.568 60.5045 11.304C60.2165 11.04 59.8565 10.86 59.4245 10.764C58.9925 10.668 58.5365 10.62 58.0565 10.62C56.9525 10.62 56.0765 10.86 55.4285 11.34C54.8045 11.82 54.3485 12.492 54.0605 13.356C53.7965 14.196 53.6645 15.156 53.6645 16.236C53.6645 17.892 54.0365 19.2 54.7805 20.16C55.5245 21.12 56.4965 21.6 57.6965 21.6Z" fill="#FF9A00"/>
<path d="M74.8603 15.048L81.5563 6.876H88.0723L77.9563 17.568L74.8603 15.048ZM76.0123 25.092H70.6843V0H76.0843L76.0123 25.092ZM78.9283 12.708L88.5403 25.092H81.7363L75.1123 16.344L78.9283 12.708Z" fill="#FF9A00"/>
<path d="M100.416 25.632C98.7364 25.632 97.2484 25.368 95.9524 24.84C94.6564 24.312 93.6484 23.508 92.9284 22.428C92.2084 21.324 91.8484 19.896 91.8484 18.144V6.876H97.2124V17.712C97.2124 18.864 97.4644 19.728 97.9684 20.304C98.4964 20.856 99.3244 21.132 100.452 21.132C101.604 21.132 102.432 20.856 102.936 20.304C103.44 19.728 103.692 18.864 103.692 17.712V6.876H108.732V18.144C108.732 20.736 107.988 22.632 106.5 23.832C105.012 25.032 102.984 25.632 100.416 25.632Z" fill="#FF9A00"/>
<path d="M113.469 25.092V8.784C113.805 8.496 114.405 8.172 115.269 7.812C116.133 7.428 117.117 7.092 118.221 6.804C119.349 6.492 120.477 6.336 121.605 6.336C122.733 6.336 123.621 6.42 124.269 6.588C124.917 6.756 125.409 6.972 125.745 7.236V11.16C125.337 11.064 124.821 10.992 124.197 10.944C123.573 10.896 122.925 10.872 122.253 10.872C121.581 10.848 120.945 10.848 120.345 10.872C119.745 10.896 119.241 10.944 118.833 11.016V25.092H113.469Z" fill="#FF9A00"/>
</svg>
