<svg width="36" height="36" viewBox="0 0 36 36" fill="none" xmlns="http://www.w3.org/2000/svg">
<path opacity="0.4" d="M31.5609 10.785L18.0009 18.63L4.44092 10.785C5.04092 9.675 5.91092 8.7 6.88592 8.16L14.8959 3.72C16.6059 2.76 19.3959 2.76 21.1059 3.72L29.1159 8.16C30.0909 8.7 30.9609 9.675 31.5609 10.785Z" fill="#ADADAD"/>
<path opacity="0.6" d="M18.0009 18.63V33C16.8759 33 15.7509 32.76 14.8959 32.28L6.88594 27.84C5.07094 26.835 3.58594 24.315 3.58594 22.245V13.755C3.58594 12.795 3.91594 11.745 4.44094 10.785L18.0009 18.63Z" fill="#ADADAD"/>
<path d="M32.416 13.755V22.245C32.416 24.315 30.931 26.835 29.116 27.84L21.106 32.28C20.251 32.76 19.126 33 18.001 33V18.63L31.561 10.785C32.086 11.745 32.416 12.795 32.416 13.755Z" fill="#ADADAD"/>
<path d="M32.97 22.005C31.74 20.49 29.865 19.53 27.75 19.53C26.16 19.53 24.69 20.085 23.535 21.015C21.975 22.245 21 24.15 21 26.28C21 27.54 21.36 28.74 21.975 29.76C22.38 30.435 22.89 31.02 23.49 31.5H23.505C24.66 32.46 26.145 33.03 27.75 33.03C29.46 33.03 31.005 32.4 32.19 31.35C32.715 30.9 33.165 30.36 33.525 29.76C34.14 28.74 34.5 27.54 34.5 26.28C34.5 24.66 33.93 23.16 32.97 22.005ZM31.14 25.44L27.54 28.77C27.33 28.965 27.045 29.07 26.775 29.07C26.49 29.07 26.205 28.965 25.98 28.74L24.315 27.075C23.88 26.64 23.88 25.92 24.315 25.485C24.75 25.05 25.47 25.05 25.905 25.485L26.805 26.385L29.61 23.79C30.06 23.37 30.78 23.4 31.2 23.85C31.635 24.315 31.605 25.02 31.14 25.44Z" fill="#DADADA"/>
</svg>
