<svg width="36" height="36" viewBox="0 0 36 36" fill="none" xmlns="http://www.w3.org/2000/svg">
<path opacity="0.4" d="M31.2449 12.015L21.4199 4.15503C19.4999 2.62503 16.4999 2.61003 14.5949 4.14003L4.76994 12.015C3.35994 13.14 2.50494 15.39 2.80494 17.16L4.69494 28.47C5.12994 31.005 7.48494 33 10.0499 33H25.9499C28.4849 33 30.8849 30.96 31.3199 28.455L33.2099 17.145C33.4799 15.39 32.6249 13.14 31.2449 12.015Z" fill="#FF9A00"/>
<path d="M18 28.125C17.385 28.125 16.875 27.615 16.875 27V22.5C16.875 21.885 17.385 21.375 18 21.375C18.615 21.375 19.125 21.885 19.125 22.5V27C19.125 27.615 18.615 28.125 18 28.125Z" fill="#FF9A00"/>
</svg>
