<svg width="36" height="36" viewBox="0 0 36 36" fill="none" xmlns="http://www.w3.org/2000/svg">
<path opacity="0.4" d="M33 21V25.5C33 27.99 30.99 30 28.5 30H27C27 28.35 25.65 27 24 27C22.35 27 21 28.35 21 30H15C15 28.35 13.65 27 12 27C10.35 27 9 28.35 9 30H7.5C5.01 30 3 27.99 3 25.5V21H19.5C21.15 21 22.5 19.65 22.5 18V7.5H25.26C26.34 7.5 27.33 8.08501 27.87 9.01501L30.435 13.5H28.5C27.675 13.5 27 14.175 27 15V19.5C27 20.325 27.675 21 28.5 21H33Z" fill="#FF9A00"/>
<path d="M12 33C13.6569 33 15 31.6569 15 30C15 28.3431 13.6569 27 12 27C10.3431 27 9 28.3431 9 30C9 31.6569 10.3431 33 12 33Z" fill="#FF9A00"/>
<path d="M24 33C25.6569 33 27 31.6569 27 30C27 28.3431 25.6569 27 24 27C22.3431 27 21 28.3431 21 30C21 31.6569 22.3431 33 24 33Z" fill="#FF9A00"/>
<path d="M33 18.795V21H28.5C27.675 21 27 20.325 27 19.5V15C27 14.175 27.675 13.5 28.5 13.5H30.435L32.61 17.31C32.865 17.76 33 18.27 33 18.795Z" fill="#FF9A00"/>
<path d="M21 3H9C6.075 3 3.64503 5.1 3.12003 7.875H10.5C11.115 7.875 11.625 8.385 11.625 9C11.625 9.615 11.115 10.125 10.5 10.125H3V12.375H7.5C8.115 12.375 8.625 12.885 8.625 13.5C8.625 14.115 8.115 14.625 7.5 14.625H3V16.875H4.5C5.115 16.875 5.625 17.385 5.625 18C5.625 18.615 5.115 19.125 4.5 19.125H3V21H19.5C21.15 21 22.5 19.65 22.5 18V4.5C22.5 3.675 21.825 3 21 3Z" fill="#FF9A00"/>
<path d="M3.12003 7.875H1.5C0.885 7.875 0.375 8.385 0.375 9C0.375 9.615 0.885 10.125 1.5 10.125H3V9C3 8.61 3.04503 8.235 3.12003 7.875Z" fill="#FF9A00"/>
<path d="M1.5 12.375C0.885 12.375 0.375 12.885 0.375 13.5C0.375 14.115 0.885 14.625 1.5 14.625H3V12.375H1.5Z" fill="#FF9A00"/>
<path d="M1.5 16.875C0.885 16.875 0.375 17.385 0.375 18C0.375 18.615 0.885 19.125 1.5 19.125H3V16.875H1.5Z" fill="#FF9A00"/>
</svg>
