<svg width="36" height="36" viewBox="0 0 36 36" fill="none" xmlns="http://www.w3.org/2000/svg">
<path opacity="0.4" d="M22.5 4.5V18C22.5 19.65 21.15 21 19.5 21H3V11.43C4.095 12.735 5.77504 13.545 7.63504 13.5C9.15004 13.47 10.515 12.885 11.535 11.91C12 11.52 12.39 11.025 12.69 10.485C13.23 9.56999 13.53 8.48996 13.5 7.36496C13.455 5.60996 12.675 4.065 11.46 3H21C21.825 3 22.5 3.675 22.5 4.5Z" fill="#ADADAD"/>
<path d="M33 21V25.5C33 27.99 30.99 30 28.5 30H27C27 28.35 25.65 27 24 27C22.35 27 21 28.35 21 30H15C15 28.35 13.65 27 12 27C10.35 27 9 28.35 9 30H7.5C5.01 30 3 27.99 3 25.5V21H19.5C21.15 21 22.5 19.65 22.5 18V7.5H25.26C26.34 7.5 27.33 8.08501 27.87 9.01501L30.435 13.5H28.5C27.675 13.5 27 14.175 27 15V19.5C27 20.325 27.675 21 28.5 21H33Z" fill="#ADADAD"/>
<path opacity="0.4" d="M12 33C13.6569 33 15 31.6569 15 30C15 28.3431 13.6569 27 12 27C10.3431 27 9 28.3431 9 30C9 31.6569 10.3431 33 12 33Z" fill="#ADADAD"/>
<path opacity="0.4" d="M24 33C25.6569 33 27 31.6569 27 30C27 28.3431 25.6569 27 24 27C22.3431 27 21 28.3431 21 30C21 31.6569 22.3431 33 24 33Z" fill="#ADADAD"/>
<path opacity="0.4" d="M33 18.795V21H28.5C27.675 21 27 20.325 27 19.5V15C27 14.175 27.675 13.5 28.5 13.5H30.435L32.61 17.31C32.865 17.76 33 18.27 33 18.795Z" fill="#ADADAD"/>
<path d="M11.4598 3.00003C10.3798 2.04003 8.93973 1.47003 7.36473 1.50003C5.95473 1.53003 4.66476 2.05502 3.64476 2.89502C2.29476 4.02002 1.45477 5.74507 1.49977 7.63507C1.52977 8.76007 1.85978 9.81004 2.44478 10.695C2.60978 10.95 2.78977 11.205 2.99977 11.43C4.09477 12.735 5.77481 13.545 7.63481 13.5C9.14981 13.47 10.5148 12.885 11.5348 11.91C11.9998 11.52 12.3898 11.025 12.6898 10.485C13.2298 9.57001 13.5298 8.48999 13.4998 7.36499C13.4548 5.60999 12.6748 4.06503 11.4598 3.00003ZM10.5898 6.78006L7.45473 9.81C7.22973 10.02 6.95979 10.125 6.67479 10.125C6.38979 10.125 6.11976 10.02 5.89476 9.81L4.37974 8.37006C3.92974 7.93505 3.91481 7.23006 4.34981 6.78006C4.78481 6.33006 5.4898 6.31503 5.9398 6.75003L6.67479 7.45499L9.0298 5.17505C9.4798 4.74005 10.1848 4.75499 10.6198 5.20499C11.0548 5.63999 11.0398 6.34506 10.5898 6.78006Z" fill="#ADADAD"/>
</svg>
