<svg width="72" height="72" viewBox="0 0 72 72" fill="none" xmlns="http://www.w3.org/2000/svg">
<g clip-path="url(#clip0_261_9314)">
<path d="M20.8116 23.344C17.7101 23.344 15.1865 25.8676 15.1865 28.969C15.1865 32.0705 17.7101 34.5941 20.8116 34.5941C23.9136 34.5941 26.4366 32.0705 26.4366 28.969C26.4366 25.8676 23.9136 23.344 20.8116 23.344ZM20.8116 31.7816C19.2608 31.7816 17.999 30.5198 17.999 28.969C17.999 27.4183 19.2608 26.1565 20.8116 26.1565C22.3628 26.1565 23.6241 27.4183 23.6241 28.969C23.6241 30.5198 22.3628 31.7816 20.8116 31.7816Z" fill="#1A202C"/>
<path d="M41.9054 21.9378C41.9054 18.8363 39.3823 16.3127 36.2803 16.3127C33.1789 16.3127 30.6553 18.8363 30.6553 21.9378C30.6553 25.0393 33.1789 27.5628 36.2803 27.5628C39.3823 27.5628 41.9054 25.0393 41.9054 21.9378ZM33.4678 21.9378C33.4678 20.3871 34.7296 19.1253 36.2803 19.1253C37.8316 19.1253 39.0928 20.3871 39.0928 21.9378C39.0928 23.4885 37.8316 24.7503 36.2803 24.7503C34.7296 24.7503 33.4678 23.4885 33.4678 21.9378Z" fill="#1A202C"/>
<path d="M10.9678 45.844C10.9678 48.9455 13.4914 51.4691 16.5928 51.4691C19.6948 51.4691 22.2179 48.9455 22.2179 45.844C22.2179 42.7426 19.6948 40.219 16.5928 40.219C13.4914 40.219 10.9678 42.7426 10.9678 45.844ZM16.5928 43.0315C18.1441 43.0315 19.4053 44.2933 19.4053 45.844C19.4053 47.3948 18.1441 48.6565 16.5928 48.6565C15.0421 48.6565 13.7803 47.3948 13.7803 45.844C13.7803 44.2933 15.0421 43.0315 16.5928 43.0315Z" fill="#1A202C"/>
<path d="M23.624 57.0943C23.624 60.1957 26.1476 62.7193 29.2491 62.7193C32.3511 62.7193 34.8741 60.1957 34.8741 57.0943C34.8741 53.9928 32.3511 51.4692 29.2491 51.4692C26.1476 51.4692 23.624 53.9928 23.624 57.0943ZM32.0616 57.0943C32.0616 58.645 30.8003 59.9068 29.2491 59.9068C27.6983 59.9068 26.4365 58.645 26.4365 57.0943C26.4365 55.5435 27.6983 54.2818 29.2491 54.2818C30.8003 54.2818 32.0616 55.5435 32.0616 57.0943Z" fill="#1A202C"/>
<path d="M61.6345 13.3738C61.6345 10.0279 56.7664 2.18959 55.7903 0.652593C55.5321 0.246096 55.0844 0 54.6032 0C54.1214 0 53.6737 0.246096 53.4161 0.652593C52.563 1.99568 48.7403 8.14808 47.7872 11.912C38.9486 8.28101 29.736 8.37989 21.6462 12.2356C13.6025 16.0693 7.11552 23.5269 4.81717 32.9159C4.63205 33.6706 5.09402 34.4314 5.84824 34.616C5.96085 34.6435 6.07346 34.6567 6.18388 34.6567C6.81669 34.6567 7.39183 34.2265 7.54894 33.5844C9.54682 25.4226 15.2696 18.3902 22.8563 14.774C30.5276 11.1183 39.342 11.1902 47.7532 14.9586C48.1943 16.8674 49.4209 18.5066 51.1084 19.4745C50.2806 22.4876 49.6357 27.0606 49.2693 32.5736C49.1204 34.8116 49.0199 37.1874 48.9705 39.6472C43.6305 42.7114 40.1138 48.5418 40.5543 55.5056C40.7213 58.1368 40.9734 62.1134 36.8305 65.7246C33.8713 68.3048 29.5157 69.0139 25.4645 67.5758C15.4086 64.0069 8.13396 54.8612 6.9304 44.2758C6.84306 43.504 6.14487 42.9503 5.37473 43.0371C4.60293 43.125 4.04867 43.8215 4.13601 44.5933C5.48624 56.4724 13.5678 66.3376 24.524 70.2263C29.5327 72.0044 34.9562 71.0898 38.6789 67.8444C43.8678 63.3208 43.5382 58.1209 43.3608 55.3271C43.0328 50.1376 45.2944 45.7474 48.9369 43.0256V43.0311C48.9369 49.6916 49.4473 62.744 51.594 68.8299C51.8994 69.6967 52.7119 72 54.562 72C56.4126 72 57.2251 69.6967 57.5305 68.8299C59.6641 62.7819 60.187 49.8256 60.187 43.0311C60.187 42.0659 60.1788 41.1161 60.1629 40.1894C60.5968 40.1834 61.0368 40.1828 61.4823 40.19C64.1454 40.229 66.5646 38.6085 67.5078 36.1536C70.0924 29.4211 65.2886 22.715 59.6223 18.2973C60.8935 17.002 61.6345 15.2431 61.6345 13.3738ZM54.6032 4.10233C56.6318 7.53668 58.822 11.8263 58.822 13.3738C58.822 15.8155 56.7933 17.6464 54.5147 17.5953C52.2482 17.5442 50.3844 15.6946 50.3844 13.3738C50.3844 11.8263 52.574 7.53668 54.6032 4.10233ZM54.6032 20.4051C54.8515 20.4051 55.0987 20.3908 55.3431 20.365C56.032 22.9402 56.6022 26.8651 56.9576 31.5025C55.3755 31.7057 53.7495 31.7019 52.1669 31.492C52.5224 26.8552 53.0937 22.932 53.7836 20.3567C54.0544 20.3886 54.328 20.4051 54.6032 20.4051ZM54.562 68.6695C52.29 63.8097 51.7495 49.1725 51.7495 43.0316C51.7495 42.2461 51.7676 40.5163 51.7681 40.5119C51.8006 38.3701 51.8731 36.2903 51.9824 34.3051C52.8492 34.4128 53.7259 34.4671 54.6032 34.4671C55.4535 34.4671 56.3033 34.4161 57.1432 34.3144C57.2251 35.8124 57.2855 37.3511 57.3234 38.9084C57.3575 40.2279 57.3745 41.6149 57.3745 43.0316C57.3745 49.3642 56.8027 63.8778 54.562 68.6695ZM64.8821 35.1456C64.3602 36.5035 63.01 37.4033 61.5263 37.3785C61.0434 37.3709 60.5644 37.3709 60.0925 37.378C60.0382 35.7476 59.9591 34.1425 59.8563 32.5901C59.8558 32.5808 59.8541 32.5714 59.853 32.5621C59.5405 27.8561 59.0241 23.8356 58.3655 20.8879C64.057 25.4945 66.5399 30.8273 64.8821 35.1456Z" fill="#1A202C"/>
<path d="M6.74904 38.8128C6.74904 39.5895 6.11952 40.219 5.34278 40.219C4.56659 40.219 3.93652 39.5895 3.93652 38.8128C3.93652 38.036 4.56659 37.4065 5.34278 37.4065C6.11952 37.4065 6.74904 38.036 6.74904 38.8128Z" fill="#1A202C"/>
</g>
<defs>
<clipPath id="clip0_261_9314">
<rect width="72" height="72" fill="white"/>
</clipPath>
</defs>
</svg>
