<svg width="64" height="61" viewBox="0 0 64 61" fill="none" xmlns="http://www.w3.org/2000/svg">
<path d="M44.4668 16.8418C43.9492 16.8418 43.5293 17.2617 43.5293 17.7793V19.1602C43.5293 19.6782 43.9492 20.0977 44.4668 20.0977C44.9849 20.0977 45.4043 19.6782 45.4043 19.1602V17.7793C45.4043 17.2617 44.9849 16.8418 44.4668 16.8418Z" fill="#1A202C"/>
<path d="M56.7607 20.0977C57.2788 20.0977 57.6982 19.6782 57.6982 19.1602V17.7793C57.6982 17.2617 57.2788 16.8418 56.7607 16.8418C56.2432 16.8418 55.8232 17.2617 55.8232 17.7793V19.1602C55.8232 19.6782 56.2432 20.0977 56.7607 20.0977Z" fill="#1A202C"/>
<path d="M50.0742 21.3091H50.6138C51.4282 21.3091 52.0908 20.6079 52.0908 19.7466V18.749C52.0908 18.231 51.6714 17.8115 51.1533 17.8115C50.6358 17.8115 50.2158 18.231 50.2158 18.749V19.4341H50.0742C49.5566 19.4341 49.1367 19.8535 49.1367 20.3716C49.1367 20.8892 49.5566 21.3091 50.0742 21.3091Z" fill="#1A202C"/>
<path d="M45.5811 24.7505C45.5811 27.3843 47.7192 29.5269 50.3472 29.5269C52.9756 29.5269 55.1133 27.3843 55.1133 24.7505C55.1133 23.8271 54.3633 23.0762 53.4409 23.0762H47.2534C46.3311 23.0762 45.5811 23.8271 45.5811 24.7505ZM53.2314 24.9512C53.1284 26.4575 51.874 27.6519 50.3472 27.6519C48.8198 27.6519 47.5654 26.4575 47.4624 24.9512H53.2314Z" fill="#1A202C"/>
<path d="M41.8975 22.5747C40.3462 22.5747 39.084 23.8389 39.084 25.3931C39.084 26.9468 40.3462 28.2109 41.8975 28.2109C43.4487 28.2109 44.7105 26.9468 44.7105 25.3931C44.7105 23.8389 43.4487 22.5747 41.8975 22.5747ZM41.8975 26.3359C41.3799 26.3359 40.959 25.9131 40.959 25.3931C40.959 24.873 41.3799 24.4497 41.8975 24.4497C42.4146 24.4497 42.8355 24.873 42.8355 25.3931C42.8355 25.9131 42.4146 26.3359 41.8975 26.3359Z" fill="#1A202C"/>
<path d="M63.1924 8.43612C61.9966 6.1285 59.7964 3.94979 57.1558 2.45955C53.6612 0.486898 49.5571 -0.305095 44.9585 0.105062C35.5332 0.945882 32.9741 6.55672 32.311 8.93026C31.5357 11.7066 31.9331 14.6412 33.2266 16.651V16.6515C31.6987 17.0758 30.5733 18.4849 30.5733 20.1549V22.4093C30.5733 23.9815 31.5708 25.3233 32.9619 25.8287L19.3115 29.4952C13.374 31.0904 9.83789 37.2301 11.4287 43.1817C11.6587 44.0421 11.9858 44.859 12.398 45.6226H7.38135C5.70703 45.6226 4.41162 46.2716 3.73291 47.4498L1.51807 51.2955C0.855957 52.4459 0.89209 53.8121 1.49316 54.8971H0.9375C0.419922 54.8971 0 55.3165 0 55.8346C0 56.3526 0.419922 56.7721 0.9375 56.7721H9.21924C9.27881 57.9698 9.92285 59.1153 11.0342 59.7584C11.5957 60.0836 12.2188 60.2496 12.8511 60.2496C13.167 60.2496 13.4849 60.2081 13.7983 60.1241C14.7398 59.8717 15.5264 59.2672 16.0132 58.4215L16.9634 56.7721H60.2783C60.7959 56.7721 61.2158 56.3526 61.2158 55.8346C61.2158 55.317 60.7959 54.8971 60.2783 54.8971H59.6851C59.8306 54.5436 59.9116 54.1563 59.9116 53.7501C59.9116 52.4986 59.1226 51.3775 57.9829 50.9332C57.7344 50.4942 56.5537 48.4132 56.5537 48.4132C56.2984 47.9625 55.7256 47.8043 55.2759 48.0602C54.8252 48.3155 54.6675 48.8878 54.9229 49.338C54.9229 49.338 56.3804 51.9078 56.5327 52.1778C56.6631 52.4098 56.8858 52.5748 57.145 52.6324C57.6616 52.7481 58.0366 53.2184 58.0366 53.7506C58.0366 54.3829 57.5244 54.8976 56.895 54.8976H54.145C53.565 54.8976 53.1123 54.4498 53.0684 53.8331C53.0576 53.6861 53.0127 53.5435 52.937 53.4171L48.1094 45.3829L51.5376 43.3702C51.9321 44.0655 52.3496 44.8023 52.7954 45.5875C53.0508 46.0377 53.6231 46.1959 54.0733 45.9405C54.5235 45.6847 54.6817 45.1129 54.4263 44.6622C53.2569 42.6012 50.5347 37.8018 48.7134 34.5802H52.0952C56.1714 34.5802 59.4473 33.1036 61.3203 30.4225C63.0762 27.9088 63.3609 24.6139 62.1275 21.1285V15.3805C62.1275 14.6461 62.0611 13.9264 61.9341 13.2257C62.6265 13.2398 63.1685 13.0196 63.5552 12.564C64.2559 11.7379 64.124 10.2335 63.1924 8.43612V8.43612ZM7.42676 51.8902L6.20655 54.0094C5.89112 54.5567 5.30322 54.8971 4.67236 54.8971C4.36475 54.8971 4.06006 54.815 3.79102 54.6593C2.94531 54.1695 2.6543 53.0802 3.14307 52.231L5.35742 48.3858C5.69678 47.797 6.37793 47.4981 7.38135 47.4981H10.0591V51.4205H8.23926C7.90381 51.4205 7.59424 51.5997 7.42676 51.8902V51.8902ZM9.63282 54.8971H7.85889L8.78125 53.2955H10.5508C10.5508 53.2955 9.65479 54.8556 9.63282 54.8971ZM11.9341 47.4981H13.6738C14.1704 48.0875 14.729 48.6261 15.3447 49.1051C13.791 49.1588 12.5864 49.7892 11.9341 50.8961V47.4981ZM17.7769 54.8971H16.4214C16.0859 54.8971 15.7764 55.0763 15.6089 55.3668L14.3887 57.4854C14.1519 57.8966 13.77 58.1905 13.313 58.3126C12.8574 58.4352 12.3818 58.3722 11.9731 58.1353C11.127 57.6456 10.8364 56.5567 11.3252 55.7081L13.54 51.8619C13.8789 51.273 14.5596 50.9742 15.563 50.9742H17.7769V54.8971ZM31.3369 54.8971C32.7481 53.5973 33.6343 51.7335 33.6343 49.6661C33.6343 49.3614 33.6152 49.0748 33.5816 48.8018L34.5562 48.5396C34.5562 48.5396 34.5415 54.0357 34.5562 54.1012C34.5884 54.38 34.6821 54.6471 34.7852 54.8971H31.3369ZM41.5366 54.8971H37.5728C36.978 54.8971 36.4736 54.4298 36.4312 53.8331C36.4297 53.8155 36.4312 47.0089 36.4312 47.0089H40.417V51.6656C40.417 52.1837 40.8369 52.6031 41.3545 52.6031H41.5366C42.1494 52.6031 42.6113 53.0963 42.6113 53.7501C42.6113 54.4039 42.1494 54.8971 41.5366 54.8971V54.8971ZM51.2241 54.2076C51.2598 54.4493 51.3247 54.6793 51.4107 54.8971H44.273C44.4107 54.545 44.4863 54.1583 44.4863 53.7501C44.4863 52.3243 43.5684 51.1583 42.292 50.8243V46.1954C43.3477 45.651 44.3071 44.943 45.1411 44.0841L51.2241 54.2076ZM50.6123 41.7389L47.1436 43.7755L46.0816 42.0079C45.9214 41.7418 45.6397 41.5719 45.3296 41.5548C45.02 41.5367 44.7207 41.6754 44.5322 41.9225C43.897 42.7555 43.1416 43.461 42.292 44.0255V40.1744C42.292 39.6568 41.8726 39.2369 41.3545 39.2369C40.8369 39.2369 40.417 39.6568 40.417 40.1744V45.1339H36.4312V40.1744C36.4312 39.6568 36.0112 39.2369 35.4937 39.2369C34.9761 39.2369 34.5562 39.6568 34.5562 40.1744V46.5987L33.0444 47.0045C32.0913 45.1632 30.0781 44.1803 27.7075 43.0235C27.5571 42.9503 27.4043 42.8751 27.25 42.7994L24.7661 37.5958C24.5435 37.1285 23.9839 36.9312 23.5166 37.1534C23.0493 37.3766 22.8511 37.9361 23.0742 38.4034L25.6978 43.9015L25.6992 43.9019C25.7866 44.0851 25.9331 44.2413 26.1289 44.338C26.3867 44.4654 26.6387 44.5885 26.8853 44.7086C30.2647 46.3575 31.7593 47.191 31.7593 49.6661C31.7593 52.5504 29.4194 54.8971 26.544 54.8971H19.6519V50.9747H22.375C22.8926 50.9747 23.3125 50.5548 23.3125 50.0372C23.3125 49.5191 22.8926 49.0997 22.375 49.0997H19.2222C18.6548 48.9059 18.1021 48.6568 17.5708 48.3502C15.4204 47.1085 13.8823 45.1012 13.2402 42.6978C11.9248 37.7765 14.8198 32.7032 19.7007 31.3351L21.165 34.4034C21.3262 34.7403 21.6616 34.9371 22.0117 34.9371C22.147 34.9371 22.2847 34.9078 22.415 34.8458C22.8823 34.6226 23.0801 34.0631 22.8574 33.5958L21.541 30.838L34.7725 27.2843C34.9463 27.2374 35.1182 27.1954 35.2886 27.1554C35.5869 27.8448 35.9468 28.5064 36.3696 29.1353C35.3999 32.1725 36.9131 35.4215 39.8013 36.4356C40.3799 36.6388 40.9834 36.7413 41.5947 36.7413C43.3135 36.7413 44.9439 35.9391 46.0532 34.5704C46.2144 34.5772 46.3745 34.5802 46.5322 34.5802H46.5591C47.3501 35.9825 48.6079 38.2037 50.6123 41.7389V41.7389ZM62.1143 11.3429C61.9859 11.3707 61.4409 11.4127 60.0547 10.7022C59.4444 10.3892 58.8877 10.0396 58.5537 9.81991C58.3438 9.65536 58.1719 9.55965 58.126 9.53524C57.69 9.30331 57.1485 9.44881 56.8882 9.86874C56.6279 10.2887 56.7378 10.8385 57.1402 11.1256C57.1538 11.1353 57.2686 11.2169 57.4571 11.3424C57.5816 11.4498 57.6787 11.5689 57.6865 11.6378C57.6895 11.6607 57.6519 11.7896 57.4224 12.0001C57.417 12.004 56.7744 12.3097 54.3506 11.0357C53.1651 10.4127 51.583 9.3409 51.5571 9.32479C51.1275 9.05331 50.5601 9.17342 50.2779 9.5953C49.9951 10.0172 50.0996 10.5875 50.5132 10.8814C50.5235 10.8888 50.5737 10.9244 50.6577 10.9825C50.8814 11.1554 51.1904 11.4781 51.1929 11.6886C51.1944 11.8023 51.0547 12.0182 50.6592 12.2813C50.5249 12.3712 49.9546 12.6236 48.272 12.1143C47.7769 11.964 47.2529 12.2442 47.103 12.7398C46.9531 13.2354 47.2329 13.7589 47.7285 13.9088C49.5186 14.4508 50.8174 14.4293 51.6987 13.8419C52.4146 13.3648 52.7735 12.857 52.94 12.4034C53.1446 12.5177 53.3555 12.6319 53.5703 12.7437C55.1641 13.5709 57.4282 14.5377 58.6865 13.3848C59.0313 13.0694 59.249 12.7559 59.3809 12.462C59.3999 12.4718 59.419 12.481 59.438 12.4903C59.5938 12.566 59.7442 12.6339 59.8926 12.6978C60.126 13.5455 60.2525 14.4434 60.2525 15.3809V21.2921C60.2525 21.4024 60.2715 21.5113 60.3096 21.6148C60.5635 22.3072 60.7466 22.9879 60.8609 23.651C60.3457 22.9962 59.5474 22.5748 58.6524 22.5748C57.1011 22.5748 55.8389 23.839 55.8389 25.3932C55.8389 26.9474 57.1011 28.2115 58.6524 28.2115C59.4829 28.2115 60.2305 27.8482 60.7461 27.2725C60.5435 28.0225 60.2227 28.7198 59.7832 29.3492C58.271 31.5133 55.541 32.67 52.0952 32.67H45.6792C45.3403 32.6412 45.0137 32.7994 44.8242 33.0816C44.0733 34.1993 42.8662 34.8668 41.5947 34.8668C41.1953 34.8668 40.8008 34.7994 40.4219 34.6661C38.457 33.9762 37.457 31.7003 38.1934 29.5929C38.2183 29.5216 38.2476 29.4449 38.2837 29.3585C38.4097 29.0558 38.3682 28.7091 38.1743 28.4444C37.3828 27.3634 36.813 26.1617 36.481 24.8726C36.3745 24.4586 36.001 24.169 35.5733 24.169H34.186C33.228 24.169 32.4483 23.3795 32.4483 22.4093V20.1549C32.4483 19.1847 33.228 18.3956 34.186 18.3956H35.2217C35.3081 18.3956 35.3955 18.3834 35.481 18.359C35.5557 18.3375 37.3355 17.817 39.1284 16.5846C41.0869 15.2379 42.3145 13.5553 42.7412 11.6583C42.9878 11.7965 43.2627 11.9478 43.5596 12.1056C44.0171 12.3482 44.5845 12.1749 44.8277 11.7174C45.0703 11.2603 44.8965 10.693 44.4395 10.4498C43.2998 9.84432 42.481 9.32967 42.4732 9.3243C42.1841 9.14217 41.8194 9.13192 41.52 9.29647C41.2207 9.46151 41.0352 9.77596 41.0352 10.1173C41.0352 13.9762 36.8369 15.8702 35.4214 16.399C34.1284 15.1324 33.2813 12.4273 34.1172 9.43417C35.2969 5.21151 39.3086 2.49178 45.125 1.97274C54.9302 1.09627 59.5698 6.40877 60.7583 8.0577C62.002 9.78329 62.1856 11.0191 62.1143 11.3429V11.3429ZM59.5904 25.3932C59.5904 25.9132 59.1695 26.336 58.6524 26.336C58.1348 26.336 57.7139 25.9132 57.7139 25.3932C57.7139 24.8731 58.1348 24.4498 58.6524 24.4498C59.1695 24.4498 59.5904 24.8731 59.5904 25.3932Z" fill="#1A202C"/>
</svg>
