<svg width="64" height="64" viewBox="0 0 64 64" fill="none" xmlns="http://www.w3.org/2000/svg">
<g clip-path="url(#clip0_261_8600)">
<path d="M63.0625 53.1237C63.5804 53.1237 64 52.704 64 52.1862V40.3338C64 39.816 63.5804 39.3963 63.0625 39.3963H56.4C55.8822 39.3963 55.4626 39.816 55.4626 40.3338V42.8057H52.6118C52.0939 42.8057 51.6743 43.2254 51.6743 43.7432V45.3313H49.6177L49.3986 44.0187C49.038 41.8524 47.1823 40.2802 44.9862 40.2802H44.8626L44.4795 38.4296C44.0042 36.1291 41.9545 34.4593 39.6054 34.4593H34.4088V33.1041C37.3009 31.7565 39.3864 28.9585 39.7204 25.6495C41.8405 25.6179 43.5556 23.8844 43.5556 21.757C43.5556 20.5595 43.0119 19.4869 42.1589 18.772C42.3985 18.4198 42.5389 17.9949 42.5389 17.5378V14.5503C42.5389 7.91973 37.1452 2.52539 30.5153 2.52539C27.7712 2.52539 25.0882 3.47401 22.9605 5.19675C22.5581 5.5225 22.496 6.11287 22.8219 6.51524C23.1476 6.91762 23.7379 6.97974 24.1405 6.65399C25.9613 5.17975 28.1658 4.40038 30.5154 4.40038C36.1114 4.40038 40.664 8.9536 40.664 14.5503V17.5378C40.664 17.7171 40.5183 17.8628 40.339 17.8628H38.9566C36.7275 17.1949 36.1318 13.6626 36.1262 13.6282C36.0739 13.2967 35.8484 13.0183 35.535 12.8985C35.2212 12.7786 34.8677 12.8355 34.6077 13.0476L29.9741 16.8262V15.5804C29.9741 15.2194 29.7668 14.8904 29.441 14.7347C29.1155 14.5789 28.7291 14.6239 28.4481 14.8507L25.9816 16.8399V16.5579C25.9816 16.1988 25.7763 15.8712 25.4532 15.7144C25.1301 15.5577 24.7459 15.5994 24.4637 15.8217L21.874 17.8629H20.6903C20.511 17.8629 20.3653 17.7171 20.3653 17.5379V14.5504C20.3653 12.862 20.7881 11.191 21.5879 9.71785C21.835 9.26285 21.6664 8.69373 21.2114 8.44661C20.7561 8.19948 20.1874 8.36811 19.9401 8.8231C18.9915 10.57 18.4901 12.5503 18.4901 14.5504V17.5379C18.4901 17.9952 18.6306 18.42 18.8703 18.7723C18.0173 19.4872 17.4736 20.5597 17.4736 21.7572C17.4736 23.8846 19.1888 25.618 21.3089 25.6496C21.6429 28.9585 23.7282 31.7565 26.6205 33.1041V34.4597H21.4243C19.0754 34.4597 17.0253 36.1291 16.5493 38.4292L14.5989 47.8564H14.0098L6.77446 40.621C6.02509 39.8717 5.02835 39.4589 3.96785 39.4589C2.90973 39.4589 1.91361 39.8714 1.16274 40.6207C0.412998 41.3695 0 42.3659 0 43.4262C0 44.4864 0.412998 45.4829 1.16237 46.2315L9.14107 54.2102C10.1291 55.1982 11.3754 55.862 12.7451 56.1298L33.9853 60.2912C35.0029 60.4902 36.0433 60.5911 37.0777 60.5911H52.6113C52.6149 60.5911 52.6186 60.5906 52.6222 60.5906H55.4653C55.4931 61.0834 55.9003 61.4748 56.4002 61.4748H63.0626C63.5805 61.4748 64.0001 61.0551 64.0001 60.5373V56.5611C64.0001 56.0433 63.5805 55.6236 63.0626 55.6236C62.5448 55.6236 62.1251 56.0433 62.1251 56.5611V59.5998H57.3377V41.2712H62.1251V52.1861C62.125 52.704 62.5446 53.1237 63.0625 53.1237V53.1237ZM39.7675 23.7731V19.7405C40.8318 19.7958 41.6806 20.679 41.6806 21.7569C41.6805 22.8345 40.8316 23.7178 39.7675 23.7731ZM19.3488 21.7568C19.3488 20.6789 20.1976 19.7958 21.2619 19.7404V23.773C20.1976 23.7178 19.3488 22.8345 19.3488 21.7568ZM23.1369 24.7134V19.2545L24.1065 18.4903V18.8002C24.1065 19.1612 24.3137 19.4902 24.6396 19.6459C24.9651 19.8017 25.3514 19.7565 25.6325 19.5299L28.099 17.5407V18.8002C28.099 19.1622 28.3073 19.4918 28.6343 19.647C28.7623 19.7079 28.8997 19.7377 29.0363 19.7377C29.2482 19.7377 29.4583 19.6658 29.629 19.5267L34.6648 15.4201C35.1264 16.7702 36.0735 18.6572 37.8924 19.4633V24.7133C37.8924 28.7814 34.5827 32.0911 30.5146 32.0911C26.4465 32.0911 23.1369 28.7815 23.1369 24.7134V24.7134ZM30.5147 33.9661C31.2083 33.9661 31.8833 33.887 32.5337 33.7416V35.8589C32.5337 36.9722 31.6279 37.8779 30.5146 37.8779C29.4013 37.8779 28.4956 36.9722 28.4956 35.8589V33.7416C29.146 33.887 29.8211 33.9661 30.5147 33.9661ZM34.3455 58.4512L13.1053 54.2898C12.1027 54.0937 11.1903 53.6077 10.4671 52.8845L2.48799 44.9054C2.09261 44.5106 1.87499 43.9853 1.87499 43.4262C1.87499 42.867 2.09261 42.3418 2.48749 41.9473C2.88398 41.5515 3.40973 41.3337 3.96785 41.3337C4.5276 41.3337 5.05347 41.5513 5.44859 41.9465L12.9585 49.4565C13.1344 49.6324 13.3728 49.7311 13.6215 49.7311H22.1027C22.1341 49.7647 22.1634 49.7999 22.196 49.8326C22.9467 50.5816 23.943 50.9941 25.0009 50.9941H35.2192L36.2072 51.9822C36.3903 52.1652 36.6303 52.2569 36.8702 52.2569C37.11 52.2569 37.35 52.1654 37.5332 51.9822C37.8993 51.6161 37.8993 51.0225 37.5332 50.6565L36.2704 49.3937C36.0945 49.2179 35.8562 49.1191 35.6074 49.1191H25.0007C23.8739 49.1431 22.8824 48.1455 22.9076 47.019C22.911 45.8691 23.8822 44.9338 25.0726 44.9338H27.5176C28.0355 44.9338 28.4551 44.514 28.4551 43.9963C28.4551 43.4785 28.0355 43.0588 27.5176 43.0588H25.0726C22.8514 43.0588 21.039 44.8328 21.0326 47.0145C21.0321 47.3005 21.0615 47.5823 21.1199 47.8563H16.5137L18.3854 38.8089C18.682 37.3752 19.96 36.3346 21.4243 36.3346H26.6506C26.886 38.2581 28.5285 39.7531 30.5146 39.7531C32.5008 39.7531 34.1434 38.2579 34.3787 36.3342H39.6053C41.0694 36.3342 42.3471 37.3749 42.6433 38.8092L42.9478 40.28H38.6026C36.7779 40.28 35.1432 41.4117 34.4639 43.0588H31.8927C31.3748 43.0588 30.9552 43.4785 30.9552 43.9963C30.9552 44.514 31.3748 44.9338 31.8927 44.9338H35.149C35.5895 44.9338 35.9705 44.6271 36.0648 44.1968C36.3238 43.0138 37.3912 42.155 38.6028 42.155H44.9864C46.2619 42.155 47.3396 43.0683 47.5492 44.3269L47.8992 46.4231C47.9747 46.8751 48.3657 47.2063 48.8238 47.2063H51.6744V58.7162H37.0777C36.1638 58.7161 35.2444 58.6269 34.3455 58.4512V58.4512ZM53.5493 44.6806H55.4626V58.7156H53.5493V44.6806Z" fill="black"/>
<path d="M59.7314 45.3098C60.2492 45.3098 60.6689 44.8901 60.6689 44.3723C60.6689 43.8545 60.2492 43.4348 59.7314 43.4348C59.2137 43.4348 58.7939 43.8545 58.7939 44.3723C58.7939 44.8901 59.2137 45.3098 59.7314 45.3098Z" fill="black"/>
<path d="M59.7314 49.0979C60.2492 49.0979 60.6689 48.6782 60.6689 48.1604C60.6689 47.6426 60.2492 47.2229 59.7314 47.2229C59.2137 47.2229 58.7939 47.6426 58.7939 48.1604C58.7939 48.6782 59.2137 49.0979 59.7314 49.0979Z" fill="black"/>
</g>
<defs>
<clipPath id="clip0_261_8600">
<rect width="64" height="64" fill="white"/>
</clipPath>
</defs>
</svg>
