<svg width="72" height="72" viewBox="0 0 72 72" fill="none" xmlns="http://www.w3.org/2000/svg">
<path d="M46.125 52.875C44.345 52.875 42.6049 53.4028 41.1249 54.3918C39.6448 55.3807 38.4913 56.7863 37.8101 58.4309C37.1289 60.0754 36.9507 61.885 37.2979 63.6308C37.6452 65.3766 38.5024 66.9803 39.761 68.239C41.0197 69.4976 42.6234 70.3548 44.3692 70.7021C46.115 71.0493 47.9246 70.8711 49.5692 70.1899C51.2137 69.5087 52.6193 68.3552 53.6082 66.8751C54.5972 65.3951 55.125 63.655 55.125 61.875C55.125 59.4881 54.1768 57.1989 52.489 55.511C50.8011 53.8232 48.512 52.875 46.125 52.875ZM46.125 68.625C44.79 68.625 43.4849 68.2291 42.3749 67.4874C41.2649 66.7457 40.3997 65.6915 39.8888 64.4581C39.3779 63.2247 39.2443 61.8675 39.5047 60.5581C39.7652 59.2488 40.408 58.046 41.352 57.102C42.296 56.158 43.4988 55.5151 44.8081 55.2547C46.1175 54.9942 47.4747 55.1279 48.7081 55.6388C49.9415 56.1497 50.9957 57.0149 51.7374 58.1249C52.4791 59.2349 52.875 60.54 52.875 61.875C52.875 63.6652 52.1638 65.3821 50.898 66.648C49.6321 67.9138 47.9152 68.625 46.125 68.625Z" fill="#1A202C"/>
<path d="M43.3125 63C43.9338 63 44.4375 62.4963 44.4375 61.875C44.4375 61.2537 43.9338 60.75 43.3125 60.75C42.6912 60.75 42.1875 61.2537 42.1875 61.875C42.1875 62.4963 42.6912 63 43.3125 63Z" fill="#1A202C"/>
<path d="M48.9375 63C49.5588 63 50.0625 62.4963 50.0625 61.875C50.0625 61.2537 49.5588 60.75 48.9375 60.75C48.3162 60.75 47.8125 61.2537 47.8125 61.875C47.8125 62.4963 48.3162 63 48.9375 63Z" fill="#1A202C"/>
<path d="M55.6875 28.125C55.3891 28.125 55.103 28.2435 54.892 28.4545C54.681 28.6655 54.5625 28.9516 54.5625 29.25V42.75C54.5625 43.0484 54.681 43.3345 54.892 43.5455C55.103 43.7565 55.3891 43.875 55.6875 43.875C55.9859 43.875 56.272 43.7565 56.483 43.5455C56.694 43.3345 56.8125 43.0484 56.8125 42.75V29.25C56.8125 28.9516 56.694 28.6655 56.483 28.4545C56.272 28.2435 55.9859 28.125 55.6875 28.125Z" fill="#1A202C"/>
<path d="M64.6875 43.8751C64.9858 43.8751 65.272 43.7565 65.483 43.5456C65.6939 43.3346 65.8125 43.0484 65.8125 42.7501V36.3038L69.5925 29.8126C69.685 29.6853 69.7499 29.5399 69.7828 29.386C69.8157 29.2321 69.8159 29.0729 69.7834 28.9189C69.751 28.7649 69.6866 28.6194 69.5943 28.4918C69.5021 28.3642 69.3842 28.2574 69.2481 28.1783C69.112 28.0992 68.9608 28.0495 68.8043 28.0325C68.6478 28.0155 68.4895 28.0315 68.3396 28.0795C68.1897 28.1274 68.0515 28.2064 67.934 28.3111C67.8165 28.4159 67.7223 28.5441 67.6575 28.6876L64.6875 33.7501L61.7175 28.6876C61.5536 28.4623 61.3121 28.3059 61.0396 28.2484C60.7671 28.191 60.4829 28.2367 60.2422 28.3767C60.0014 28.5167 59.8211 28.741 59.7362 29.0062C59.6513 29.2715 59.6678 29.5588 59.7825 29.8126L63.5625 36.3038V42.7501C63.5625 43.0484 63.681 43.3346 63.892 43.5456C64.1029 43.7565 64.3891 43.8751 64.6875 43.8751Z" fill="#1A202C"/>
<path d="M45.5625 43.875C47.2026 43.872 48.7747 43.2192 49.9344 42.0594C51.0942 40.8997 51.747 39.3276 51.75 37.6875V34.3125C51.747 32.6724 51.0942 31.1003 49.9344 29.9406C48.7747 28.7808 47.2026 28.128 45.5625 28.125H43.875C43.5766 28.125 43.2905 28.2435 43.0795 28.4545C42.8685 28.6655 42.75 28.9516 42.75 29.25V42.75C42.75 43.0484 42.8685 43.3345 43.0795 43.5455C43.2905 43.7565 43.5766 43.875 43.875 43.875H45.5625ZM45 30.375H45.5625C46.6068 30.375 47.6083 30.7898 48.3467 31.5283C49.0852 32.2667 49.5 33.2682 49.5 34.3125V37.6875C49.5 38.7318 49.0852 39.7333 48.3467 40.4717C47.6083 41.2102 46.6068 41.625 45.5625 41.625H45V30.375Z" fill="#1A202C"/>
<path d="M7.875 47.25V64.125C7.875 64.4234 7.99353 64.7095 8.20451 64.9205C8.41548 65.1315 8.70163 65.25 9 65.25H24.75C25.0484 65.25 25.3345 65.1315 25.5455 64.9205C25.7565 64.7095 25.875 64.4234 25.875 64.125V47.25C25.875 46.9516 25.7565 46.6655 25.5455 46.4545C25.3345 46.2435 25.0484 46.125 24.75 46.125H9C8.70163 46.125 8.41548 46.2435 8.20451 46.4545C7.99353 46.6655 7.875 46.9516 7.875 47.25ZM10.125 48.375H23.625V63H10.125V48.375Z" fill="#1A202C"/>
<path d="M38.0138 25.3799L33.84 20.0024C33.7418 19.8761 33.6178 19.7722 33.4762 19.6976C33.3347 19.623 33.1789 19.5795 33.0192 19.5699C32.8595 19.5603 32.6995 19.5849 32.5501 19.642C32.4006 19.6992 32.2651 19.7875 32.1525 19.9012L27.7763 24.2774C27.6626 24.39 27.5742 24.5256 27.5171 24.675C27.46 24.8245 27.4354 24.9844 27.445 25.1441C27.4545 25.3038 27.4981 25.4596 27.5727 25.6012C27.6473 25.7427 27.7512 25.8667 27.8775 25.9649L30.1275 27.6974L29.7 28.4849C29.025 29.7378 28.0232 30.7843 26.801 31.5133C25.5788 32.2423 24.1819 32.6264 22.7587 32.6249H22.23L19.125 21.0824C19.0591 20.837 18.912 20.6211 18.7077 20.47C18.5034 20.3188 18.254 20.2412 18 20.2499H15.75C15.496 20.2412 15.2466 20.3188 15.0423 20.47C14.838 20.6211 14.6909 20.837 14.625 21.0824L11.52 32.6249H11.25C10.3549 32.6249 9.49645 32.9805 8.86351 33.6135C8.23058 34.2464 7.875 35.1048 7.875 35.9999V39.8924L4.635 42.0637C3.55638 42.782 2.67169 43.7554 2.05941 44.8975C1.44712 46.0397 1.12616 47.3153 1.125 48.6112V66.3749C1.125 67.5684 1.59911 68.713 2.44302 69.5569C3.28693 70.4008 4.43153 70.8749 5.625 70.8749H28.125C29.3185 70.8749 30.4631 70.4008 31.307 69.5569C32.1509 68.713 32.625 67.5684 32.625 66.3749V48.6112C32.6238 47.3153 32.3029 46.0397 31.6906 44.8975C31.0783 43.7554 30.1936 42.782 29.115 42.0637L25.875 39.8924V35.9999C25.8701 35.4754 25.743 34.9593 25.5037 34.4924C26.8099 34.1244 28.0287 33.4975 29.0878 32.6491C30.1468 31.8007 31.0245 30.748 31.6687 29.5537L31.9163 29.0924L33.255 30.1387C33.4711 30.307 33.7411 30.3908 34.0145 30.3742C34.2879 30.3576 34.5459 30.2419 34.74 30.0487L37.9237 26.8649C38.117 26.6708 38.2327 26.4128 38.2493 26.1394C38.2658 25.866 38.1821 25.596 38.0138 25.3799ZM16.605 22.4999H17.145L19.9013 32.6249H13.8488L16.605 22.4999ZM10.125 35.9999C10.125 35.7016 10.2435 35.4154 10.4545 35.2044C10.6655 34.9935 10.9516 34.8749 11.25 34.8749H22.5C22.7984 34.8749 23.0845 34.9935 23.2955 35.2044C23.5065 35.4154 23.625 35.7016 23.625 35.9999V39.3749H10.125V35.9999ZM27.8663 43.8749C28.6454 44.3934 29.2829 45.098 29.721 45.9251C30.1591 46.7521 30.3838 47.6753 30.375 48.6112V66.3749C30.375 66.9717 30.1379 67.544 29.716 67.9659C29.294 68.3879 28.7217 68.6249 28.125 68.6249H5.625C5.02826 68.6249 4.45597 68.3879 4.03401 67.9659C3.61205 67.544 3.375 66.9717 3.375 66.3749V48.6112C3.37548 47.6848 3.60473 46.773 4.04238 45.9565C4.48004 45.1401 5.11256 44.4444 5.88375 43.9312L9.3375 41.6249H24.4125L27.8663 43.8749ZM33.8512 27.6974L30.2738 24.9074L32.8388 22.3424L35.6287 25.9199L33.8512 27.6974Z" fill="#1A202C"/>
<path d="M66.1158 1.89001L30.3071 3.93751C30.0206 3.95474 29.7515 4.08082 29.5549 4.28996C29.3583 4.49911 29.2491 4.77548 29.2496 5.06252H16.8746C16.6764 5.06173 16.4814 5.11334 16.3096 5.21212C16.1377 5.31089 15.995 5.45334 15.8958 5.62502L11.3958 13.5C11.2969 13.6714 11.2449 13.8658 11.2451 14.0636C11.2453 14.2615 11.2977 14.4558 11.397 14.627C11.4962 14.7981 11.6389 14.9401 11.8105 15.0385C11.9822 15.1369 12.1767 15.1883 12.3746 15.1875H29.2496C29.2491 15.4746 29.3583 15.7509 29.5549 15.9601C29.7515 16.1692 30.0206 16.2953 30.3071 16.3125L66.1158 18.36C66.7282 18.3953 67.3413 18.305 67.9175 18.0947C68.4937 17.8844 69.0208 17.5585 69.4664 17.1371C69.9121 16.7157 70.2669 16.2076 70.5091 15.644C70.7512 15.0805 70.8756 14.4734 70.8746 13.86V6.39002C70.8756 5.77665 70.7512 5.16955 70.5091 4.60601C70.2669 4.04246 69.9121 3.53437 69.4664 3.11294C69.0208 2.69151 68.4937 2.36564 67.9175 2.15533C67.3413 1.94503 66.7282 1.85474 66.1158 1.89001ZM29.2496 12.9375H14.3096L17.5271 7.31252H29.2496V12.9375ZM60.7496 15.75L31.4996 14.13V6.12002L60.7496 4.50002V15.75ZM68.6246 13.815C68.625 14.1212 68.563 14.4243 68.4423 14.7056C68.3216 14.987 68.1447 15.2408 67.9224 15.4514C67.7002 15.662 67.4374 15.8251 67.1499 15.9306C66.8625 16.0361 66.5566 16.0819 66.2508 16.065L62.9996 15.93V4.32001L66.2508 4.14001C66.5566 4.12317 66.8625 4.16891 67.1499 4.27442C67.4374 4.37993 67.7002 4.54299 67.9224 4.75362C68.1447 4.96426 68.3216 5.21803 68.4423 5.4994C68.563 5.78078 68.625 6.08383 68.6246 6.39002V13.815Z" fill="#1A202C"/>
<path d="M34.875 12.9375H57.375C57.6734 12.9375 57.9595 12.819 58.1705 12.608C58.3815 12.397 58.5 12.1109 58.5 11.8125C58.5 11.5141 58.3815 11.228 58.1705 11.017C57.9595 10.806 57.6734 10.6875 57.375 10.6875H55.125V8.4375C55.125 7.84076 54.8879 7.26847 54.466 6.84651C54.044 6.42455 53.4717 6.1875 52.875 6.1875H48.375C47.7783 6.1875 47.206 6.42455 46.784 6.84651C46.3621 7.26847 46.125 7.84076 46.125 8.4375V10.6875H34.875C34.5766 10.6875 34.2905 10.806 34.0795 11.017C33.8685 11.228 33.75 11.5141 33.75 11.8125C33.75 12.1109 33.8685 12.397 34.0795 12.608C34.2905 12.819 34.5766 12.9375 34.875 12.9375ZM48.375 8.4375H52.875V10.6875H48.375V8.4375Z" fill="#1A202C"/>
<path d="M67.5 50.625C66.6049 50.625 65.7465 50.9806 65.1135 51.6135C64.4806 52.2465 64.125 53.1049 64.125 54V65.25C64.125 65.5484 64.2435 65.8345 64.4545 66.0455C64.6655 66.2565 64.9516 66.375 65.25 66.375C65.5484 66.375 65.8345 66.2565 66.0455 66.0455C66.2565 65.8345 66.375 65.5484 66.375 65.25V54C66.375 53.7016 66.4935 53.4155 66.7045 53.2045C66.9155 52.9935 67.2016 52.875 67.5 52.875C67.7984 52.875 68.0845 52.9935 68.2955 53.2045C68.5065 53.4155 68.625 53.7016 68.625 54V65.25C68.625 66.1451 68.2694 67.0035 67.6365 67.6365C67.0035 68.2694 66.1451 68.625 65.25 68.625C64.3549 68.625 63.4965 68.2694 62.8635 67.6365C62.2306 67.0035 61.875 66.1451 61.875 65.25V55.125C61.875 54.8266 61.7565 54.5405 61.5455 54.3295C61.3345 54.1185 61.0484 54 60.75 54C60.4516 54 60.1655 54.1185 59.9545 54.3295C59.7435 54.5405 59.625 54.8266 59.625 55.125V65.25C59.625 66.7418 60.2176 68.1726 61.2725 69.2275C62.3274 70.2824 63.7582 70.875 65.25 70.875C66.7418 70.875 68.1726 70.2824 69.2275 69.2275C70.2824 68.1726 70.875 66.7418 70.875 65.25V54C70.875 53.1049 70.5194 52.2465 69.8865 51.6135C69.2535 50.9806 68.3951 50.625 67.5 50.625Z" fill="#1A202C"/>
</svg>
