<svg width="72" height="72" viewBox="0 0 72 72" fill="none" xmlns="http://www.w3.org/2000/svg">
<path d="M69.5341 47.5591H65.6068C65.6989 45.8621 65.6724 42.7954 64.5533 40.6578V19.8825H64.9087C66.2684 19.8825 67.3746 18.7764 67.3746 17.4168V13.1372C67.3746 11.7776 66.2684 10.6715 64.9087 10.6715H59.7649C59.9354 8.05836 59.9538 2.16786 56.886 0.398796C55.2198 -0.561954 53.0371 0.215421 50.3983 2.70997C49.1335 3.90556 48.0752 5.19608 47.563 5.85055H42.9308C42.4187 5.19622 41.3603 3.90556 40.0956 2.70997C37.4569 0.215421 35.2742 -0.562095 33.608 0.398796C30.5404 2.16786 30.5588 8.05836 30.7292 10.6715H25.9803C24.6206 10.6715 23.5145 11.7776 23.5145 13.1372V17.4168C23.5145 18.7764 24.6206 19.8825 25.9803 19.8825H26.3357V29.5745L22.2667 29.5723C21.7537 28.8984 20.6911 27.566 19.4219 26.3314C16.7698 23.7518 14.5759 22.9501 12.9029 23.9488C9.84009 25.7767 9.87187 31.8854 10.0427 34.5538H2.46502C1.10587 34.5535 0 35.6601 0 37.0201V41.3156C0 42.6534 1.07072 43.7435 2.39934 43.7788V49.1241C2.39934 49.7077 2.87241 50.1807 3.45614 50.1807C4.03988 50.1807 4.51294 49.7077 4.51294 49.1241V43.7822H20.6755V69.8865H5.56847C4.98642 69.8865 4.5128 69.4119 4.5128 68.8285V53.351C4.5128 52.7674 4.03973 52.2943 3.456 52.2943C2.87227 52.2943 2.3992 52.7674 2.3992 53.351V68.8285C2.3992 70.5773 3.82092 72 5.56833 72H66.5061C68.2543 72 69.6765 70.5778 69.6765 68.8297V56.0348C70.9698 55.9604 71.9999 54.8879 71.9999 53.5764V50.0249C72 48.6651 70.8938 47.5591 69.5341 47.5591ZM20.6754 41.6689H2.46502C2.27109 41.6689 2.11345 41.5104 2.11345 41.3157V37.0202C2.11345 36.8254 2.27109 36.667 2.46502 36.667H20.6753V41.6689H20.6754ZM20.6786 34.5507L12.167 34.5534C12.1132 33.7078 12.0653 32.3875 12.1555 31.0013C12.3363 28.2205 12.9864 26.3603 13.9863 25.7636C14.1225 25.6823 14.2805 25.6441 14.4565 25.6441C15.9785 25.6441 18.8494 28.4952 20.6786 30.9722V34.5507ZM63.4912 47.5591H57.0485V43.9737C58.15 42.6468 60.1222 40.7679 61.4256 40.6437C61.701 40.6177 61.8975 40.6752 62.0827 40.8365C63.3741 41.9605 63.6287 45.233 63.4912 47.5591ZM49.1423 7.25848C51.177 4.58253 54.5056 1.46501 55.8302 2.22959C57.5754 3.2359 57.8707 7.60147 57.6491 10.6715H49.1423V7.25848ZM49.1423 12.7848H64.9087C65.1031 12.7848 65.2611 12.9428 65.2611 13.1372V17.4168C65.2611 17.6112 65.1031 17.7691 64.9087 17.7691H49.1423V12.7848ZM43.4654 7.96386H47.0288V10.6715H43.4654V7.96386ZM43.4654 12.7848H47.0288V17.7691H43.4654V12.7848ZM46.6774 36.667C46.8712 36.667 47.0288 36.8254 47.0288 37.0202V39.1174C46.448 38.8112 45.8499 38.5966 45.2621 38.5402C44.4118 38.4589 43.6358 38.7018 43.0148 39.2425C42.312 39.8542 41.8292 40.714 41.5001 41.669H28.467V36.6671H46.6774V36.667ZM39.0995 34.5535C39.2704 31.8852 39.3022 25.7764 36.2392 23.9486C34.5655 22.9503 32.3726 23.752 29.7211 26.3331C29.2649 26.7772 28.836 27.2337 28.4491 27.6679V19.8824H41.3518V34.5534H39.0995V34.5535ZM32.8431 7.26734C33.0227 4.59223 33.6693 2.80306 34.6639 2.22945C35.99 1.46487 39.3173 4.58239 41.3519 7.25834V10.6713H32.8537C32.8004 9.85344 32.7544 8.59133 32.8431 7.26734ZM25.9803 17.7691C25.786 17.7691 25.6279 17.611 25.6279 17.4168V13.1372C25.6279 12.9428 25.786 12.7848 25.9803 12.7848H41.3519V17.7691H25.9803ZM22.7921 31.6859L26.3524 31.6879V34.5529L22.7921 34.551V31.6859ZM26.3534 69.8865H22.7888V43.7822H26.3534V69.8865ZM26.3534 41.6689H22.7888V36.667H26.3534V41.6689ZM28.466 30.975C30.5061 28.2103 33.8421 24.9792 35.1561 25.7635C36.9145 26.8127 37.2091 31.3672 36.9838 34.5535H28.466V30.975ZM28.467 69.8865V43.7822H41.0117C40.8123 45.2021 40.8263 46.5996 40.8783 47.5589H36.9509C35.5913 47.5589 34.4852 48.6651 34.4852 50.0246V53.5761C34.4852 54.8877 35.5154 55.9603 36.8087 56.0347V68.8296C36.8087 69.2001 36.8731 69.5556 36.9906 69.8864H28.467V69.8865ZM49.4366 69.8865H39.979C39.3962 69.8865 38.922 69.4125 38.922 68.8297V56.042H49.4366V69.8865ZM49.4366 53.9285H36.9508C36.7564 53.9285 36.5985 53.7705 36.5985 53.5763V50.0248C36.5985 49.8304 36.7564 49.6725 36.9508 49.6725H49.4366V53.9285ZM49.4366 47.5591H42.9938C42.8565 45.2327 43.1111 41.9605 44.4023 40.8365C44.5877 40.6751 44.7846 40.6177 45.0595 40.6437C46.3628 40.7679 48.3351 42.6468 49.4366 43.9737V47.5591ZM49.1423 40.6327V28.8212C49.1423 28.2376 48.6692 27.7646 48.0855 27.7646C47.5017 27.7646 47.0287 28.2376 47.0287 28.8212V34.5535H43.4652V19.8825H47.0287V24.5944C47.0287 25.178 47.5017 25.6511 48.0855 25.6511C48.6692 25.6511 49.1423 25.178 49.1423 24.5944V19.8825H62.4399V38.6607C62.0599 38.5408 61.6511 38.4993 61.2229 38.5401C58.896 38.7633 56.4034 41.4616 55.4903 42.5438H50.9947C50.6121 42.0903 49.9513 41.3529 49.1423 40.6327ZM51.55 47.5591V44.6573H54.9349V47.5591H51.55ZM54.935 49.6724V53.9285H51.5502V49.6724H54.935ZM67.563 68.8297C67.563 69.4125 67.0888 69.8865 66.5061 69.8865H57.0485V65.0776C57.0485 64.494 56.5754 64.0209 55.9917 64.0209C55.4079 64.0209 54.9349 64.494 54.9349 65.0776V69.8865H51.55V56.042H54.9349V60.8508C54.9349 61.4344 55.4079 61.9075 55.9917 61.9075C56.5754 61.9075 57.0485 61.4344 57.0485 60.8508V56.042H67.563V68.8297ZM69.8866 53.5763C69.8866 53.7706 69.7285 53.9285 69.5341 53.9285H57.0485V49.6724H69.5341C69.7285 49.6724 69.8866 49.8304 69.8866 50.0246V53.5763Z" fill="#1A202C"/>
</svg>
