<svg width="72" height="72" viewBox="0 0 72 72" fill="none" xmlns="http://www.w3.org/2000/svg">
<path d="M68.6893 0H66.7441C64.9341 0 63.4614 1.47272 63.4614 3.28271V12.5041H50.1042V11.6949C50.1042 8.86377 47.801 6.56049 44.9698 6.56049C42.1386 6.56049 39.8353 8.86377 39.8353 11.6949V12.5041H37.0443V11.6949C37.0443 8.86377 34.741 6.56049 31.9098 6.56049C29.0792 6.56049 26.7759 8.86377 26.7759 11.6949V12.5041H23.9848V11.6949C23.9848 8.86377 21.6815 6.56049 18.8503 6.56049C16.0192 6.56049 13.7159 8.86377 13.7159 11.6949V12.5041H8.51001V3.28271C8.51001 1.47272 7.03784 0 5.22784 0H3.28271C1.47272 0 0 1.47272 0 3.28271V68.7173C0 70.5273 1.47272 72 3.28271 72H5.22784C7.03784 72 8.51001 70.5273 8.51001 68.7173V57.5118H13.7159V58.3209C13.7159 61.1521 16.0192 63.4554 18.8503 63.4554C21.6815 63.4554 23.9848 61.1521 23.9848 58.3209V57.5118H26.7759V58.3209C26.7759 61.1521 29.0792 63.4554 31.9098 63.4554C34.741 63.4554 37.0443 61.1521 37.0443 58.3209V57.5118H39.8353V58.3209C39.8353 61.1521 42.1386 63.4554 44.9698 63.4554C47.8004 63.4554 50.1042 61.1521 50.1042 58.3209V57.5118H63.4614V68.7173C63.4614 70.5273 64.9341 72 66.7441 72H68.6893C70.4993 72 71.972 70.5273 71.972 68.7173V3.28271C71.972 1.47272 70.4993 0 68.6893 0V0ZM41.9447 11.6949C41.9447 10.0272 43.3015 8.66986 44.9698 8.66986C46.6375 8.66986 47.9949 10.0267 47.9949 11.6949V15.4232C47.9949 17.0909 46.6375 18.4477 44.9698 18.4477C43.3015 18.4477 41.9447 17.0909 41.9447 15.4232V11.6949ZM28.8853 11.6949C28.8853 10.0272 30.2421 8.66986 31.9098 8.66986C33.5781 8.66986 34.9349 10.0267 34.9349 11.6949V15.4232C34.9349 17.0909 33.5781 18.4477 31.9098 18.4477C30.2421 18.4477 28.8853 17.0909 28.8853 15.4232V11.6949ZM15.8253 11.6949C15.8253 10.0272 17.1826 8.66986 18.8503 8.66986C20.5186 8.66986 21.8754 10.0267 21.8754 11.6949V15.4232C21.8754 17.0909 20.5186 18.4477 18.8503 18.4477C17.1826 18.4477 15.8253 17.0909 15.8253 15.4232V11.6949ZM21.8754 58.3209C21.8754 59.9892 20.5186 61.346 18.8503 61.346C17.1826 61.346 15.8253 59.9892 15.8253 58.3209V54.5933C15.8253 52.925 17.1826 51.5682 18.8503 51.5682C20.5186 51.5682 21.8754 52.925 21.8754 54.5933V58.3209ZM34.9349 58.3209C34.9349 59.9892 33.5781 61.346 31.9098 61.346C30.2421 61.346 28.8853 59.9892 28.8853 58.3209V54.5933C28.8853 52.925 30.2421 51.5682 31.9098 51.5682C33.5781 51.5682 34.9349 52.925 34.9349 54.5933V58.3209ZM47.9949 58.3209C47.9949 59.9892 46.6375 61.346 44.9698 61.346C43.3015 61.346 41.9447 59.9892 41.9447 58.3209V54.5933C41.9447 52.925 43.3015 51.5682 44.9698 51.5682C46.6375 51.5682 47.9949 52.925 47.9949 54.5933V58.3209ZM63.4614 55.4024H50.1042V54.5933C50.1042 51.7621 47.801 49.4588 44.9698 49.4588C42.1386 49.4588 39.8353 51.7621 39.8353 54.5933V55.4024H37.0443V54.5933C37.0443 51.7621 34.741 49.4588 31.9098 49.4588C29.0792 49.4588 26.7759 51.7621 26.7759 54.5933V55.4024H23.9848V54.5933C23.9848 51.7621 21.6815 49.4588 18.8503 49.4588C16.0192 49.4588 13.7159 51.7621 13.7159 54.5933V55.4024H8.51001V48.6667C8.51001 48.0844 8.03815 47.612 7.45532 47.612C6.87305 47.612 6.40063 48.0844 6.40063 48.6667V68.7178C6.40063 69.3644 5.87439 69.8906 5.22784 69.8906H3.28271C2.63562 69.8906 2.10938 69.3644 2.10938 68.7178V3.28271C2.10938 2.63562 2.63562 2.10938 3.28271 2.10938H5.22784C5.87439 2.10938 6.40063 2.63562 6.40063 3.28271V43.7569C6.40063 44.3392 6.87305 44.8116 7.45532 44.8116C8.03815 44.8116 8.51001 44.3392 8.51001 43.7569V36.0626H23.6574V36.8718C23.6574 39.7029 25.9607 42.0062 28.7919 42.0062C31.623 42.0062 33.9263 39.7029 33.9263 36.8718V36.0626H36.7169V36.8718C36.7169 39.7029 39.0201 42.0062 41.8513 42.0062C44.6825 42.0062 46.9858 39.7029 46.9858 36.8718V36.0626H49.7769V36.8718C49.7769 39.7029 52.0801 42.0062 54.9113 42.0062C57.7425 42.0062 60.0452 39.7029 60.0452 36.8718V36.0626H63.462V55.4024H63.4614ZM25.7668 36.8718V33.1441C25.7668 31.4758 27.1236 30.119 28.7919 30.119C30.4596 30.119 31.817 31.4758 31.817 33.1441V36.8718C31.817 38.54 30.4596 39.8969 28.7919 39.8969C27.1236 39.8969 25.7668 38.54 25.7668 36.8718ZM38.8262 36.8718V33.1441C38.8262 31.4758 40.183 30.119 41.8513 30.119C43.519 30.119 44.8764 31.4758 44.8764 33.1441V36.8718C44.8764 38.54 43.519 39.8969 41.8513 39.8969C40.183 39.8969 38.8262 38.54 38.8262 36.8718ZM51.8857 36.8718V33.1441C51.8857 31.4758 53.243 30.119 54.9108 30.119C56.579 30.119 57.9359 31.4758 57.9359 33.1441V36.8718C57.9359 38.54 56.579 39.8969 54.9108 39.8969C53.243 39.8969 51.8857 38.54 51.8857 36.8718ZM69.8626 68.7173C69.8626 69.3644 69.3364 69.8906 68.6893 69.8906H66.7441C66.097 69.8906 65.5708 69.3644 65.5708 68.7173V28.2431C65.5708 27.6608 65.0989 27.1884 64.5161 27.1884C63.9338 27.1884 63.4614 27.6608 63.4614 28.2431V33.9532H60.0452V33.1441C60.0452 30.3129 57.7419 28.0096 54.9108 28.0096C52.0801 28.0096 49.7769 30.3129 49.7769 33.1441V33.9532H46.9858V33.1441C46.9858 30.3129 44.6825 28.0096 41.8513 28.0096C39.0201 28.0096 36.7169 30.3129 36.7169 33.1441V33.9532H33.9258V33.1441C33.9258 30.3129 31.6225 28.0096 28.7913 28.0096C25.9601 28.0096 23.6574 30.3129 23.6574 33.1441V33.9532H8.51001V14.6135H13.7159V15.4232C13.7159 18.2538 16.0192 20.5571 18.8503 20.5571C21.6815 20.5571 23.9848 18.2538 23.9848 15.4232V14.6135H26.7759V15.4232C26.7759 18.2538 29.0792 20.5571 31.9098 20.5571C34.741 20.5571 37.0443 18.2538 37.0443 15.4232V14.6135H39.8353V15.4232C39.8353 18.2538 42.1386 20.5571 44.9698 20.5571C47.8004 20.5571 50.1042 18.2538 50.1042 15.4232V14.6135H63.4614V23.3333C63.4614 23.9156 63.9338 24.388 64.5161 24.388C65.0989 24.388 65.5708 23.9156 65.5708 23.3333V3.28271C65.5708 2.63562 66.097 2.10938 66.7441 2.10938H68.6893C69.3364 2.10938 69.8626 2.63562 69.8626 3.28271V68.7173Z" fill="#1A202C"/>
</svg>
