<svg width="72" height="72" viewBox="0 0 72 72" fill="none" xmlns="http://www.w3.org/2000/svg">
<g clip-path="url(#clip0_261_9370)">
<path d="M70.9453 8.4375H65.6719V1.05469C65.6719 0.472078 65.1997 0 64.6172 0H49.7578C49.1753 0 48.7031 0.472078 48.7031 1.05469V8.4375H44.4843V1.05469C44.4843 0.472078 44.0121 0 43.4296 0H28.5704C27.9879 0 27.5157 0.472078 27.5157 1.05469V8.4375H23.2969V1.05469C23.2969 0.472078 22.8247 0 22.2422 0H7.38281C6.80034 0 6.32812 0.472078 6.32812 1.05469V8.4375H1.05469C0.472219 8.4375 0 8.90958 0 9.49219V70.9453C0 71.5279 0.472219 72 1.05469 72H70.9453C71.5278 72 72 71.5279 72 70.9453V9.49219C72 8.90958 71.5278 8.4375 70.9453 8.4375ZM69.8906 31.0313V49.4062H37.0547V31.0313H69.8906ZM50.8125 2.10938H63.5625V8.4375H50.8125V2.10938ZM29.625 2.10938H42.3751V8.4375H29.625V2.10938ZM8.4375 2.10938H21.1875V8.4375H8.4375V2.10938ZM69.8906 10.5469V28.9219H9.49219C8.90972 28.9219 8.4375 29.394 8.4375 29.9766C8.4375 30.5592 8.90972 31.0313 9.49219 31.0313H34.9453V49.4062H2.10938V31.0313H5.27344C5.85591 31.0313 6.32812 30.5592 6.32812 29.9766C6.32812 29.394 5.85591 28.9219 5.27344 28.9219H2.10938V10.5469H69.8906ZM2.10938 69.8906V51.5156H69.8906V69.8906H2.10938Z" fill="#1A202C"/>
</g>
<defs>
<clipPath id="clip0_261_9370">
<rect width="72" height="72" fill="white"/>
</clipPath>
</defs>
</svg>
