<svg width="64" height="64" viewBox="0 0 64 64" fill="none" xmlns="http://www.w3.org/2000/svg">
<g clip-path="url(#clip0_261_8609)">
<path d="M43.1238 12.3971C43.1238 11.6741 42.8422 10.9941 42.3308 10.4827C41.2754 9.42744 39.5579 9.42719 38.5021 10.4827C38.136 10.8488 38.136 11.4423 38.502 11.8083C38.8681 12.1746 39.4616 12.1744 39.8278 11.8084C40.1523 11.4837 40.6803 11.4838 41.0049 11.8083C41.1622 11.9657 41.2488 12.1747 41.2488 12.3971C41.2488 12.6193 41.1622 12.8283 41.0049 12.9856C40.6388 13.3517 40.6388 13.9452 41.0049 14.3112C41.188 14.4943 41.4279 14.5858 41.6679 14.5858C41.9078 14.5858 42.1478 14.4943 42.3308 14.3113C42.842 13.7999 43.1238 13.1202 43.1238 12.3971Z" fill="black"/>
<path d="M62.4436 26.4881C63.3487 24.2422 63.837 21.8326 63.8644 19.3566C63.9182 14.485 62.1871 9.906 58.9712 6.35925C59.925 5.45575 61.0891 4.78688 62.352 4.42C62.8492 4.27563 63.1352 3.7555 62.9907 3.25837C62.8464 2.76112 62.3261 2.47513 61.8291 2.61963C60.2636 3.07438 58.8222 3.90763 57.6455 5.03375C52.1024 0.0100002 44.2446 -1.134 37.5216 1.564C36.2419 0.5505 34.6689 0 33.0211 0C32.9845 0 32.9478 0.00025 32.9113 0.00075C31.0126 0.029 29.2273 0.784125 27.8844 2.12713C25.6015 4.41 25.1303 7.83075 26.5583 10.5874C25.9918 10.5614 25.4128 10.6468 24.8531 10.8569C20.6583 12.4313 14.5275 16.566 10.896 20.27C8.90038 22.3053 7.84913 25.1121 8.01163 27.9709C8.05938 28.81 8.13901 29.7417 8.24713 30.7456C5.78963 33.0216 3.56488 35.8949 2.10151 38.6971C1.13076 40.5562 -0.330116 44.0185 0.793259 46.3186C0.797634 46.3276 0.802259 46.337 0.806884 46.3465C-0.953991 51.1448 0.214384 56.5129 3.85076 60.1491C6.36713 62.6655 9.71213 64.0003 13.1245 64C14.643 64 16.1751 63.7345 17.6528 63.1924C17.6621 63.1971 17.6718 63.2022 17.6811 63.2067C18.2313 63.4754 18.888 63.6075 19.6326 63.6075C21.4839 63.6075 23.8763 62.7906 26.51 61.2241C28.9471 59.7745 31.3187 57.8364 33.2505 55.7535C34.2581 55.8618 35.1911 55.9407 36.029 55.9885C36.222 55.9995 36.4145 56.0049 36.6069 56.0049C39.2629 56.0049 41.832 54.9651 43.73 53.1043C45.8529 51.0228 48.178 48.0705 50.1095 45.0042C50.3855 44.5662 50.254 43.9875 49.816 43.7115C49.3779 43.4355 48.7991 43.5669 48.5232 44.0051C46.6661 46.9531 44.4407 49.7816 42.4175 51.7655C40.7581 53.3925 38.4692 54.2497 36.1356 54.1167C35.6954 54.0917 35.2263 54.0574 34.7329 54.0145C34.9823 53.6939 35.2201 53.3723 35.4437 53.0508C36.6202 51.3583 37.2287 49.3526 37.2036 47.2509C37.1609 43.6779 36.7158 37.5266 35.595 30.9779C35.584 30.9139 35.5725 30.8482 35.5612 30.7836C41.6009 31.9939 46.6547 33.6087 50.2372 35.4787C51.3244 36.0464 51.8194 37.3402 51.3882 38.4885C51.1802 39.0425 50.9174 39.649 50.6066 40.2916C50.3812 40.7579 50.5764 41.3183 51.0425 41.5438C51.174 41.6074 51.313 41.6375 51.45 41.6375C51.7982 41.6375 52.1329 41.4425 52.2945 41.108C52.63 40.4141 52.9157 39.7546 53.1435 39.1474C53.3535 38.588 53.4387 38.0092 53.4129 37.4429C54.4576 37.9841 55.5975 38.2534 56.7352 38.2534C58.599 38.2534 60.4559 37.5335 61.8732 36.1161C63.2162 34.773 63.9715 32.9878 63.9995 31.089C64.024 29.4054 63.4746 27.7945 62.4436 26.4881ZM29.21 3.45275C30.9289 1.734 33.491 1.40762 35.5326 2.49312C33.8572 3.393 32.2811 4.55062 30.8654 5.96637C29.8056 7.02612 28.8765 8.18963 28.0865 9.44075C27.2015 7.45013 27.595 5.06775 29.21 3.45275ZM5.17638 58.8234C2.26601 55.913 1.20038 51.7084 2.30038 47.8153C3.72876 48.7343 6.56876 50.0127 12.3714 51.6291C13.0613 54.1014 13.7596 56.2711 14.4285 58.008C15.1074 59.7707 15.6924 60.9271 16.1913 61.6978C12.2965 62.8009 8.08851 61.7355 5.17638 58.8234ZM33.9041 51.9803C31.9268 54.8249 28.8044 57.678 25.5516 59.6128C22.5041 61.4254 19.8035 62.1565 18.5038 61.5221C18.4748 61.5079 18.4436 61.4888 18.4111 61.4656C18.3765 61.4328 18.3396 61.4028 18.3009 61.3756C17.532 60.6715 15.9979 57.7986 14.0479 50.6645C14.0411 50.6343 14.033 50.6045 14.0234 50.5751C13.8024 49.764 13.5761 48.8984 13.345 47.975C13.2193 47.4727 12.7105 47.1673 12.208 47.2931C11.7058 47.4188 11.4005 47.9279 11.5261 48.43C11.6183 48.7984 11.711 49.1604 11.804 49.5189C4.69176 47.4569 2.98288 46.1015 2.58651 45.6481C2.58001 45.64 2.57301 45.6324 2.56626 45.6245C2.51301 45.5605 2.48813 45.5174 2.47763 45.4959C1.47913 43.4511 3.94951 37.7484 8.53201 33.0804C8.97951 36.3905 9.66701 40.2376 10.518 44.1246C10.6288 44.6305 11.1288 44.9503 11.6343 44.84C12.14 44.7293 12.4601 44.2295 12.3496 43.7239C11.0264 37.6791 10.1044 31.7504 9.88351 27.8644C9.75088 25.5314 10.6078 23.2418 12.2348 21.5825C15.7031 18.0448 21.5351 14.1046 25.5119 12.6119C26.6599 12.1806 27.954 12.6756 28.5216 13.7629C30.0008 16.5965 32.0093 22.3378 33.4619 29.6606C33.4671 29.746 33.4835 29.829 33.5106 29.9079C34.522 35.076 35.2535 41.0169 35.3285 47.2726C35.3491 48.9824 34.8565 50.6101 33.9041 51.9803ZM52.4832 34.9565C52.1182 34.4956 51.6544 34.1035 51.1045 33.8164C47.1654 31.7601 41.8162 30.0738 35.1984 28.801C34.2378 23.8239 32.6564 17.6323 30.1836 12.8955C29.8966 12.3456 29.5044 11.8818 29.0435 11.5166C29.8766 9.96888 30.9328 8.5505 32.191 7.29225C39.1098 0.3735 50.2372 0.244 56.9966 7.00338C63.7559 13.7626 63.6264 24.8903 56.7077 31.8088C55.4494 33.0674 54.031 34.1233 52.4832 34.9565ZM60.5472 34.79C58.9322 36.4049 56.5499 36.7984 54.5594 35.9135C55.8105 35.1236 56.9737 34.1944 58.0336 33.1346C59.4329 31.7354 60.5986 30.166 61.5112 28.4754C62.5912 30.5155 62.2637 33.0734 60.5472 34.79Z" fill="black"/>
<path d="M51.603 20.8762C50.8797 20.8762 50.2 21.1578 49.6886 21.6692C49.3225 22.0353 49.3226 22.6288 49.6887 22.9948C50.055 23.3608 50.6483 23.361 51.0145 22.9947C51.1717 22.8375 51.3807 22.751 51.603 22.751C51.8252 22.751 52.0343 22.8375 52.1916 22.9948C52.3488 23.1521 52.4355 23.3611 52.4355 23.5833C52.4355 23.8057 52.3488 24.0147 52.1916 24.1721C51.8255 24.5382 51.8256 25.1317 52.1916 25.4977C52.3747 25.6807 52.6146 25.7722 52.8545 25.7722C53.0943 25.7722 53.3343 25.6807 53.5175 25.4976C54.0288 24.9862 54.3105 24.3065 54.3105 23.5833C54.3105 22.8602 54.0288 22.1803 53.5175 21.6692C53.0058 21.1576 52.3261 20.8762 51.603 20.8762Z" fill="black"/>
<path d="M45.8102 19.8449C45.3617 19.8754 44.9221 19.7117 44.6051 19.3947C44.288 19.0775 44.1238 18.6382 44.1547 18.1894C44.1902 17.6729 43.8002 17.2255 43.2838 17.19C42.7665 17.1562 42.32 17.5445 42.2845 18.061C42.2165 19.0505 42.5792 20.0199 43.2795 20.7203C43.9242 21.3648 44.7965 21.7232 45.7028 21.7232C45.7812 21.7232 45.86 21.7205 45.9387 21.7152C46.4553 21.6797 46.8451 21.2322 46.8097 20.7158C46.7741 20.1993 46.327 19.8103 45.8102 19.8449Z" fill="black"/>
</g>
<defs>
<clipPath id="clip0_261_8609">
<rect width="64.0003" height="64" fill="white"/>
</clipPath>
</defs>
</svg>
