<svg width="72" height="72" viewBox="0 0 72 72" fill="none" xmlns="http://www.w3.org/2000/svg">
<g clip-path="url(#clip0_261_9325)">
<path d="M12.3827 55.047C11.3138 55.0704 10.3184 55.5087 9.58135 56.2798C8.84138 57.0511 8.44664 58.0641 8.46971 59.1325C8.49291 60.2021 8.93166 61.1983 9.70524 61.9378C10.456 62.6554 11.4345 63.0475 12.4696 63.0475C12.4995 63.0475 12.5294 63.0472 12.5592 63.0465C13.6281 63.0231 14.6236 62.585 15.3619 61.8125C16.887 60.2171 16.8307 57.6795 15.2366 56.1556C14.4643 55.4174 13.4468 55.0248 12.3827 55.047ZM13.8371 60.3551C13.4885 60.7199 13.0182 60.9267 12.5132 60.9378C12.008 60.9474 11.5283 60.7625 11.1628 60.4131C10.7969 60.0634 10.5895 59.5925 10.5785 59.0869C10.5675 58.5826 10.754 58.1042 11.1047 57.7387C11.4533 57.374 11.9236 57.1671 12.4287 57.156C12.4429 57.1557 12.457 57.1556 12.4712 57.1556C12.9608 57.1556 13.4239 57.3411 13.7791 57.6807C14.5323 58.4007 14.5585 59.6005 13.8371 60.3551Z" fill="#1A202C"/>
<path d="M32.3368 67.7594C32.3667 67.7594 32.3966 67.7591 32.4264 67.7584C33.4953 67.7351 34.4908 67.2969 35.2291 66.5244C36.7525 64.9309 36.6968 62.392 35.1052 60.865C35.1048 60.8645 35.1044 60.8641 35.1038 60.8637C34.3313 60.1254 33.3145 59.735 32.2485 59.757C31.1803 59.7817 30.1854 60.2206 29.4484 60.9917C28.7084 61.763 28.3137 62.7762 28.3369 63.8445C28.3601 64.914 28.7989 65.9103 29.5724 66.6499C30.3232 67.3673 31.3017 67.7594 32.3368 67.7594ZM30.9719 62.4504C31.3213 62.0849 31.7919 61.8773 32.2973 61.8657C32.3124 61.8654 32.3273 61.8651 32.3422 61.8651C32.8304 61.8651 33.2917 62.0497 33.6455 62.3877C34.3987 63.1109 34.4253 64.3125 33.7043 65.0668C33.3557 65.4316 32.8854 65.6385 32.3803 65.6496C31.8746 65.6615 31.3954 65.4742 31.0299 65.1251C30.664 64.7753 30.4565 64.3044 30.4456 63.7988C30.4349 63.2943 30.6212 62.816 30.9719 62.4504Z" fill="#1A202C"/>
<path d="M66.4398 45.9377H66.3184L65.0553 42.5595C64.6125 41.3806 63.5409 40.6481 62.2587 40.6479L60.4611 29.563C60.4594 29.5525 60.4576 29.5421 60.4555 29.5315C60.3469 28.9706 60.073 28.4943 59.6934 28.1453V6.72314C59.6934 6.14067 59.2212 5.66845 58.6387 5.66845H53.0843V1.05469C53.0843 0.472219 52.6121 0 52.0296 0H4.64648C4.06402 0 3.5918 0.472219 3.5918 1.05469V21.5918C3.5918 22.1743 4.06402 22.6465 4.64648 22.6465C5.22895 22.6465 5.70117 22.1743 5.70117 21.5918V2.10938H50.9751V5.66845H37.2412C36.6588 5.66845 36.1866 6.14067 36.1866 6.72314C36.1866 7.30561 36.6588 7.77783 37.2412 7.77783H57.5842V27.5719C56.6175 27.7729 55.8809 28.5432 55.7271 29.5701L53.9306 40.6478C52.6485 40.6479 51.577 41.3805 51.1336 42.5609L49.8711 45.9375H49.7497C48.6648 45.9375 47.7821 46.8219 47.7821 47.9091V53.0571H29.3902C29.9507 52.4721 30.5504 51.8462 31.1769 51.1924C32.8892 49.4055 37.131 44.9806 37.131 44.9806C41.5095 40.4187 44.1525 37.6651 43.5131 30.6986C43.4846 30.3913 43.4086 29.5753 42.6533 29.3133C41.8874 29.0474 41.3454 29.6175 40.952 30.0308L26.4722 45.1436L20.6185 25.0383C20.4572 24.488 20.2363 23.7345 19.4376 23.6192C18.6477 23.5052 18.2206 24.1695 18.0381 24.4529C14.2506 30.3322 15.3001 33.9244 16.7527 38.8962L20.41 51.461C19.5779 52.2487 19.0314 52.1598 16.9076 51.6846C16.0579 51.4945 15.0004 51.2578 13.684 51.0595C13.2239 50.9905 12.7632 50.9639 12.306 50.9739V7.77783H32.2822C32.8647 7.77783 33.3369 7.30561 33.3369 6.72314C33.3369 6.14067 32.8647 5.66845 32.2822 5.66845H11.2515C10.669 5.66845 10.1968 6.14067 10.1968 6.72314V47.3847H5.70117V26.4592C5.70117 25.8767 5.22895 25.4045 4.64648 25.4045C4.06402 25.4045 3.5918 25.8767 3.5918 26.4592V48.4394C3.5918 49.0219 4.06402 49.4941 4.64648 49.4941H10.1968V51.3038C8.85975 51.6987 7.629 52.4355 6.64533 53.472C3.57942 56.6889 3.68925 61.8024 6.8903 64.8707C8.44561 66.3616 10.4525 67.1022 12.4596 67.1022C14.5818 67.1022 16.7042 66.2736 18.2908 64.6282L22.8789 59.8455L24.7284 66.194C25.3296 68.2594 26.6989 69.967 28.5838 71.0023C29.7881 71.6638 31.1108 72.0001 32.4478 72.0001C33.2035 72.0001 33.9638 71.8926 34.7097 71.6754C38.9667 70.4364 41.4295 65.9545 40.2 61.6854C39.4742 59.1607 37.5576 57.1428 35.0727 56.2875C33.981 55.9124 33.064 55.6462 32.255 55.4112C31.9523 55.3233 31.6777 55.2428 31.4268 55.1665H47.7821V70.0249C47.7821 71.1098 48.6648 71.9924 49.7497 71.9924H66.4396C67.5245 71.9924 68.4071 71.1098 68.4071 70.0249V63.8542V56.0053V47.9092C68.4072 46.8221 67.5247 45.9377 66.4398 45.9377ZM41.5012 32.5065C41.5632 37.3161 39.5571 39.4066 35.6093 43.5198C35.6093 43.5198 28.6761 50.7535 28.2185 51.2311C28.0267 50.698 27.7129 50.2002 27.2767 49.7831C26.8495 49.3732 26.3424 49.0766 25.7914 48.9049C25.7914 48.9049 26.7377 47.9156 26.7419 47.9109L41.5012 32.5065ZM18.9892 26.9833L24.7857 46.9036L22.0972 49.7097L18.7775 38.3047C17.5179 33.993 16.7103 31.2279 18.9892 26.9833ZM16.7705 63.1659C14.49 65.5311 10.7125 65.6127 8.34984 63.3479C5.98608 61.082 5.90634 57.3044 8.17378 54.9255C9.30061 53.7383 10.8646 53.0793 12.4837 53.0793C12.7781 53.0793 13.0747 53.1011 13.3706 53.1456C14.6127 53.3327 15.5874 53.5507 16.4472 53.7431C18.7793 54.2649 20.32 54.6096 22.126 52.7286L23.4465 51.3525C23.7539 51.0331 24.1699 50.8517 24.6187 50.8421C25.0725 50.8335 25.495 50.9968 25.8176 51.3063C26.4795 51.9391 26.508 52.9882 25.8892 53.6611C25.538 54.0273 16.7705 63.1659 16.7705 63.1659ZM34.3867 58.2822C36.2214 58.9136 37.637 60.4036 38.1729 62.2686C39.0816 65.4238 37.2635 68.7351 34.1202 69.6502C32.5958 70.0938 30.9902 69.9175 29.5991 69.1535C28.2081 68.3893 27.1975 67.129 26.7536 65.6044L24.5642 58.089C24.5642 58.089 27.0334 55.5154 27.3673 55.1673C27.3694 55.1652 27.3716 55.1634 27.3737 55.1613C28.2853 56.4542 29.7264 56.8735 31.6669 57.4369C32.453 57.665 33.3438 57.9237 34.3867 58.2822ZM66.2979 62.7995H49.8916V57.06H66.2979V62.7995ZM49.8916 54.9506V48.0471H66.2979V54.9506H49.8916ZM57.8128 29.8845C57.8218 29.8228 57.8494 29.6346 58.0796 29.6294C58.3094 29.6255 58.3641 29.8306 58.3818 29.918L60.1218 40.6479H56.0674C56.0675 40.6478 57.8121 29.8898 57.8128 29.8845ZM53.1088 43.3011C53.2444 42.9403 53.5211 42.7572 53.9312 42.7572H62.2583C62.6683 42.7572 62.9451 42.9403 63.0802 43.2996L64.0666 45.9375H52.1232L53.1088 43.3011ZM49.8916 69.883V64.9088H66.2979V69.883H49.8916Z" fill="#1A202C"/>
</g>
<defs>
<clipPath id="clip0_261_9325">
<rect width="72" height="72" fill="white"/>
</clipPath>
</defs>
</svg>
