<svg width="60" height="65" viewBox="0 0 60 65" fill="none" xmlns="http://www.w3.org/2000/svg">
<path d="M54.4921 28.2374C57.0856 28.0997 59.1607 25.4742 59.1607 22.2671C59.1607 19.3413 57.4336 16.8999 55.1622 16.3887V15.6255C55.3756 15.4204 55.5701 15.1929 55.7421 14.9385C55.8615 14.7617 55.917 14.5489 55.8995 14.3355C55.5959 10.6753 53.9375 7.28077 51.2284 4.77784C48.5048 2.26123 44.9599 0.875 41.2465 0.875H37.1871C29.0769 0.875 22.479 7.46339 22.479 15.5611V15.7671C22.479 16.0581 22.6145 16.333 22.8455 16.5108C23.1749 16.7642 23.5545 16.9771 23.9727 17.1431C24.0068 17.1568 24.0409 17.167 24.075 17.1797V24.0108C24.075 28.1885 25.4678 31.6939 28.1023 34.148C28.8698 34.8629 29.7368 35.4757 30.6822 35.9805C30.2831 36.3751 29.9176 36.7984 29.5881 37.2481C28.4293 37.7286 27.1739 37.9815 25.8776 37.9815C25.6413 37.9815 25.4064 37.9713 25.1729 37.9537V34.984C25.1729 34.0259 24.3918 33.2466 23.4317 33.2466H22.0302C22.017 31.7711 20.8079 30.5743 19.3231 30.5743H14.1671C12.6822 30.5743 11.4727 31.7711 11.4595 33.2466H10.0584C9.09793 33.2466 8.31723 34.0259 8.31723 34.984V48.1236H2.48537C1.52533 48.1236 0.744141 48.9029 0.744141 49.8609V63.1378C0.744141 64.0958 1.52533 64.8751 2.48537 64.8751H36.3761C36.4473 64.8751 36.517 64.8668 36.5842 64.8512C37.3347 64.7701 38.014 64.4581 38.5516 63.9904C39.0886 64.4572 39.7665 64.7692 40.516 64.8507C40.5837 64.8668 40.6549 64.8746 40.7275 64.8746H51.4906C53.9419 64.8746 55.936 62.8912 55.936 60.4528C55.936 58.2589 54.321 56.4342 52.2119 56.0904V54.2496C52.2119 53.732 51.7933 53.3121 51.2762 53.3121C50.7591 53.3121 50.3405 53.732 50.3405 54.2496V56.0314H44.2777C43.7689 54.6549 42.4419 53.6954 40.9083 53.6954C40.0067 53.6954 39.1827 54.0284 38.5511 54.5763C37.92 54.0284 37.0959 53.6954 36.1949 53.6954C34.6612 53.6954 33.3342 54.6549 32.8255 56.0314H32.5842V53.4361C33.2567 53.5226 33.9302 53.5665 34.6018 53.5665C40.5058 53.5665 46.2007 50.2911 48.9731 44.6705C49.382 43.8414 49.4429 42.9044 49.1437 42.0323C48.8439 41.1573 48.2192 40.4527 47.3844 40.0484C45.671 39.2193 43.592 39.9327 42.7499 41.6392C41.9478 43.2652 40.6856 44.5963 39.1003 45.4884C38.6495 45.7418 38.4892 46.3136 38.7421 46.7647C38.9955 47.2164 39.5657 47.377 40.0165 47.1236C41.9322 46.0455 43.4575 44.4366 44.4278 42.4698C44.8162 41.6817 45.7777 41.3536 46.5701 41.7369C46.9521 41.9215 47.2372 42.2428 47.3737 42.6412C47.5092 43.0367 47.4814 43.4625 47.2952 43.8399C44.5321 49.442 38.4794 52.3976 32.5842 51.5392V51.337C33.0506 50.7208 33.3566 49.9762 33.439 49.1568C33.4624 48.9268 33.4658 48.6969 33.4517 48.4688C34.0906 48.5392 34.7358 48.5548 35.3805 48.5108C35.8961 48.4752 36.285 48.0274 36.2499 47.5108C36.2143 46.9942 35.768 46.6065 35.2519 46.6397C34.4366 46.6964 33.6198 46.6368 32.8245 46.4727C32.7972 46.4283 32.7694 46.3839 32.7407 46.3399L31.785 43.8365C31.4975 43.0743 30.7587 42.5626 29.9458 42.5626C29.7865 42.5626 29.6291 42.5836 29.4746 42.6217C29.7148 40.2442 30.8123 38.2354 32.5345 36.7945C33.3747 37.0919 34.2587 37.3145 35.1758 37.4595C35.5681 39.2301 37.1573 40.5596 39.053 40.5596C40.9044 40.5596 42.4634 39.2921 42.901 37.5836C44.3128 37.4381 45.67 37.0762 46.9346 36.5274C49.0745 38.1485 50.34 40.585 50.34 43.5001V49.8751C50.34 50.3927 50.7591 50.8126 51.2757 50.8126C51.7928 50.8126 52.2114 50.3927 52.2114 49.8751V43.5001C52.2114 40.3228 51.0106 37.5909 48.7358 35.5816C51.4034 33.9171 53.4794 31.3487 54.4921 28.2374V28.2374ZM39.189 57.2692C39.189 56.3326 39.9604 55.5704 40.9088 55.5704C41.784 55.5704 42.5179 56.2179 42.6164 57.0758C42.671 57.5494 43.0706 57.9064 43.5457 57.9064H51.4906C52.9102 57.9064 54.0647 59.0489 54.0647 60.4532C54.0647 61.8575 52.9102 63.0001 51.4906 63.0001H40.8566C40.8347 62.9972 40.8128 62.9947 40.7904 62.9933C39.8922 62.9332 39.189 62.1896 39.189 61.3014V57.2692ZM32.5847 57.9064H33.5579C34.0335 57.9064 34.4332 57.5494 34.4873 57.0758C34.5857 56.2179 35.3201 55.5704 36.1953 55.5704C36.7143 55.5704 37.1797 55.7999 37.4955 56.1607C37.3805 56.5099 37.3177 56.8824 37.3177 57.2692V61.3014C37.3177 61.6862 37.3805 62.0577 37.4955 62.4064C37.2046 62.7389 36.787 62.9615 36.3133 62.9933C36.2909 62.9947 36.2689 62.9972 36.247 63.0001H32.5847V57.9064ZM25.1729 39.8336C25.4069 39.8477 25.6418 39.8565 25.8776 39.8565C26.7007 39.8565 27.5087 39.7681 28.2943 39.6016C27.8571 40.7203 27.6028 41.9386 27.5604 43.2325C27.0058 43.2935 26.4444 43.3248 25.8776 43.3248C25.6418 43.3248 25.4069 43.318 25.1729 43.3067V39.8336ZM25.3245 54.044C25.4337 54.044 25.669 54.1773 25.7241 54.2706L26.8918 56.2784C26.9439 56.3692 26.9439 56.629 26.8918 56.7203L25.7241 58.7276C25.669 58.8209 25.4337 58.9547 25.3245 58.9547H22.9892C22.8796 58.9547 22.6442 58.8209 22.5891 58.7276L21.4215 56.7198C21.3693 56.629 21.3693 56.3692 21.4215 56.2784L22.5891 54.2706C22.6442 54.1773 22.8796 54.0436 22.9892 54.0436H25.3245V54.044ZM14.1671 32.4493H19.3231C19.7758 32.4493 20.1452 32.8047 20.1583 33.2466H13.3318C13.345 32.8047 13.7139 32.4493 14.1671 32.4493V32.4493ZM10.1886 35.1216H23.3016V48.1236H10.1886V35.1216ZM15.729 63.0001H2.61548V49.9986H15.729V63.0001ZM30.7134 63.0001H17.6003V49.9986H23.9122C23.8684 50.13 23.8367 50.2672 23.8226 50.4103L23.7962 50.6705C23.7392 51.2433 23.9444 51.7823 24.3138 52.1686H22.9892C22.211 52.1686 21.3625 52.6559 20.9722 53.3268L19.805 55.3346C19.4122 56.0094 19.4122 56.9894 19.805 57.6642L20.9722 59.672C21.363 60.3429 22.211 60.8302 22.9892 60.8302H25.3245C26.1028 60.8302 26.9512 60.3429 27.3411 59.6715L28.5087 57.6642C28.901 56.9894 28.901 56.0099 28.5087 55.3346L27.3416 53.3268C27.2514 53.173 27.1369 53.0289 27.0053 52.8976L28.5886 53.0572C28.7402 53.0724 28.8937 53.0802 29.0453 53.0802C29.6349 53.0802 30.1983 52.9669 30.7134 52.7608V63.0001ZM29.5594 45.8067C29.7524 45.5504 29.8006 45.2125 29.6876 44.9117L29.5945 44.6661C29.5852 44.6417 29.5862 44.6173 29.5969 44.5933C29.6076 44.5699 29.6257 44.5528 29.6505 44.5435L29.9122 44.4444C29.9239 44.44 29.9351 44.4376 29.9463 44.4376C29.9527 44.4376 30.0121 44.4395 30.0365 44.503L31.0326 47.1119C31.0599 47.1847 31.0964 47.253 31.1408 47.3165C31.4809 47.8009 31.6359 48.3883 31.5779 48.9693C31.4497 50.2442 30.361 51.2057 29.0453 51.2057C28.9561 51.2057 28.8659 51.2008 28.7762 51.192L25.6759 50.8795C25.6651 50.8785 25.6573 50.8687 25.6583 50.8585L25.6846 50.5987C25.6861 50.5846 25.6993 50.5811 25.7056 50.5811H25.7061L27.9454 50.8067C28.4585 50.86 28.9181 50.4835 28.9702 49.9684L28.9868 49.8019C29.0121 49.5543 28.9376 49.3067 28.7806 49.1143C28.6237 48.9215 28.3966 48.7994 28.1495 48.7745L25.4161 48.4986C25.4073 48.4976 25.3981 48.4864 25.3991 48.4776L25.4249 48.2179C25.4264 48.2037 25.4405 48.2018 25.4463 48.2003L28.1798 48.4762C28.4268 48.5006 28.6734 48.4264 28.8659 48.2691C29.0579 48.1119 29.1798 47.8844 29.2046 47.6373L29.2212 47.4703C29.2728 46.9552 28.8981 46.4952 28.3839 46.4434L26.1442 46.2179C26.1349 46.2169 26.1257 46.2057 26.1266 46.1964L26.153 45.9366C26.1544 45.9224 26.1686 45.921 26.1739 45.9195L28.7124 46.1754C28.7187 46.1759 28.7304 46.1768 28.7363 46.1778C29.0565 46.2042 29.3669 46.0636 29.5594 45.8067V45.8067ZM39.0535 38.6846C38.2796 38.6846 37.6037 38.2681 37.2402 37.6505C37.4068 37.6553 37.5735 37.6583 37.7416 37.6583H40.862C40.4975 38.272 39.824 38.6846 39.0535 38.6846ZM41.4945 35.7833H37.7416C30.5764 35.7833 25.9463 31.1627 25.9463 24.0108V17.4502C26.8883 17.3672 27.7962 16.9478 28.6335 16.1939C28.7884 16.0547 28.9405 15.9048 29.0911 15.7432C29.1442 15.9214 29.21 16.0923 29.2875 16.2544C29.6851 17.0845 30.3908 17.6685 31.3284 17.9424C32.8513 18.3887 34.3898 17.7334 35.9185 15.9927C36.3011 16.9043 37.0818 17.5743 38.229 17.937C38.7324 18.0957 39.2314 18.1748 39.7246 18.1743C41.362 18.1743 42.9297 17.3047 44.3245 15.6045C44.7977 15.0274 45.1895 14.4282 45.496 13.9004C45.8912 14.4463 46.418 15.0532 47.0862 15.5845C47.4911 15.9058 48.0798 15.8379 48.401 15.4322C48.7221 15.0264 48.6539 14.437 48.2489 14.1153C46.9346 13.0708 46.2986 11.5962 46.2938 11.584C46.148 11.2349 45.8074 11.0078 45.4302 11.0078C45.4278 11.0078 45.4249 11.0078 45.4224 11.0078C45.0423 11.0112 44.7017 11.2451 44.5608 11.5987C44.5384 11.6553 42.2713 17.2481 38.7918 16.1485C37.9341 15.8775 37.1344 15.3399 37.7012 13.4053C37.8337 12.9527 37.6101 12.4717 37.1783 12.2827C36.7475 12.0933 36.2426 12.2549 36.0004 12.6597C34.4814 15.1997 32.9712 16.4707 31.8528 16.1431C31.422 16.0166 31.1432 15.7945 30.9746 15.4434C30.6427 14.7505 30.7582 13.5767 31.2831 12.3037C31.4765 11.834 31.2616 11.2954 30.7982 11.0889C30.3357 10.8828 29.7918 11.083 29.5735 11.542C27.2485 16.4268 25.3021 15.6538 24.6622 15.3999C24.554 15.357 24.4517 15.3096 24.3542 15.2583C24.516 8.334 30.2105 2.75 37.1871 2.75H41.2465C47.7523 2.75 53.2864 7.72316 54.0004 14.1367C53.7401 14.4326 53.4195 14.6455 53.0267 14.7847C52.6393 14.9224 52.2567 15.0215 51.8883 15.0796C51.3781 15.1602 51.0296 15.6402 51.11 16.1519C51.1909 16.6631 51.6695 17.0127 52.1802 16.9317C52.5447 16.8736 52.9166 16.7867 53.2908 16.6714V17.2295C53.2908 17.4795 53.3902 17.7193 53.5671 17.8951C53.7426 18.0694 53.9794 18.167 54.2265 18.167C54.2455 18.1675 54.264 18.1665 54.2869 18.1656C55.9433 18.1729 57.2894 20.0098 57.2894 22.2671C57.2894 24.5284 55.938 26.3682 54.2772 26.3682C54.1704 26.3682 54.0613 26.3599 53.9434 26.3418C53.4706 26.2696 53.0208 26.5655 52.898 27.0279C51.5325 32.1832 46.8435 35.7833 41.4945 35.7833Z" fill="black"/>
<path d="M44.3683 20.4497C43.8512 20.4497 43.4326 20.8691 43.4326 21.3872V22.9248C43.4326 23.4429 43.8512 23.8623 44.3683 23.8623C44.8849 23.8623 45.304 23.4429 45.304 22.9248V21.3872C45.304 20.8691 44.8849 20.4497 44.3683 20.4497Z" fill="black"/>
<path d="M30.5441 20.4497C30.027 20.4497 29.6084 20.8691 29.6084 21.3872V22.9248C29.6084 23.4429 30.027 23.8623 30.5441 23.8623C31.0606 23.8623 31.4797 23.4429 31.4797 22.9248V21.3872C31.4797 20.8691 31.0606 20.4497 30.5441 20.4497Z" fill="black"/>
<path d="M37.456 25.2119H38.0627C38.5797 25.2119 38.9984 24.792 38.9984 24.2744C38.9984 23.7564 38.5797 23.3369 38.0627 23.3369H37.7854V22.4673C37.7854 21.9492 37.3663 21.5298 36.8497 21.5298C36.3327 21.5298 35.9141 21.9492 35.9141 22.4673V23.6494C35.9141 24.5107 36.6056 25.2119 37.456 25.2119Z" fill="black"/>
<path d="M41.1461 26.6958H34.1885C33.2285 26.6958 32.4473 27.4751 32.4473 28.4331C32.4473 31.2954 34.7889 33.624 37.667 33.624C40.5457 33.624 42.8873 31.2954 42.8873 28.4331C42.8873 27.4756 42.1061 26.6958 41.1461 26.6958ZM37.667 31.7495C35.8673 31.7495 34.3941 30.3359 34.321 28.5708H41.0135C40.9399 30.3359 39.4672 31.7495 37.667 31.7495Z" fill="black"/>
<path d="M20.3641 39.4873L18.7242 39.2524L17.9932 37.79C17.7559 37.3149 17.2778 37.0195 16.7452 37.0195C16.2125 37.0195 15.7345 37.3149 15.4971 37.7896L14.7661 39.2524L13.1243 39.4878C12.5975 39.564 12.1667 39.9248 11.9996 40.4307C11.8334 40.9341 11.9738 41.4976 12.3558 41.8648L13.5347 42.999L13.2574 44.5977C13.1662 45.1196 13.3865 45.6563 13.8139 45.9614C14.0527 46.1343 14.3353 46.2256 14.6307 46.2256C14.8558 46.2256 15.08 46.1709 15.2749 46.0684L16.7452 45.3052L18.2106 46.0659C18.4094 46.1704 18.6336 46.2256 18.8592 46.2256C19.155 46.2256 19.4377 46.1343 19.6726 45.9644C20.1039 45.6558 20.3241 45.1192 20.233 44.5977L19.9557 42.999L21.1336 41.8652C21.5161 41.4976 21.6565 40.9341 21.4903 40.4307C21.3246 39.9253 20.8933 39.5645 20.3641 39.4873V39.4873ZM18.3003 41.9927C18.0756 42.2085 17.9733 42.522 18.0269 42.8291L18.2233 43.961L17.1755 43.417C17.041 43.3467 16.8928 43.312 16.7452 43.312C16.5975 43.312 16.4499 43.3467 16.3149 43.417L15.2676 43.961L15.464 42.8291C15.5171 42.522 15.4148 42.2085 15.1901 41.9922L14.3699 41.2031L15.5161 41.0391C15.8198 40.9951 16.0824 40.8052 16.2198 40.5308L16.7452 39.48L17.2705 40.5308C17.408 40.8057 17.6711 40.9956 17.9747 41.0391L19.1204 41.2031L18.3003 41.9927Z" fill="black"/>
<path d="M8.2505 60.4966C8.49757 60.7388 8.82506 60.8726 9.17252 60.8726C9.5195 60.8726 9.84699 60.7393 10.0945 60.4971L13.4435 57.2149C14.0175 56.6524 14.3338 55.9024 14.3338 55.1025C14.3338 54.3027 14.0175 53.5527 13.4435 52.9902C12.8743 52.4326 12.1194 52.126 11.3177 52.126C10.5161 52.126 9.76073 52.4331 9.19202 52.9902L9.17252 53.0093L9.15352 52.9902C8.58481 52.4331 7.82945 52.126 7.02779 52.126C6.22565 52.126 5.47078 52.4326 4.90207 52.9902C4.32799 53.5527 4.01172 54.3027 4.01172 55.1025C4.01172 55.9024 4.32799 56.6524 4.90207 57.2153L8.2505 60.4966ZM6.21006 54.3306C6.42692 54.1177 6.71736 54.0005 7.0273 54.0005C7.33725 54.0005 7.62769 54.1177 7.84504 54.3306L8.51804 54.9907C8.88159 55.3467 9.46297 55.3467 9.82652 54.9907L10.5 54.3311C10.7174 54.1182 11.0073 54.0005 11.3177 54.0005C11.6277 54.0005 11.9176 54.1177 12.135 54.3306C12.346 54.5371 12.462 54.8115 12.462 55.1025C12.4625 55.3936 12.346 55.668 12.135 55.8745L9.17252 58.7774L6.21006 55.8745C5.99904 55.668 5.88257 55.3936 5.88306 55.1025C5.88306 54.8115 5.99904 54.5371 6.21006 54.3306Z" fill="black"/>
<path d="M54.1985 25.2042C54.3486 25.2042 54.5011 25.1681 54.6425 25.0914C56.641 24.0094 56.314 21.7428 55.8622 20.6954C55.6571 20.2203 55.1064 20.0011 54.6317 20.2071C54.1576 20.4127 53.9392 20.9644 54.1444 21.4395C54.1702 21.4986 54.7594 22.8971 53.7526 23.442C53.2979 23.6881 53.1288 24.2569 53.3744 24.7125C53.5435 25.026 53.8657 25.2042 54.1985 25.2042Z" fill="black"/>
</svg>
