<svg width="64" height="64" viewBox="0 0 64 64" fill="none" xmlns="http://www.w3.org/2000/svg">
<path d="M58.9002 41.9999H16.2002C15.6002 41.9999 15.2002 41.5999 15.2002 40.9999V2.89996C15.2002 2.2999 15.6002 1.8999 16.2002 1.8999H58.9003C59.5004 1.8999 59.9004 2.2999 59.9004 2.89996V41C59.9002 41.5999 59.5002 41.9999 58.9002 41.9999ZM17.2002 40H57.9001V3.90001H17.2002V40Z" fill="#1A202C"/>
<path d="M61.0996 46.4001H14.0997C13.4996 46.4001 13.0996 46.0001 13.0996 45.4V41.0001C13.0996 40.4 13.4996 40 14.0997 40H61.0996C61.6997 40 62.0997 40.4 62.0997 41.0001V45.4C62.0995 46.0001 61.5997 46.4001 61.0996 46.4001ZM15.0996 44.4H60.0996V42H15.0996V44.4Z" fill="#1A202C"/>
<path d="M12.1999 21.0001C15.4999 22.7001 19.2999 22.7001 22.5999 21.0001C23.4999 23.8 25.7999 24.7 26.7999 25C26.7999 19.4001 22.5999 14.8 17.4 14.8C12.2 14.8 8 19.4001 8 25C9.09996 24.7 11.3 23.8 12.1999 21.0001Z" fill="#F8E6DA"/>
<path d="M26.8001 25C25.8 24.7 23.6001 23.8 22.6 21C19.3 22.7 15.5 22.7 12.2 21C11.3 23.8 9.00005 24.7 8 25V25.1C8 30.6999 12.2 35.9 17.4 35.9C22.5 35.9 26.6999 30.7001 26.7999 25.1C26.8001 25.1 26.8001 25 26.8001 25Z" fill="#F8E6DA"/>
<path d="M26.7997 37.3001L24.7997 36.3C22.6997 38.1001 20.0997 39.1 17.3997 39.1C14.6998 39.1 12.0997 38.0001 9.99973 36.3L7.99975 37.3001C4.79978 38.9001 2.7998 42.2001 2.7998 45.7001V56.4001H31.9998V45.7001C31.9996 42.2001 29.9997 38.9001 26.7997 37.3001Z" fill="#F8E6DA"/>
<path d="M26.7999 26.0001C26.6998 26.0001 26.5998 26.0001 26.4999 26.0001C25.4998 25.7002 23.2999 24.8001 22.0999 22.4002C19.0999 23.6001 15.7 23.6001 12.7 22.4002C11.5 24.8001 9.29994 25.7002 8.30002 26.0001C8.00005 26.1002 7.69996 26.0001 7.4 25.8001C7.10003 25.6 7 25.3 7 25.0001C7 18.8001 11.7 13.8 17.4 13.8C23 13.8 27.6 18.7 27.8 24.8C27.8 24.9 27.8 24.9 27.8 25.0001C27.7999 25.6001 27.3999 26.0001 26.7999 26.0001ZM22.5998 20.0002C22.6999 20.0002 22.8998 20.0002 22.9998 20.1002C23.2998 20.2002 23.4999 20.4002 23.5999 20.7003C24.0999 22.1003 24.8999 22.9003 25.6999 23.4002C24.9999 19.1002 21.5999 15.8002 17.4999 15.8002C13.3999 15.8002 9.99991 19.1002 9.29994 23.4002C10.0999 22.9002 10.8999 22.1002 11.4 20.7003C11.5 20.4003 11.6999 20.2002 12 20.1002C12.3001 20.0002 12.6001 20.0002 12.8 20.1002C15.7 21.6002 19.4 21.6002 22.3 20.1002C22.2999 20.0002 22.4998 20.0002 22.5998 20.0002Z" fill="#1A202C"/>
<path d="M17.4 36.9006C11.8001 36.9006 7.10003 31.5006 7 25.1007V25.0007C7 24.6007 7.29996 24.1006 7.69996 24.0006C8.49995 23.8005 10.3999 23.0005 11.2 20.6006C11.3001 20.3006 11.5 20.1005 11.8001 20.0005C12.1002 19.9005 12.4001 19.9005 12.6001 20.0005C15.5001 21.5005 19.2001 21.5005 22.1001 20.0005C22.4 19.9005 22.7001 19.8005 22.9001 20.0005C23.2 20.1005 23.4001 20.3005 23.5001 20.6006C24.3001 22.9005 26.2001 23.7005 27.0002 24.0006C27.4002 24.1006 27.7002 24.5006 27.7002 25.0007V25.1007C27.7 31.5006 23 36.9006 17.4 36.9006ZM9.10001 25.7006C9.39998 30.7006 13.2 34.9007 17.4 34.9007C21.6001 34.9007 25.4001 30.7006 25.7 25.7006C24.6001 25.2006 23.0001 24.3006 22 22.4006C19 23.6006 15.6001 23.6006 12.6001 22.4006C11.8 24.3006 10.2 25.2006 9.10001 25.7006Z" fill="#1A202C"/>
<path d="M32.0004 57.4004H2.90045C2.30039 57.4004 1.90039 57.0004 1.90039 56.4003V45.7003C1.90039 41.8003 4.10043 38.2003 7.60037 36.4004L9.60035 35.4003C10.0003 35.2003 10.4003 35.3003 10.7003 35.5004C12.7003 37.2004 15.1003 38.1004 17.5004 38.1004C19.9005 38.1004 22.3003 37.2004 24.3004 35.5004C24.6004 35.2004 25.0004 35.2004 25.4004 35.4003L27.4004 36.4004C30.9004 38.2004 33.1003 41.8004 33.1003 45.7003V56.4003C33.0004 57.0004 32.5004 57.4004 32.0004 57.4004ZM3.9005 55.4004H31.0005V45.7004C31.0005 42.5005 29.2004 39.6005 26.4004 38.2004L25.0004 37.5005C22.7004 39.2005 20.1004 40.1005 17.5004 40.1005C14.8004 40.1005 12.2004 39.2005 10.0003 37.5005L8.60029 38.2004C5.80032 39.7004 4.00027 42.5005 4.00027 45.7004V55.4004H3.9005Z" fill="#1A202C"/>
<path d="M13.4004 45.7004H11.4004V47.6004H13.4004V45.7004Z" fill="#1A202C"/>
<path d="M18.4004 45.7004H16.4004V47.6004H18.4004V45.7004Z" fill="#1A202C"/>
<path d="M23.5 45.7004H21.5V47.6004H23.5V45.7004Z" fill="#1A202C"/>
<path d="M35 28.8H33V30.7H35V28.8Z" fill="#1A202C"/>
<path d="M42.0996 28.8H40.0996V30.7H42.0996V28.8Z" fill="#1A202C"/>
<path d="M49.2998 28.8H47.2998V30.7H49.2998V28.8Z" fill="#1A202C"/>
<path d="M40.4002 56.4999C38.1003 56.4999 36.2002 54.5999 36.2002 52.2999C36.2002 49.9999 38.1001 48.0999 40.4002 48.0999C42.7002 48.0999 44.6002 49.9998 44.6002 52.2999C44.6002 54.5999 42.7003 56.4999 40.4002 56.4999ZM40.4002 50.1C39.2002 50.1 38.2002 51.1 38.2002 52.3C38.2002 53.5 39.2002 54.5 40.4002 54.5C41.6002 54.5 42.6003 53.5 42.6003 52.3C42.6003 51.0999 41.6002 50.1 40.4002 50.1Z" fill="#1A202C"/>
<path d="M45.9999 62.0998H34.7999C34.1998 62.0998 33.7998 61.6998 33.7998 61.0998C33.7998 57.4998 36.7998 54.4998 40.3998 54.4998C43.9998 54.4998 46.9998 57.3998 46.9998 61.0998C46.9998 61.5999 46.4998 62.0998 45.9999 62.0998ZM35.8998 60.0998H44.7998C44.2997 58.0999 42.4998 56.4999 40.2998 56.4999C38.1998 56.4999 36.3998 58.0999 35.8998 60.0998Z" fill="#1A202C"/>
<path d="M55.4998 56.4999C53.1999 56.4999 51.2998 54.5999 51.2998 52.2999C51.2998 49.9999 53.1998 48.0999 55.4998 48.0999C57.7998 48.0999 59.6999 49.9998 59.6999 52.2999C59.6999 54.5999 57.7999 56.4999 55.4998 56.4999ZM55.4998 50.1C54.2998 50.1 53.2998 51.1 53.2998 52.3C53.2998 53.5 54.2998 54.5 55.4998 54.5C56.6998 54.5 57.6999 53.5 57.6999 52.3C57.6999 51.0999 56.6999 50.1 55.4998 50.1Z" fill="#1A202C"/>
<path d="M61.0995 62.0998H49.8995C49.2994 62.0998 48.8994 61.6998 48.8994 61.0998C48.8994 57.4998 51.8994 54.4998 55.4994 54.4998C59.0994 54.4998 62.0994 57.3998 62.0994 61.0998C62.0994 61.5999 61.5995 62.0998 61.0995 62.0998ZM50.9994 60.0998H59.9994C59.4994 58.0999 57.6995 56.4999 55.4994 56.4999C53.2994 56.4999 51.4994 58.0999 50.9994 60.0998Z" fill="#1A202C"/>
<path d="M31.8999 18.8L31.2 20.2999H30L32.9 13.7H34.1L37 20.2999H35.8L35.1 18.8H31.8999ZM34.6999 17.7L33.4999 15.0001L32.2999 17.7H34.6999Z" fill="#1A202C"/>
<path d="M41.8004 20.2999H38.9004V13.7H41.5004C41.9004 13.7 42.3004 13.8 42.7004 13.9C43.0004 14 43.3005 14.2 43.4004 14.3C43.7003 14.6 43.9004 15 43.9004 15.5C43.9004 16 43.7003 16.4 43.4004 16.7C43.3003 16.8 43.2003 16.8 43.2003 16.9C43.2003 16.9 43.1003 17.0001 43.0003 17.0001C43.4002 17.1001 43.7002 17.3 44.0003 17.6001C44.2004 17.9001 44.4003 18.2002 44.4003 18.6002C44.4003 19.1002 44.2002 19.5002 43.9003 19.8002C43.3003 20 42.7004 20.2999 41.8004 20.2999ZM40.0003 16.3999H41.4004C42.2004 16.3999 42.6004 16.0999 42.6004 15.5999C42.6004 15.2999 42.5004 15.0999 42.3004 14.8999C42.1004 14.7999 41.8004 14.6999 41.4004 14.6999H40.0003V16.3999ZM40.0003 19.1999H41.7004C42.1004 19.1999 42.4003 19.0998 42.6004 18.9998C42.8004 18.8998 42.9003 18.5998 42.9003 18.2998C42.9003 17.6998 42.4003 17.3998 41.5003 17.3998H40.0003V19.1999Z" fill="#1A202C"/>
<path d="M49.4996 19.1999C49.8996 19.1999 50.1996 19.0999 50.4997 18.9999C50.7997 18.8998 51.0998 18.6999 51.3997 18.3998L52.0997 19.0998C51.3997 19.8998 50.5997 20.2998 49.5997 20.2998C48.5996 20.2998 47.7996 19.9998 47.0997 19.2997C46.3997 18.6996 46.0996 17.7997 46.0996 16.8997C46.0996 15.9997 46.3996 15.0997 47.0997 14.3997C47.7996 13.6998 48.5996 13.3997 49.5997 13.3997C50.5997 13.3997 51.4996 13.7997 52.1997 14.4996L51.4997 15.2996C51.1998 14.9996 50.8997 14.7996 50.5997 14.6995C50.2998 14.5995 49.9997 14.4995 49.5997 14.4995C48.8997 14.4995 48.3997 14.6995 47.8997 15.0995C47.3996 15.4995 47.1997 16.0996 47.1997 16.7996C47.1997 17.4995 47.3998 17.9995 47.8997 18.4996C48.3997 19 48.8996 19.1999 49.4996 19.1999Z" fill="#1A202C"/>
</svg>
