<svg width="72" height="72" viewBox="0 0 72 72" fill="none" xmlns="http://www.w3.org/2000/svg">
<path d="M54.6301 41.7921H49.1678C48.6941 41.7921 48.2522 42.0306 47.9924 42.4266C47.7323 42.8226 47.6892 43.323 47.8776 43.7575C48.1475 44.3804 48.2642 45.0457 48.2243 45.7348C48.0992 47.8973 46.3764 49.6409 44.2169 49.7903C43.0002 49.8738 41.8416 49.4656 40.9556 48.6387C40.0687 47.811 39.5803 46.6875 39.5803 45.4754C39.5803 44.8778 39.6996 44.2999 39.9347 43.7573C40.123 43.3227 40.0798 42.8225 39.8199 42.4265C39.5599 42.0305 39.1181 41.792 38.6445 41.792H30.2082V36.587C30.6326 36.6383 31.0642 36.6517 31.5007 36.6264C35.0729 36.4198 37.9529 33.5734 38.1997 30.0053C38.3383 28.002 37.6632 26.0933 36.2987 24.6311C34.953 23.1891 33.0505 22.3621 31.079 22.3621C30.7858 22.3621 30.4952 22.3795 30.2081 22.4144V15.8025C30.2081 15.0258 29.5785 14.3962 28.8018 14.3962H4.38019C1.96509 14.3962 0.000140625 16.3611 0.000140625 18.7763V40.2243C0.000140625 41.3711 0.44325 42.4163 1.16719 43.1979C0.443109 43.9798 0 45.0251 0 46.172V67.62C0 70.0351 1.96495 72 4.38005 72H54.63C57.0451 72 59.01 70.0351 59.01 67.62V46.172C59.01 43.7625 57.0499 41.7977 54.6301 41.7921ZM2.81264 18.7766C2.81264 17.9123 3.51577 17.209 4.38019 17.209H27.3957V24.2389C27.3957 24.7126 27.6342 25.1545 28.0302 25.4145C28.4264 25.6745 28.9266 25.7175 29.3612 25.5291C29.9036 25.294 30.4816 25.1749 31.0791 25.1749C32.2914 25.1749 33.4149 25.6633 34.2425 26.5502C35.0692 27.4361 35.4783 28.5943 35.3939 29.8114C35.2444 31.9709 33.501 33.6936 31.3384 33.8188C30.6491 33.8583 29.9839 33.7419 29.3612 33.472C28.9266 33.2836 28.4264 33.3268 28.0302 33.5866C27.6342 33.8466 27.3957 34.2885 27.3957 34.7623V41.7921H20.3659C19.8921 41.7921 19.4503 42.0306 19.1903 42.4266C18.9302 42.8226 18.8872 43.323 19.0756 43.7575C19.3108 44.2999 19.43 44.878 19.43 45.4754C19.43 46.6877 18.9416 47.8111 18.0547 48.6389C17.1688 49.4656 16.0096 49.874 14.7936 49.7904C12.634 49.6409 10.9112 47.8975 10.7862 45.735C10.7464 45.0459 10.863 44.3805 11.133 43.7576C11.3214 43.323 11.2783 42.8227 11.0182 42.4267C10.7582 42.0307 10.3164 41.7922 9.84276 41.7922H4.38539C4.38356 41.7922 4.38188 41.7922 4.38005 41.7922C4.37892 41.7922 4.37766 41.7922 4.37653 41.7922C3.5138 41.7903 2.81264 41.0879 2.81264 40.2248V18.7766ZM27.3956 69.1875H4.38005C3.51562 69.1875 2.8125 68.4844 2.8125 67.62V46.172C2.8125 45.3089 3.5138 44.6064 4.37653 44.6045H4.38019H8.01759C7.96613 45.0289 7.95291 45.4603 7.97808 45.8971C8.1848 49.4692 11.0312 52.3491 14.5991 52.596C14.771 52.608 14.942 52.6138 15.1121 52.6138C16.9265 52.6138 18.6366 51.9424 19.9734 50.6949C21.4154 49.3493 22.2424 47.4468 22.2424 45.4752C22.2424 45.182 22.2249 44.8915 22.1901 44.6043H27.3956V51.634C27.3956 52.1078 27.6341 52.5496 28.0301 52.8095C28.4261 53.0697 28.9264 53.1128 29.361 52.9243C29.9839 52.6544 30.6487 52.538 31.3383 52.5776C33.5008 52.7026 35.2444 54.4254 35.3939 56.585C35.4781 57.802 35.0692 58.9602 34.2425 59.8461C33.4147 60.733 32.2914 61.2214 31.079 61.2214C30.4815 61.2214 29.9035 61.1022 29.361 60.8672C28.9266 60.679 28.4262 60.7219 28.0301 60.9819C27.6341 61.242 27.3956 61.6838 27.3956 62.1574V69.1875ZM56.1975 67.62C56.1975 68.4844 55.4943 69.1875 54.63 69.1875H30.2081V63.9819C30.4952 64.0168 30.7858 64.0342 31.079 64.0342C33.0505 64.0342 34.953 63.2072 36.2987 61.7652C37.6632 60.303 38.3383 58.3944 38.1998 56.391C37.9529 52.823 35.0729 49.9766 31.5008 49.7699C31.0641 49.7445 30.6326 49.7578 30.2082 49.8093V44.6043H36.8204C36.7855 44.8915 36.7681 45.182 36.7681 45.4752C36.7681 47.4468 37.5951 49.3492 39.0371 50.6948C40.4993 52.0594 42.4076 52.735 44.4113 52.5959C47.9793 52.3491 50.8257 49.4691 51.0324 45.8969C51.0577 45.46 51.0443 45.0287 50.993 44.6043H54.6342C55.4964 44.6063 56.1978 45.3096 56.1978 46.1719V67.62H56.1975Z" fill="#1A202C"/>
<path d="M67.62 0H43.1982C42.4216 0 41.792 0.629578 41.792 1.40625V9.8422C41.792 10.316 42.0305 10.7578 42.4265 11.0177C42.8224 11.2776 43.3227 11.3207 43.7574 11.1324C44.2998 10.8975 44.8777 10.7782 45.4752 10.7782C46.6876 10.7782 47.811 11.2666 48.6387 12.1535C49.4655 13.0395 49.8744 14.1978 49.7902 15.4147C49.6407 17.5742 47.8972 19.297 45.7346 19.4221C45.0453 19.4622 44.3805 19.3454 43.7574 19.0755C43.3228 18.8875 42.8225 18.9305 42.4265 19.1904C42.0305 19.4504 41.792 19.8923 41.792 20.3659V28.8018C41.792 29.5785 42.4216 30.2081 43.1982 30.2081H49.8101C49.7753 30.4952 49.7578 30.7858 49.7578 31.079C49.7578 33.0505 50.5848 34.953 52.0268 36.2987C53.3637 37.5463 55.0736 38.2177 56.8881 38.2175C57.0582 38.2175 57.2294 38.2116 57.4011 38.1998C60.969 37.9529 63.8154 35.0729 64.022 31.5008C64.0473 31.0642 64.0339 30.6326 63.9826 30.2082H67.62C70.0351 30.2082 72.0001 28.2433 72.0001 25.8282V21.823C72.0001 21.0464 71.3705 20.4168 70.5938 20.4168C69.8171 20.4168 69.1876 21.0464 69.1876 21.823V25.8282C69.1876 26.6926 68.4844 27.3957 67.62 27.3957H62.1577C61.684 27.3957 61.2421 27.6342 60.9822 28.0302C60.7222 28.4262 60.6791 28.9266 60.8675 29.3611C61.1373 29.9841 61.2541 30.6494 61.2141 31.3384C61.0891 33.501 59.3663 35.2446 57.2069 35.394C55.9903 35.4774 54.8316 35.0693 53.9456 34.2426C53.0587 33.4149 52.5703 32.2914 52.5703 31.0791C52.5703 30.4816 52.6896 29.9036 52.9246 29.3611C53.113 28.9264 53.0698 28.4262 52.8098 28.0302C52.5498 27.6342 52.108 27.3957 51.6343 27.3957H44.6045V22.1906C45.0288 22.2421 45.4602 22.2552 45.8968 22.23C49.469 22.0234 52.349 19.177 52.5959 15.6091C52.7346 13.6056 52.0594 11.697 50.6948 10.2348C49.3492 8.79286 47.4467 7.96584 45.4751 7.96584C45.1819 7.96584 44.8915 7.98342 44.6044 8.01816V2.8125H67.6199C68.4844 2.8125 69.1876 3.51577 69.1876 4.38005V9.1087C69.1876 9.88538 69.8171 10.515 70.5938 10.515C71.3705 10.515 72.0001 9.88538 72.0001 9.1087V4.38005C72.0001 1.96495 70.0351 0 67.62 0V0Z" fill="#1A202C"/>
<path d="M71.7621 14.7109C71.4315 14.2064 70.7847 13.9757 70.2076 14.1406C69.6492 14.3001 69.2422 14.7987 69.1924 15.3766C69.1421 15.96 69.4806 16.5311 70.013 16.7724C70.5413 17.0118 71.1777 16.8948 71.5877 16.4855C72.057 16.0174 72.1288 15.2613 71.7621 14.7109Z" fill="#1A202C"/>
</svg>
