<svg width="64" height="64" viewBox="0 0 64 64" fill="none" xmlns="http://www.w3.org/2000/svg">
<path d="M63.2931 51.5745C63.1865 50.375 62.2481 49.4627 61.1631 49.5005C59.1384 49.5679 57.4349 50.5739 56.4475 51.5514C55.289 50.755 53.1732 49.4673 50.4967 48.5624C50.3076 43.0157 48.5555 37.8634 45.8428 34.0283C46.708 32.84 47.33 31.4682 47.7018 29.9177C48.0334 29.9932 48.3735 30.0319 48.7146 30.0319C51.2324 30.0319 53.2808 27.9835 53.2808 25.4658C53.2808 22.948 51.2324 20.8997 48.7146 20.8997C48.2711 20.8997 47.8334 20.9639 47.4137 21.0888C46.6912 18.5159 45.4205 16.121 43.7325 14.1382C44.7945 13.81 45.6421 13.2078 46.1246 12.3489C46.9471 10.884 46.5426 9.02766 45.0409 7.38166C44.9435 7.27541 44.9435 7.15353 45.0423 7.04566C46.5426 5.40116 46.9471 3.54478 46.1245 2.07966C44.8489 -0.190717 41.0249 -0.672342 37.4196 0.982783C36.7465 1.29103 35.7139 1.87041 34.7076 2.61116C34.0225 1.90128 33.0624 1.45841 32.0001 1.45841C30.9379 1.45841 29.9779 1.90128 29.2926 2.61116C28.2864 1.87041 27.2539 1.29116 26.5814 0.983158C22.9753 -0.672342 19.1513 -0.190842 17.8755 2.07991C17.053 3.54478 17.4575 5.40103 18.9594 7.04728C19.0568 7.15353 19.0568 7.27541 18.9579 7.38316C17.4575 9.02753 17.053 10.8839 17.8756 12.349C18.3581 13.2078 19.2056 13.81 20.2676 14.138C18.5796 16.1209 17.3089 18.5157 16.5865 21.0885C16.1668 20.9637 15.7291 20.8994 15.2856 20.8994C12.7679 20.8994 10.7195 22.9478 10.7195 25.4655C10.7195 27.9833 12.7679 30.0317 15.2856 30.0317C15.6268 30.0317 15.967 29.9929 16.2985 29.9174C16.6704 31.4683 17.2925 32.8404 18.158 34.0289C17.5183 34.9329 16.9318 35.907 16.4115 36.9358C16.1779 37.3978 16.363 37.9618 16.825 38.1954C16.9606 38.264 17.1051 38.2965 17.2474 38.2965C17.5898 38.2965 17.9196 38.1083 18.0848 37.7819C18.4934 36.9738 18.9459 36.2038 19.4341 35.4799C19.9134 35.9358 20.4396 36.3552 21.0143 36.7363C20.9733 36.9355 20.9431 37.1365 20.9291 37.3392C20.8359 38.6612 21.2909 39.9325 22.2104 40.919C23.4283 42.2259 25.3246 42.8479 27.2046 42.4418C28.1291 44.1283 29.9911 45.2087 32.0003 45.2087C34.0094 45.2087 35.8713 44.1285 36.7959 42.4419C38.651 42.8434 40.5565 42.2429 41.7903 40.919C42.7096 39.9327 43.1646 38.6613 43.0715 37.3403C43.0575 37.1372 43.0273 36.9358 42.9863 36.7364C43.5613 36.355 44.0879 35.9353 44.5672 35.4792C48.0532 40.6503 49.5918 48.1225 48.0271 55.2387C46.5876 53.8595 44.6667 53.1824 42.4779 53.294C42.983 50.5404 42.9243 47.6364 42.2791 44.803C42.1643 44.2983 41.6618 43.9823 41.1569 44.097C40.652 44.212 40.336 44.7144 40.4509 45.2193C41.3695 49.2538 40.9895 53.4363 39.3806 56.9963C39.1138 57.5872 38.9779 58.2043 38.9593 58.8154C34.337 58.4963 29.6666 58.4963 25.0444 58.8152C25.0246 58.1949 24.8826 57.5785 24.6194 56.9959C24.2123 56.0952 23.8843 55.1544 23.6356 54.1863C23.6351 54.1842 23.6345 54.182 23.634 54.1799C22.9019 51.3243 22.8636 48.2307 23.5491 45.219C23.664 44.7143 23.348 44.2118 22.8431 44.0969C22.3384 43.982 21.8359 44.298 21.721 44.8029C21.076 47.6364 21.0173 50.5405 21.5224 53.294C19.3334 53.1824 17.4126 53.8597 15.9733 55.2387C15.1349 51.4239 15.1583 47.3853 16.0404 43.5097C16.1798 42.8972 16.3421 42.2852 16.523 41.6908C16.6738 41.1954 16.3943 40.6717 15.8989 40.521C15.4034 40.37 14.8798 40.6498 14.7291 41.145C14.5354 41.782 14.3614 42.4375 14.2121 43.0934C13.8005 44.9017 13.5664 46.7348 13.504 48.5619C10.828 49.4665 8.71225 50.754 7.55288 51.551C6.56425 50.5728 4.86125 49.5675 2.8375 49.5002C1.748 49.4623 0.813876 50.3747 0.707376 51.5745C0.472501 54.2308 0.762126 57.9755 1.445 61.1147C1.65888 62.099 2.25 62.931 3.10925 63.4573C3.69488 63.8159 4.35038 63.9995 5.01738 63.9995C5.33225 63.9995 5.64975 63.9585 5.9635 63.8758C9.40263 62.97 12.8846 62.2382 16.3244 61.6934C17.2089 62.9672 18.6739 63.7563 20.2586 63.7563C20.9403 63.7563 21.6029 63.613 22.228 63.3305C23.3735 62.8129 24.2524 61.8867 24.7111 60.7192C29.5523 60.362 34.4508 60.3622 39.2919 60.7194C39.7325 61.8399 40.5913 62.7972 41.7721 63.3309C42.3965 63.6135 43.0594 63.7569 43.7424 63.7569C45.3275 63.7569 46.7924 62.9674 47.6761 61.6933C48.8057 61.8715 49.94 62.0692 51.0569 62.2849C51.117 62.2965 51.1768 62.3022 51.2358 62.3022C51.6759 62.3022 52.0686 61.9905 52.1551 61.5423C52.2534 61.0339 51.9209 60.5422 51.4125 60.444C50.4619 60.2604 49.4986 60.0895 48.5364 59.9322C49.7255 56.9779 50.3848 53.7929 50.4975 50.5523C52.823 51.4193 54.6289 52.5617 55.5674 53.2229C56.2243 53.6868 57.0999 53.595 57.6507 53.0033C58.3491 52.25 59.6549 51.4265 61.2257 51.3742C61.268 51.3704 61.4043 51.5003 61.4255 51.7398C61.645 54.2232 61.3694 57.7467 60.7233 60.7167C60.619 61.1965 60.3309 61.602 59.912 61.8585C59.4904 62.1168 58.9941 62.1895 58.5139 62.0628C57.5807 61.8177 56.6264 61.5798 55.6772 61.3558C55.173 61.2367 54.6684 61.5489 54.5495 62.0528C54.4305 62.5567 54.7426 63.0617 55.2465 63.1805C56.1804 63.4009 57.1192 63.635 58.0365 63.8759C58.3505 63.9588 58.668 63.9997 58.983 63.9997C59.65 63.9997 60.3056 63.816 60.8911 63.4575C61.7504 62.9313 62.3415 62.0993 62.5554 61.115C63.2384 57.9759 63.528 54.2312 63.2931 51.5745V51.5745ZM38.2011 2.68703C40.5001 1.63166 43.6483 1.49966 44.4899 2.99778C44.8973 3.72316 44.586 4.76391 43.6588 5.78028C42.9094 6.59778 42.9094 7.83078 43.6572 8.64678C44.5859 9.66466 44.8973 10.7055 44.49 11.4307C43.723 12.7957 39.9673 13.4707 35.6385 10.1725C35.842 9.40741 35.7352 8.98153 35.765 7.18641C36.1122 7.14028 36.4254 7.12991 36.7205 7.15416C37.4565 7.21591 38.3187 7.59691 38.5861 8.30928C38.7272 8.68553 39.0845 8.91766 39.4639 8.91766C39.5732 8.91766 39.6848 8.89841 39.7931 8.85766C40.2779 8.67578 40.5234 8.13528 40.3414 7.65066C39.8531 6.34953 38.4933 5.42141 36.8764 5.28591C36.5191 5.25628 36.1532 5.26078 35.765 5.29916V5.22328C35.765 4.88903 35.7206 4.56503 35.6385 4.25628C36.6485 3.48653 37.6883 2.92191 38.2011 2.68703V2.68703ZM35.5936 15.2952C35.1732 15.1289 34.7901 14.9088 34.4688 14.6454C34.1138 14.3549 33.6265 14.2754 33.1974 14.4379C32.7705 14.5998 32.46 14.9798 32.3875 15.4278C32.2291 16.3932 32.3174 17.4277 32.6274 18.3848C30.3648 17.9298 28.4028 16.7947 27.2553 15.2447C26.8736 14.7285 26.5519 14.1684 26.2908 13.5738C27.3088 13.1398 28.4239 12.4569 29.2925 11.8174C29.9776 12.5273 30.9377 12.9702 32 12.9702C33.0623 12.9702 34.0224 12.5273 34.7075 11.8174C34.933 11.9834 35.1595 12.1414 35.3833 12.2898C35.2466 13.2917 35.3192 14.3184 35.5936 15.2952V15.2952ZM32.0001 3.33328C33.0423 3.33328 33.89 4.18103 33.89 5.22316V9.20566C33.89 10.2478 33.0421 11.0955 32.0001 11.0955C30.958 11.0955 30.1103 10.2478 30.1103 9.20566V5.22316C30.1103 4.18103 30.958 3.33328 32.0001 3.33328ZM19.5104 11.4308C19.103 10.7054 19.4143 9.66466 20.3415 8.64828C21.0909 7.83078 21.0909 6.59766 20.343 5.78191C19.4144 4.76391 19.103 3.72316 19.5103 2.99803C20.352 1.49966 23.5001 1.63153 25.8 2.68753C26.3121 2.92203 27.3518 3.48666 28.3618 4.25616C28.2796 4.56491 28.2353 4.88891 28.2353 5.22316V5.29903C27.8469 5.26053 27.4808 5.25603 27.1231 5.28591C25.507 5.42128 24.1471 6.34953 23.6589 7.65066C23.4769 8.13541 23.7224 8.67578 24.2071 8.85766C24.3156 8.89841 24.4269 8.91766 24.5364 8.91766C24.9159 8.91766 25.273 8.68553 25.4141 8.30928C25.6815 7.59691 26.5438 7.21578 27.279 7.15416C27.5745 7.12966 27.8878 7.14003 28.2353 7.18616V9.20553C28.2353 9.53978 28.2796 9.86378 28.3618 10.1724C24.034 13.4699 20.2774 12.7962 19.5104 11.4308V11.4308ZM37.1092 40.5907C36.3479 40.401 35.5464 40.759 35.2035 41.442C34.6264 42.5914 33.369 43.3339 32.0001 43.3339C30.6313 43.3339 29.3739 42.5913 28.7968 41.442C28.4538 40.7589 27.6525 40.4008 26.896 40.5893C25.6875 40.8835 24.4044 40.5235 23.5818 39.6408C23.081 39.1035 22.8066 38.4315 22.7935 37.7253C25.2724 38.8719 28.3604 39.4539 32.0001 39.4539C35.6399 39.4539 38.7279 38.8719 41.2068 37.7253C41.1938 38.431 40.9194 39.1033 40.4184 39.6408C39.5874 40.5328 38.2975 40.8799 37.1092 40.5907V40.5907ZM32.0001 37.5792C26.2293 37.5792 19.1039 36.0068 17.9318 28.5157C17.8848 28.2152 17.6949 27.956 17.4223 27.8209C17.1498 27.6858 16.8286 27.691 16.5608 27.8354C16.165 28.0488 15.7359 28.1569 15.2856 28.1569C13.8018 28.1569 12.5945 26.9497 12.5945 25.4657C12.5945 23.9818 13.8018 22.7744 15.2856 22.7744C15.7963 22.7744 16.2939 22.9189 16.7245 23.1922C16.9834 23.3565 17.3063 23.3839 17.5891 23.2653C17.872 23.1467 18.079 22.8974 18.1434 22.5977C18.8143 19.4767 20.3776 16.5903 22.5575 14.4252C23.1834 14.4079 23.8376 14.321 24.5025 14.1638C24.831 14.9474 25.2478 15.6835 25.748 16.3599C27.372 18.5537 30.2513 20.066 33.4481 20.4053C33.4944 20.4103 33.5405 20.4128 33.5863 20.4128C34.0065 20.4128 34.4018 20.206 34.6413 19.8532C34.9101 19.457 34.9379 18.9474 34.7124 18.5203C34.416 17.9638 34.2394 17.3362 34.1953 16.7102C34.8401 17.0615 35.565 17.307 36.3356 17.4322C36.8054 17.5099 37.2765 17.3223 37.5654 16.9429C37.8541 16.5635 37.9092 16.0594 37.7085 15.6257C37.3731 14.9048 37.1993 14.1212 37.1915 13.3375C38.4951 13.9752 39.9855 14.385 41.4424 14.4253C43.6224 16.5905 45.1857 19.4769 45.8566 22.5979C45.9211 22.8977 46.1281 23.147 46.4109 23.2655C46.6936 23.384 47.0166 23.3567 47.2755 23.1924C47.7061 22.9192 48.2037 22.7747 48.7144 22.7747C50.1982 22.7747 51.4055 23.9819 51.4055 25.4659C51.4055 26.9498 50.1982 28.1572 48.7144 28.1572C48.2641 28.1572 47.835 28.049 47.4393 27.8357C47.1714 27.6913 46.8501 27.6859 46.5778 27.8212C46.3051 27.9564 46.1153 28.2154 46.0683 28.5159C44.8964 36.0067 37.771 37.5792 32.0001 37.5792V37.5792ZM5.4855 62.0632C5.00613 62.1895 4.50988 62.1169 4.08825 61.8587C3.66938 61.6022 3.38125 61.1967 3.27688 60.7167C2.63075 57.7469 2.35513 54.2233 2.57475 51.7404C2.59588 51.5019 2.7315 51.3744 2.774 51.3744H2.77463C4.34538 51.4268 5.65113 52.2503 6.35063 53.0049C6.90013 53.5954 7.77588 53.6873 8.43188 53.2238C9.37125 52.5619 11.1773 51.4194 13.503 50.5524C13.6155 53.7929 14.2745 56.978 15.4633 59.9323C12.1469 60.4765 8.79638 61.1912 5.4855 62.0632V62.0632ZM20.2585 61.8818C19.1153 61.8818 18.0724 61.2089 17.6018 60.1677C17.2 59.2787 16.8528 58.3635 16.5583 57.4292C18.0998 55.218 20.4133 55.0289 21.9736 55.2149C22.2263 56.0904 22.5384 56.9444 22.9108 57.7684C23.7771 59.6855 22.3795 61.8818 20.2585 61.8818V61.8818ZM43.7423 61.8822C41.6408 61.8822 40.2178 59.6979 41.0891 57.7684C41.4615 56.9444 41.7736 56.0904 42.0263 55.2149C43.5865 55.0288 45.9001 55.2178 47.4417 57.4288C47.147 58.3634 46.7996 59.2787 46.3976 60.168C45.9277 61.2093 44.8854 61.8822 43.7423 61.8822Z" fill="black"/>
<path d="M25.96 22.187C25.4422 22.187 25.0225 22.6068 25.0225 23.1245V23.6736C25.0225 24.1914 25.4422 24.6111 25.96 24.6111C26.4777 24.6111 26.8975 24.1914 26.8975 23.6736V23.1245C26.8975 22.6068 26.4777 22.187 25.96 22.187Z" fill="black"/>
<path d="M38.04 22.187C37.5223 22.187 37.1025 22.6068 37.1025 23.1245V23.6736C37.1025 24.1914 37.5223 24.6111 38.04 24.6111C38.5578 24.6111 38.9775 24.1914 38.9775 23.6736V23.1245C38.9775 22.6068 38.5578 22.187 38.04 22.187Z" fill="black"/>
<path d="M34.5408 28.3572C33.8546 29.056 32.9523 29.4407 32.0003 29.4407C31.0483 29.4407 30.1461 29.056 29.4598 28.3572C29.0972 27.988 28.5036 27.9825 28.1341 28.3454C27.7647 28.7081 27.7593 29.3017 28.1222 29.6711C29.1638 30.7316 30.5411 31.3157 32.0002 31.3157C33.4593 31.3157 34.8367 30.7316 35.8782 29.6711C36.2411 29.3017 36.2357 28.7082 35.8663 28.3454C35.4972 27.9825 34.9036 27.9879 34.5408 28.3572Z" fill="black"/>
</svg>
