<svg width="64" height="64" viewBox="0 0 64 64" fill="none" xmlns="http://www.w3.org/2000/svg">
<path d="M42.653 25.8564C44.4362 28.9424 47.657 30.7862 51.1806 30.7862C51.4203 30.7862 51.662 30.7776 51.9041 30.7604C52.3523 30.7284 52.8023 30.665 53.2412 30.5719C53.7477 30.4644 54.0712 29.9667 53.9638 29.4602C53.8563 28.9537 53.3583 28.6299 52.8523 28.7376C52.4973 28.8129 52.1333 28.8641 51.7707 28.8901C48.6906 29.1102 45.8191 27.5877 44.2762 24.918C43.2096 23.072 42.9261 20.9215 43.4783 18.8626C44.0305 16.8035 45.3523 15.0825 47.2002 14.0166C51.0155 11.8159 55.9113 13.1265 58.1138 16.938C59.1805 18.7839 59.464 20.9345 58.9117 22.9934C58.3596 25.0525 57.0377 26.7735 55.1898 27.8394C54.7413 28.0981 54.5875 28.6714 54.8461 29.1199C55.1047 29.5684 55.6777 29.7222 56.1265 29.4636C58.4083 28.1474 60.0405 26.0221 60.7226 23.4791C61.4046 20.936 61.0546 18.2797 59.737 15.9997C57.0176 11.2937 50.9733 9.67574 46.2636 12.3924C43.9817 13.7086 42.3496 15.8339 41.6675 18.3769C40.9856 20.9199 41.3356 23.5761 42.653 25.8564Z" fill="black"/>
<path d="M29.0528 14.3883C29.5553 14.5138 30.0639 14.2087 30.1896 13.7064L30.5446 12.2878H33.4553L33.8103 13.7064C33.9169 14.1323 34.2989 14.4165 34.7189 14.4165C34.7941 14.4165 34.8709 14.4074 34.9471 14.3883C35.4495 14.2625 35.7548 13.7535 35.629 13.2512L34.0359 6.88391C33.8018 5.94866 32.9645 5.29541 32 5.29541C31.0354 5.29541 30.1983 5.94866 29.9641 6.88404L28.371 13.2513C28.2454 13.7535 28.5506 14.2627 29.0528 14.3883ZM31.7828 7.33916C31.8076 7.23979 31.897 7.17029 31.9999 7.17029C32.1028 7.17029 32.1921 7.23979 32.217 7.33916L32.986 10.4128H31.0138L31.7828 7.33916Z" fill="black"/>
<path d="M32.0003 19.7116C37.4391 19.7116 41.864 15.2904 41.864 9.85588C41.864 4.42137 37.4391 0 32.0003 0C26.5616 0 22.1367 4.42137 22.1367 9.85588C22.1367 15.2904 26.5616 19.7116 32.0003 19.7116ZM32.0003 1.875C36.4055 1.875 39.9892 5.45525 39.9892 9.85588C39.9892 14.2565 36.4055 17.8368 32.0003 17.8368C27.5952 17.8368 24.0115 14.2565 24.0115 9.85588C24.0115 5.45525 27.5953 1.875 32.0003 1.875Z" fill="black"/>
<path d="M50.2049 16.073H47.3251C46.8073 16.073 46.3877 16.4927 46.3877 17.0105V24.2565C46.3877 24.7742 46.8073 25.194 47.3251 25.194H50.7946C52.3976 25.194 53.7018 23.8897 53.7018 22.2865C53.7018 21.3081 53.2162 20.4411 52.4732 19.9139C52.6784 19.543 52.7953 19.1167 52.7953 18.6636C52.7953 17.2351 51.6332 16.073 50.2049 16.073ZM48.2624 17.948H50.2049C50.5994 17.948 50.9204 18.269 50.9204 18.6635C50.9204 19.058 50.5994 19.379 50.2049 19.379H48.2624V17.948ZM50.7946 23.319H48.2624V21.254H50.7946C51.3638 21.254 51.8269 21.7171 51.8269 22.2865C51.8269 22.8559 51.3639 23.319 50.7946 23.319Z" fill="black"/>
<path d="M25.2273 33.4961C25.5722 33.1098 25.5385 32.5172 25.1523 32.1723L23.3108 30.528C23.1254 30.3623 22.8802 30.2771 22.6333 30.2913C22.3849 30.3055 22.1524 30.4177 21.9869 30.6033L20.4155 32.3657C20.0709 32.7521 20.1049 33.3448 20.4913 33.6893C20.8778 34.0341 21.4702 34 21.8148 33.6136L21.9138 33.5026C22.1923 35.3905 22.9998 37.165 24.2767 38.6458C26.054 40.7073 28.5285 41.9538 31.2443 42.1558C31.4958 42.1745 31.7463 42.1837 31.9959 42.1837C35.6754 42.1837 39.1216 40.1788 40.9231 36.9312C41.1743 36.4785 41.0109 35.9078 40.5581 35.6566C40.1051 35.4055 39.5348 35.5688 39.2836 36.0216C37.813 38.6726 35.0004 40.3088 31.9968 40.3087C31.7931 40.3087 31.5883 40.3011 31.3831 40.2858C29.1665 40.1211 27.147 39.1037 25.6963 37.4213C24.7142 36.2822 24.0724 34.9303 23.8117 33.4888L23.9034 33.5708C24.2899 33.916 24.8825 33.8822 25.2273 33.4961Z" fill="black"/>
<path d="M56.0017 24.8452V23.9395C56.0017 23.4217 55.5821 23.002 55.0643 23.002C54.5466 23.002 54.127 23.4217 54.127 23.9395V24.8452C54.127 25.363 54.5466 25.7827 55.0643 25.7827C55.5821 25.7827 56.0017 25.363 56.0017 24.8452Z" fill="black"/>
<path d="M41.2114 34.1793C41.4566 34.1793 41.6921 34.0831 41.8676 33.9114L43.5543 32.2588C43.9241 31.8964 43.9302 31.3029 43.5678 30.933C43.2056 30.5631 42.6119 30.5571 42.2422 30.9194L42.1514 31.0084C41.9531 28.9276 41.1188 26.9628 39.7256 25.3469C37.9482 23.2854 35.4737 22.0389 32.7578 21.8369C28.5713 21.5261 24.5568 23.8669 22.7711 27.6634C22.5506 28.1319 22.7518 28.6904 23.2202 28.9108C23.689 29.1313 24.2471 28.9299 24.4675 28.4615C25.9248 25.3634 29.2015 23.4519 32.6188 23.7068C34.8355 23.8716 36.855 24.8889 38.3057 26.5714C39.3826 27.8205 40.0503 29.3253 40.2551 30.9236L40.1551 30.8215C39.7932 30.4515 39.1996 30.4449 38.8296 30.807C38.4594 31.1691 38.4531 31.7628 38.8152 32.1328L40.5416 33.8973C40.7154 34.075 40.9529 34.1764 41.2017 34.179C41.2049 34.1793 41.2082 34.1793 41.2114 34.1793Z" fill="black"/>
<path d="M51.3843 42.0578C51.5896 41.6869 51.7065 41.2607 51.7065 40.8075C51.7065 39.3792 50.5445 38.217 49.1162 38.217H46.2362C45.7185 38.217 45.2988 38.6368 45.2988 39.1545V46.4005C45.2988 46.9183 45.7185 47.338 46.2362 47.338H49.7057C51.3087 47.338 52.613 46.0338 52.613 44.4305C52.613 43.4522 52.1272 42.5852 51.3843 42.0578ZM47.1737 40.0922H49.1162C49.5107 40.0922 49.8316 40.4132 49.8316 40.8077C49.8316 41.2022 49.5107 41.5232 49.1162 41.5232H47.1737V40.0922ZM49.7057 45.4632H47.1737V43.3982H49.7058C50.2751 43.3982 50.7382 43.8613 50.7382 44.4307C50.7382 44.9999 50.2751 45.4632 49.7057 45.4632Z" fill="black"/>
<path d="M31.0934 51.4587H32.9064C33.3893 51.4587 33.7821 51.8509 33.7821 52.3327C33.7821 52.8505 34.2018 53.2702 34.7195 53.2702C35.2373 53.2702 35.6569 52.8505 35.6569 52.3327C35.6569 50.817 34.423 49.5837 32.9063 49.5837H31.0933C29.5766 49.5837 28.3428 50.817 28.3428 52.3327V55.9556C28.3428 57.4714 29.5766 58.7046 31.0933 58.7046H32.9063C34.423 58.7046 35.6569 57.4714 35.6569 55.9556C35.6569 55.4379 35.2373 55.0181 34.7195 55.0181C34.2018 55.0181 33.7821 55.4379 33.7821 55.9556C33.7821 56.4375 33.3893 56.8296 32.9064 56.8296H31.0934C30.6105 56.8296 30.2178 56.4375 30.2178 55.9556V52.3327C30.2178 51.8509 30.6105 51.4587 31.0934 51.4587Z" fill="black"/>
<path d="M53.8534 45.1462C53.3356 45.1462 52.916 45.566 52.916 46.0837V46.9895C52.916 47.5072 53.3356 47.927 53.8534 47.927C54.3711 47.927 54.7908 47.5072 54.7908 46.9895V46.0837C54.7908 45.566 54.3711 45.1462 53.8534 45.1462Z" fill="black"/>
<path d="M60.7227 40.521C60.0406 37.978 58.4085 35.8527 56.1266 34.5366C51.4168 31.8196 45.3726 33.4379 42.6532 38.1439C41.3356 40.4239 40.9855 43.0801 41.6676 45.6232C42.3497 48.1661 43.9818 50.2915 46.2637 51.6077C47.8131 52.5014 49.506 52.9259 51.1785 52.9259C54.5896 52.9259 57.9124 51.1581 59.7371 48.0004C61.0547 45.7204 61.4047 43.0641 60.7227 40.521ZM58.1139 47.0621C55.9114 50.8737 51.0155 52.1844 47.2002 49.9835C45.3525 48.9176 44.0306 47.1966 43.4783 45.1375C42.9261 43.0786 43.2096 40.9281 44.2762 39.0821C45.7543 36.5242 48.4451 35.0929 51.2085 35.0929C52.5627 35.0929 53.935 35.4369 55.1899 36.1607C57.0376 37.2266 58.3595 38.9476 58.9117 41.0067C59.464 43.0656 59.1805 45.2161 58.1139 47.0621Z" fill="black"/>
<path d="M56.1532 45.1462C55.6354 45.1462 55.2158 45.566 55.2158 46.0837V46.9895C55.2158 47.5072 55.6354 47.927 56.1532 47.927C56.6709 47.927 57.0906 47.5072 57.0906 46.9895V46.0837C57.0904 45.566 56.6708 45.1462 56.1532 45.1462Z" fill="black"/>
<path d="M7.87414 29.4635C9.42351 30.3573 11.1165 30.7819 12.7889 30.7818C16.2 30.7815 19.5228 29.014 21.3475 25.8563C22.6651 23.5763 23.0151 20.92 22.3331 18.3769C21.6511 15.8339 20.0189 13.7087 17.737 12.3924C14.1679 10.3338 9.64526 10.7228 6.48276 13.3603C6.08526 13.6919 6.03164 14.283 6.36326 14.6807C6.69476 15.0784 7.28589 15.1319 7.68351 14.8003C10.2453 12.6638 13.9091 12.349 16.8003 14.0167C18.6481 15.0825 19.97 16.8035 20.5221 18.8626C21.0744 20.9215 20.7909 23.072 19.7243 24.918C17.5218 28.7295 12.6259 30.0401 8.81064 27.8394C6.96276 26.7735 5.64089 25.0525 5.08876 22.9934C4.53651 20.9345 4.82001 18.7839 5.88664 16.938C6.14576 16.4898 5.99239 15.9163 5.54414 15.6572C5.09589 15.398 4.52239 15.5515 4.26351 15.9998C2.94589 18.2798 2.59589 20.936 3.27789 23.4791C3.96014 26.022 5.59226 28.1473 7.87414 29.4635Z" fill="black"/>
<path d="M35.5832 44.9588C35.101 44.771 34.5575 45.0095 34.3695 45.492C34.1815 45.9743 34.4201 46.518 34.9026 46.7058C37.9926 47.9101 39.9892 50.8297 39.9892 54.144C39.9892 58.5446 36.4055 62.1248 32.0003 62.1248C27.5952 62.1248 24.0115 58.5446 24.0115 54.144C24.0115 49.7433 27.5952 46.1631 32.0003 46.1631C32.5181 46.1631 32.9377 45.7433 32.9377 45.2256C32.9377 44.7078 32.5181 44.2881 32.0003 44.2881C26.5616 44.2881 22.1367 48.7095 22.1367 54.144C22.1367 59.5785 26.5617 64 32.0005 64C37.4392 64 41.8641 59.5786 41.8641 54.1441C41.8641 52.1203 41.2546 50.1756 40.1015 48.5201C38.9755 46.9035 37.4132 45.672 35.5832 44.9588Z" fill="black"/>
<path d="M15.0718 18.2424C15.5896 18.2424 16.0092 17.8227 16.0092 17.3049C16.0092 16.7872 15.5896 16.3674 15.0718 16.3674H10.5389C10.0212 16.3674 9.60156 16.7872 9.60156 17.3049V24.5509C9.60156 25.0687 10.0212 25.4884 10.5389 25.4884H15.0717C15.5894 25.4884 16.0091 25.0687 16.0091 24.5509C16.0091 24.0332 15.5894 23.6134 15.0717 23.6134H11.4764V21.5484H14.0066C14.5243 21.5484 14.9439 21.1287 14.9439 20.6109C14.9439 20.0932 14.5243 19.6734 14.0066 19.6734H11.4764V18.2424H15.0718Z" fill="black"/>
<path d="M11.9024 38.5117H10.0858C9.56806 38.5117 9.14844 38.9315 9.14844 39.4492V46.6952C9.14844 47.213 9.56806 47.6327 10.0858 47.6327H11.9024C14.4168 47.6327 16.4624 45.5868 16.4624 43.0722C16.4624 40.5575 14.4168 38.5117 11.9024 38.5117ZM11.9024 45.7577H11.0232V40.3867H11.9024C13.3829 40.3867 14.5876 41.5915 14.5876 43.0722C14.5876 44.553 13.3829 45.7577 11.9024 45.7577Z" fill="black"/>
<path d="M21.3474 38.1435C18.6281 33.4377 12.5838 31.8194 7.87401 34.5363C5.59213 35.8525 3.96001 37.9778 3.27789 40.5208C2.59589 43.0639 2.94589 45.7202 4.26351 48.0002C6.08838 51.1581 9.41076 52.9256 12.8221 52.9256C14.4941 52.9256 16.1878 52.501 17.7369 51.6075C20.0188 50.2913 21.651 48.166 22.333 45.623C23.015 43.08 22.6649 40.4238 21.3474 38.1435ZM20.522 45.1373C19.9699 47.1964 18.648 48.9174 16.8001 49.9833C12.9848 52.184 8.08901 50.8734 5.88651 47.0619C4.81989 45.216 4.53638 43.0654 5.08863 41.0065C5.64076 38.9474 6.96263 37.2264 8.81051 36.1605C10.0656 35.4365 11.4373 35.0927 12.7919 35.0927C15.5551 35.0927 18.2461 36.5243 19.7241 39.0819C20.7908 40.9279 21.0743 43.0784 20.522 45.1373Z" fill="black"/>
</svg>
