<svg width="269" height="174" viewBox="0 0 269 174" fill="none" xmlns="http://www.w3.org/2000/svg">
<path d="M59.6747 28.7109L9.53906 62.2446L58.9182 136.059L109.054 102.525L59.6747 28.7109Z" fill="#F5F5F5"/>
<path d="M83.1532 99.0277L82.5812 102.548L57.6562 98.9562L58.2282 95.4355L83.1532 99.0277Z" fill="#E0E0E0"/>
<path d="M70.6008 86.4692L74.1755 86.983L70.212 111.519L66.6328 111L70.6008 86.4692Z" fill="#E0E0E0"/>
<path d="M47.6425 55.2858C47.6783 55.3394 42.6558 58.7615 36.4223 62.9297C30.1888 67.0979 25.1082 70.4352 25.0725 70.3816C25.0367 70.328 30.0592 66.9058 36.2927 62.7376C42.5217 58.565 47.6068 55.2322 47.6425 55.2858Z" fill="#E0E0E0"/>
<path d="M66.079 50.6574C66.1148 50.711 57.7588 56.3624 47.4188 63.2737C37.0744 70.1894 28.6648 75.7515 28.629 75.6979C28.5933 75.6443 36.9448 69.9973 47.2892 63.0771C57.6292 56.1658 66.0433 50.6038 66.079 50.6574Z" fill="#E0E0E0"/>
<path d="M69.7743 56.1793C69.8101 56.2329 61.4541 61.8844 51.1141 68.7957C40.7697 75.7114 32.3601 81.2735 32.3243 81.2199C32.2886 81.1663 40.6401 75.5193 50.9845 68.5991C61.329 61.6923 69.7386 56.1257 69.7743 56.1793Z" fill="#E0E0E0"/>
<path d="M73.4716 61.7057C73.5073 61.7593 65.1513 67.4107 54.8114 74.322C44.4669 81.2378 36.0573 86.7998 36.0216 86.7462C35.9859 86.6926 44.3374 81.0457 54.6818 74.1255C65.0262 67.2142 73.4358 61.6521 73.4716 61.7057Z" fill="#E0E0E0"/>
<path d="M77.1708 67.2321C77.2066 67.2857 68.8506 72.9371 58.5106 79.8484C48.1662 86.7641 39.7566 92.3262 39.7208 92.2726C39.6851 92.219 48.0366 86.572 58.381 79.6518C68.721 72.7405 77.1351 67.1785 77.1708 67.2321Z" fill="#E0E0E0"/>
<path d="M227.327 78.1706L185.221 106.333L226.69 168.324L268.796 140.161L227.327 78.1706Z" fill="#F5F5F5"/>
<path d="M247.046 137.234L246.567 140.192L225.633 137.176L226.111 134.218L247.046 137.234Z" fill="#E0E0E0"/>
<path d="M236.498 126.686L239.505 127.119L236.172 147.723L233.17 147.29L236.498 126.686Z" fill="#E0E0E0"/>
<path d="M217.223 100.497C217.259 100.551 213.045 103.432 207.808 106.931C202.571 110.434 198.3 113.226 198.264 113.172C198.228 113.119 202.442 110.237 207.679 106.734C212.911 103.236 217.188 100.443 217.223 100.497Z" fill="#E0E0E0"/>
<path d="M232.707 96.6103C232.743 96.6639 225.732 101.417 217.046 107.225C208.359 113.033 201.29 117.697 201.254 117.643C201.218 117.59 208.229 112.841 216.916 107.029C225.603 101.221 232.672 96.5567 232.707 96.6103Z" fill="#E0E0E0"/>
<path d="M235.813 101.247C235.849 101.301 228.838 106.055 220.151 111.862C211.464 117.67 204.395 122.334 204.36 122.281C204.324 122.227 211.335 117.478 220.021 111.666C228.704 105.862 235.777 101.198 235.813 101.247Z" fill="#E0E0E0"/>
<path d="M238.912 105.889C238.948 105.943 231.937 110.696 223.251 116.504C214.564 122.312 207.495 126.976 207.459 126.923C207.423 126.869 214.434 122.12 223.121 116.308C231.808 110.5 238.877 105.836 238.912 105.889Z" fill="#E0E0E0"/>
<path d="M242.018 110.531C242.054 110.585 235.043 115.338 226.356 121.146C217.669 126.954 210.6 131.618 210.565 131.564C210.529 131.51 217.54 126.762 226.226 120.949C234.913 115.141 241.982 110.477 242.018 110.531Z" fill="#E0E0E0"/>
<path d="M160.71 31.4216L114.768 6.85376L78.5893 74.4917L124.532 99.0595L160.71 31.4216Z" fill="#F5F5F5"/>
<path d="M116.667 77.9003L113.753 78.8966L106.354 58.4487L109.267 57.448L116.667 77.9003Z" fill="#E0E0E0"/>
<path d="M121.134 63.229L122.197 66.1644L101.884 73.1209L100.82 70.1855L121.134 63.229Z" fill="#E0E0E0"/>
<path d="M135.567 33.056C135.532 33.1231 130.871 30.7015 125.16 27.6454C119.445 24.5894 114.847 22.0606 114.883 21.9935C114.919 21.9265 119.579 24.3481 125.29 27.4042C131.001 30.4602 135.603 32.989 135.567 33.056Z" fill="#E0E0E0"/>
<path d="M146.591 45.2249C146.555 45.292 138.843 41.2399 129.37 36.1737C119.892 31.1075 112.238 26.9438 112.274 26.8768C112.309 26.8098 120.022 30.8618 129.499 35.9325C138.977 40.9942 146.627 45.1579 146.591 45.2249Z" fill="#E0E0E0"/>
<path d="M143.882 50.2865C143.846 50.3535 136.134 46.3014 126.661 41.2353C117.183 36.1691 109.529 32.0053 109.565 31.9383C109.6 31.8713 117.313 35.9234 126.79 40.994C136.268 46.0557 143.918 50.2195 143.882 50.2865Z" fill="#E0E0E0"/>
<path d="M141.175 55.3482C141.139 55.4153 133.427 51.3632 123.954 46.297C114.476 41.2308 106.822 37.0671 106.858 37.0001C106.893 36.9331 114.606 40.9851 124.083 46.0558C133.556 51.1175 141.211 55.2812 141.175 55.3482Z" fill="#E0E0E0"/>
<path d="M138.468 60.4098C138.432 60.4768 130.72 56.4247 121.247 51.3585C111.769 46.2924 104.115 42.1286 104.151 42.0616C104.186 41.9946 111.899 46.0466 121.376 51.1173C130.849 56.179 138.504 60.3427 138.468 60.4098Z" fill="#E0E0E0"/>
<path d="M258 171.75C258 172.154 200.24 172.5 129.007 172.5C57.7464 172.5 0 172.154 0 171.75C0 171.346 57.7464 171 129.007 171C200.24 171 258 171.317 258 171.75Z" fill="#838383"/>
<path d="M14.2764 143.604C15.7868 143.657 17.2033 144.475 18.1997 145.614C19.1962 146.749 19.8084 148.178 20.1971 149.639C20.9523 152.463 20.4876 155.8 19.6833 158.61C16.6224 157.515 14.7367 154.254 13.8832 152.539C12.5382 149.831 11.7518 144.113 14.2764 143.604Z" fill="#0379E6"/>
<path d="M24.0896 162.032C23.1245 160.647 23.1021 158.722 23.8662 157.212C24.6302 155.706 26.0958 154.62 27.7087 154.125C28.4549 153.897 29.3217 153.798 29.9696 154.232C30.5772 154.638 30.8409 155.434 30.7604 156.157C30.68 156.881 30.3136 157.547 29.8802 158.132C28.3924 160.151 26.5828 161.827 24.0896 162.032Z" fill="#0379E6"/>
<path d="M24.4237 171.472C24.4103 171.476 24.3611 171.266 24.2852 170.887C24.2047 170.467 24.0975 169.926 23.9724 169.278C23.7311 167.925 23.3469 165.999 23.6373 163.873C23.9143 161.755 24.7588 159.941 25.6434 158.86C26.0768 158.315 26.4968 157.926 26.805 157.69C26.9525 157.565 27.0865 157.489 27.1669 157.426C27.2518 157.368 27.301 157.341 27.3054 157.35C27.3367 157.386 26.5906 157.85 25.764 158.954C24.9285 160.04 24.1243 161.818 23.8473 163.904C23.5614 165.99 23.9143 167.898 24.1198 169.256C24.2271 169.94 24.3164 170.494 24.3701 170.878C24.4192 171.257 24.4371 171.472 24.4237 171.472Z" fill="#263238"/>
<path d="M15.2641 147.906C15.2686 147.901 15.3133 147.982 15.3893 148.138C15.4697 148.312 15.5769 148.54 15.7065 148.817C15.9746 149.411 16.3589 150.273 16.8192 151.341C17.7397 153.481 18.9729 156.457 20.2599 159.767C21.5468 163.082 22.6415 166.111 23.4012 168.309C23.781 169.408 24.0848 170.301 24.2859 170.922C24.3798 171.217 24.4557 171.454 24.5138 171.637C24.563 171.803 24.5853 171.887 24.5808 171.892C24.5719 171.896 24.5362 171.812 24.4736 171.651C24.4066 171.468 24.3172 171.235 24.21 170.949C23.9776 170.315 23.6559 169.435 23.2626 168.358C22.4628 166.169 21.3457 163.153 20.0632 159.838C18.7763 156.528 17.5699 153.548 16.6851 151.395C16.2517 150.336 15.8942 149.469 15.635 148.844C15.5188 148.558 15.4295 148.326 15.358 148.147C15.2865 147.991 15.2597 147.906 15.2641 147.906Z" fill="#263238"/>
<path d="M20.7949 165.226C18.9898 162.157 15.6253 160.066 12.0732 159.807C11.1707 159.74 10.0804 159.892 9.67832 160.705C9.27619 161.518 9.81236 162.479 10.429 163.149C12.9936 165.923 17.3277 166.893 20.8262 165.472" fill="#0379E6"/>
<path d="M13.4493 162.229C13.4493 162.215 13.6504 162.224 14.0167 162.251C14.1999 162.265 14.4233 162.278 14.678 162.327C14.9327 162.376 15.2276 162.403 15.5448 162.488C15.8621 162.564 16.215 162.644 16.5769 162.774C16.9478 162.881 17.3276 163.042 17.7252 163.212C18.5116 163.569 19.3516 164.038 20.1469 164.646C20.9378 165.262 21.6035 165.95 22.1486 166.625C22.4078 166.969 22.658 167.299 22.8546 167.634C23.0691 167.956 23.2299 168.278 23.3774 168.568C23.5382 168.854 23.6321 169.136 23.7393 169.372C23.8465 169.609 23.9091 169.824 23.9627 169.998C24.0699 170.346 24.1235 170.538 24.1101 170.543C24.0655 170.561 23.8465 169.779 23.2433 168.635C23.0869 168.354 22.9216 168.041 22.7027 167.728C22.5061 167.402 22.2559 167.085 21.9923 166.75C21.4516 166.093 20.7904 165.423 20.0129 164.815C19.231 164.217 18.4133 163.752 17.6404 163.39C17.2516 163.221 16.8763 163.055 16.5144 162.944C16.1614 162.81 15.8174 162.725 15.5046 162.635C14.2491 162.318 13.4404 162.278 13.4493 162.229Z" fill="#263238"/>
<path d="M95.0099 78.8698L79.2095 160.09L77.1406 170.722L182.623 170.204C187.355 170.182 191.55 165.978 193.074 159.737L211.779 83.0559C212.936 78.3159 210.398 73.3882 206.806 73.3882L100.046 73.4999C97.691 73.5043 95.631 75.7024 95.0099 78.8698Z" fill="#0379E6"/>
<g opacity="0.5">
<path opacity="0.5" d="M95.0099 78.8698L79.2095 160.09L77.1406 170.722L182.623 170.204C187.355 170.182 191.55 165.978 193.074 159.737L211.779 83.0559C212.936 78.3159 210.398 73.3882 206.806 73.3882L100.046 73.4999C97.691 73.5043 95.631 75.7024 95.0099 78.8698Z" fill="black"/>
</g>
<path d="M172.505 154.59L161.338 64.6094C160.883 60.9237 157.942 58.1717 154.475 58.1851L129.983 58.2655C128.169 58.27 126.431 59.0429 125.144 60.4099L113.517 72.7671L45.4047 73.1245C41.2446 73.1469 38.0452 77.0828 38.5948 81.5101L48.966 164.673C49.4263 168.354 52.3576 171.102 55.8206 171.093L174.525 170.861C187.747 171.133 189.007 167.233 189.007 167.233C173.859 170.584 172.509 154.599 172.505 154.59Z" fill="#0379E6"/>
<g opacity="0.5">
<path opacity="0.5" d="M121.324 136.581L117.32 140.879L86.4883 113.145L90.492 108.847L121.324 136.581Z" fill="white"/>
<path opacity="0.5" d="M115.641 107.895L120.069 111.876L92.1679 141.831L87.7441 137.855L115.641 107.895Z" fill="white"/>
</g>
<path d="M189.457 20.4523C189.171 20.3317 188.966 20.0503 188.952 19.7197L188.773 15.5738C188.76 15.3147 188.872 15.06 189.073 14.8947C189.274 14.7294 189.542 14.6669 189.797 14.725C190.462 14.8813 191.2 14.7384 191.812 14.3274C192.379 13.9476 192.759 13.3937 192.853 12.7995C192.951 12.2098 192.768 11.553 192.352 11.0035C191.906 10.4138 191.249 10.0207 190.592 9.94472C189.247 9.78835 187.795 10.8204 187.42 12.1964C187.299 12.6386 186.843 12.9022 186.396 12.7816C185.945 12.6565 185.69 12.2008 185.811 11.7585C186.396 9.59625 188.63 8.04155 190.784 8.28726C191.901 8.41682 192.96 9.0378 193.684 9.99832C194.372 10.9097 194.671 12.0266 194.502 13.0675C194.332 14.1129 193.688 15.0779 192.737 15.7123C192.049 16.1725 191.262 16.4226 190.476 16.4494L190.614 19.6482C190.632 20.1084 190.279 20.497 189.819 20.5149C189.689 20.5238 189.569 20.5015 189.457 20.4523Z" fill="#0379E6"/>
<path d="M190.677 22.15C190.704 22.5253 190.418 22.8514 190.042 22.8783C189.667 22.9051 189.341 22.6191 189.314 22.2439C189.287 21.8686 189.573 21.5425 189.949 21.5157C190.324 21.4889 190.65 21.7748 190.677 22.15Z" fill="#0379E6"/>
<path d="M175.096 14.6043C175.1 14.6043 175.114 14.5105 175.136 14.3318C175.159 14.1397 175.185 13.8717 175.226 13.5321C175.243 13.1792 175.337 12.7503 175.44 12.25C175.498 11.9998 175.529 11.7228 175.623 11.4413C175.713 11.1599 175.802 10.8561 175.9 10.5389C176.334 9.28351 177 7.77795 178.121 6.28133C179.234 4.78918 180.802 3.31042 182.813 2.19354C183.805 1.60383 184.936 1.19281 186.124 0.826476C187.331 0.540554 188.609 0.29484 189.945 0.326112C190.61 0.290372 191.285 0.388658 191.973 0.446736C192.317 0.478009 192.652 0.571827 192.997 0.629905C193.341 0.69245 193.689 0.759464 194.024 0.880087C195.405 1.23302 196.746 1.88528 198.019 2.68944C200.584 4.30221 202.742 6.92466 203.926 10.1055C204.521 11.696 204.802 13.4383 204.802 15.203C204.838 16.9677 204.494 18.7591 203.868 20.4479L203.667 20.9572L203.64 21.0242L203.667 21.0867C204.789 23.669 205.888 26.1976 206.952 28.6503L207.139 28.4358C204.833 27.5512 202.595 26.689 200.445 25.867L200.361 25.8357L200.294 25.8983C198.435 27.6987 196.218 28.9138 193.975 29.5438C191.723 30.1782 189.453 30.2094 187.393 29.8431C185.324 29.4768 183.465 28.686 181.91 27.6719C180.355 26.6577 179.104 25.4202 178.143 24.1649C177.187 22.8961 176.557 21.5916 176.084 20.43C175.663 19.2416 175.409 18.1873 175.284 17.3117C175.23 16.8738 175.185 16.4896 175.145 16.1501C175.136 15.815 175.127 15.5336 175.123 15.2968C175.114 15.0779 175.109 14.9037 175.105 14.7741C175.105 14.6669 175.1 14.6043 175.096 14.6043C175.092 14.6043 175.087 14.6624 175.087 14.783C175.087 14.9126 175.083 15.0868 175.078 15.3057C175.078 15.5425 175.078 15.8284 175.078 16.1635C175.114 16.503 175.154 16.8962 175.194 17.334C175.306 18.2141 175.547 19.2818 175.958 20.4881C176.423 21.6675 177.049 22.9899 178.005 24.2855C178.97 25.5632 180.226 26.8275 181.799 27.8684C183.367 28.9094 185.253 29.7225 187.353 30.1022C189.449 30.4819 191.754 30.4596 194.047 29.8208C196.334 29.1819 198.596 27.9533 200.495 26.1216L200.347 26.1529C202.492 26.9794 204.731 27.8416 207.036 28.7351L207.372 28.8647L207.224 28.5207C206.161 26.068 205.061 23.5349 203.944 20.9527V21.0823L204.15 20.5596C204.793 18.8351 205.142 16.9989 205.106 15.1985C205.106 13.3981 204.816 11.6156 204.208 9.98938C202.997 6.74149 200.785 4.0699 198.171 2.43479C196.866 1.61723 195.503 0.960501 194.096 0.603099C193.752 0.486943 193.399 0.419931 193.05 0.352918C192.702 0.29484 192.358 0.201022 192.009 0.16975C191.312 0.111672 190.628 0.0178535 189.949 0.0580613C188.591 0.0312561 187.295 0.285905 186.07 0.580762C184.864 0.956034 183.72 1.38045 182.719 1.98357C180.686 3.13172 179.109 4.63728 177.992 6.16071C176.87 7.68414 176.209 9.2165 175.793 10.4853C175.699 10.8069 175.61 11.1107 175.525 11.4011C175.436 11.687 175.409 11.9685 175.355 12.2187C175.257 12.728 175.176 13.1569 175.167 13.5143C175.141 13.8583 175.123 14.1219 175.109 14.3184C175.096 14.515 175.092 14.6043 175.096 14.6043Z" fill="#263238"/>
</svg>
